<?xml version="1.0" encoding="UTF-8"?>
<!DOCTYPE svg PUBLIC "-//W3C//DTD SVG 1.1//EN" "http://www.w3.org/Graphics/SVG/1.1/DTD/svg11.dtd">
<!-- Creator: CorelDRAW -->
<svg xmlns="http://www.w3.org/2000/svg" xml:space="preserve" width="169.333mm" height="107.289mm" version="1.1" style="shape-rendering:geometricPrecision; text-rendering:geometricPrecision; image-rendering:optimizeQuality; fill-rule:evenodd; clip-rule:evenodd"
viewBox="0 0 16933.32 10728.86"
 xmlns:xlink="http://www.w3.org/1999/xlink"
 xmlns:xodm="http://www.corel.com/coreldraw/odm/2003">
 <defs>
  <style type="text/css">
   <![CDATA[
    .fil0 {fill:#E42229;fill-rule:nonzero}
   ]]>
  </style>
 </defs>
 <g id="Layer_x0020_1">
  <metadata id="CorelCorpID_0Corel-Layer"/>
  <g id="_2447699504624">
   <path class="fil0" d="M4659.48 5218.51c0,37.64 -12.04,67.29 -36.23,89.15 -24.29,21.56 -55.97,32.49 -95.23,32.49l-179.13 0 0 -255.54 179.13 0c39.26,0 70.94,10.83 95.23,32.49 24.19,21.76 36.23,51.41 36.23,88.85l0 12.56zm129.74 -157.88c-23.78,-40.08 -56.77,-71.05 -98.98,-93.21 -42.09,-22.06 -90.98,-33.3 -146.03,-33.3l-360.79 0 0 402.39 -166.17 0 0 157.97 166.17 0 0 316.77 165.47 0 0 -320.81 195.32 0c53.64,0 101.3,-10.93 143.5,-33.2 42.21,-22.06 75.6,-53.43 100.3,-94.02 24.59,-40.38 36.94,-87.74 36.94,-142.08l0 -17.61c0,-55.16 -11.84,-102.83 -35.73,-142.9z"/>
   <polygon class="fil0" points="5318.61,4934.12 5030.49,4934.12 4799.85,5811.25 4970.27,5811.25 5017.94,5618.36 5018.55,5618.36 5057.21,5458.86 5058.42,5458.86 5163.27,5038.16 5185.84,5038.16 5290.68,5458.86 5291.69,5458.86 5330.35,5618.36 5331.16,5618.36 5378.73,5811.25 5549.15,5811.25 "/>
   <polygon class="fil0" points="6460.08,4934.12 6374.86,5695.98 6352.3,5695.98 6242.09,4934.12 5956.39,4934.12 5846.18,5695.98 5823.51,5695.98 5738.4,4934.12 5574.25,4934.12 5689.52,5811.25 5975.11,5811.25 6087.96,5031.89 6110.52,5031.89 6223.26,5811.25 6508.96,5811.25 6624.23,4934.12 "/>
   <polygon class="fil0" points="6913.87,5660.86 6913.87,5444.19 7277.29,5444.19 7277.29,5293.8 6913.87,5293.8 6913.87,5084.51 7312.3,5084.51 7312.3,4934.12 6748.51,4934.12 6748.51,5811.25 7319.89,5811.25 7319.89,5660.86 "/>
   <path class="fil0" d="M9781.75 5482.95c0,60.21 -17.1,108.18 -51.41,144.11 -34.21,35.93 -82.28,53.84 -144.01,53.84 -61.03,0 -108.9,-17.91 -143.51,-53.84 -34.71,-35.93 -52.02,-83.9 -52.02,-144.11l0 -220.52c0,-60.12 17.31,-108.19 52.02,-144.12 34.61,-35.82 82.48,-53.84 143.51,-53.84 61.73,0 109.8,18.02 144.01,53.84 34.31,35.93 51.41,84 51.41,144.12l0 220.52zm67.61 -475.45c-65.08,-60.62 -152.82,-90.88 -263.03,-90.88 -110.31,0 -198.06,30.26 -263.13,90.88 -65.17,60.52 -97.76,147.14 -97.76,259.99l0 210.5c0,112.74 32.59,199.47 97.76,259.99 65.07,60.52 152.82,90.88 263.13,90.88 110.21,0 197.95,-30.36 263.03,-90.88 65.27,-60.52 97.86,-147.25 97.86,-259.99l0 -210.5c0,-112.85 -32.59,-199.47 -97.86,-259.99z"/>
   <path class="fil0" d="M10568.6 5213.65c0,35.01 -11.03,63.25 -33.19,84.5 -22.17,21.25 -52.83,31.98 -92.1,31.98l-197.95 0 0 -245.62 197.95 0c40.08,0 70.95,10.73 92.71,31.98 21.75,21.25 32.58,49.49 32.58,84.51l0 12.65zm127.82 97.66c25.1,-32.59 37.55,-75.2 37.55,-127.72l0 -15.08c0,-47.66 -11.24,-89.06 -33.8,-124.07 -22.57,-35.12 -54.25,-62.24 -95.24,-81.47 -40.88,-19.13 -88.95,-28.85 -144.01,-28.85l-381.02 0 0 877.13 165.46 0 0 -330.73 230.54 0c24.19,0 41.6,6.27 52.02,18.72 10.42,12.55 15.68,28.84 15.68,48.88l0 263.13 165.37 0 0 -286.91c0,-35.12 -9.21,-63.25 -27.53,-84.61 -18.42,-21.25 -44.32,-32.79 -77.72,-34.41l0 -22.56c36.74,-15.08 67.6,-38.86 92.7,-71.45z"/>
   <path class="fil0" d="M11390.57 5460.38c0,63.55 -15.48,112.84 -46.35,147.96 -30.87,35.01 -79.75,52.52 -146.64,52.52l-82.68 0 0 -576.35 82.68 0c66.89,0 115.77,17.41 146.64,52.02 30.87,34.71 46.35,84.2 46.35,148.46l0 175.39zm73.27 -436.59c-61.33,-59.71 -150.99,-89.67 -268.69,-89.67l-360.89 0 0 145.33 115.27 0 0 586.47 -115.27 0 0 145.33 360.89 0c117.7,0 207.36,-29.86 268.69,-89.57 61.43,-59.7 92.1,-148.46 92.1,-266.26l0 -165.37c0,-117.79 -30.67,-206.55 -92.1,-266.26z"/>
   <polygon class="fil0" points="12151.11,4934.12 11965.71,5310.09 11943.14,5310.09 11757.73,4934.12 11573.54,4934.12 11871.69,5509.26 11871.69,5811.25 12037.05,5811.25 12037.05,5509.26 12335.3,4934.12 "/>
   <path class="fil0" d="M12926.73 4934.12l0 764.39 -22.57 0 -174.17 -764.39 -314.54 0 0 877.13 162.93 0 0 -764.28 22.57 0 174.17 764.28 314.44 0 0 -877.13 -162.83 0zm-185.51 -235.49l-87.64 162.93 140.37 0 130.25 -162.93 -182.98 0z"/>
   <path class="fil0" d="M13840.08 5426.58c-25.81,-34.21 -62.04,-61.84 -108.29,-82.68 -46.35,-20.85 -100.9,-38.06 -163.54,-51.42l-28.84 -6.17c-35.12,-7.59 -63.96,-16.29 -86.43,-26.31 -22.57,-10.12 -39.47,-22.67 -50.7,-37.65 -11.34,-15.08 -17.01,-33.4 -17.01,-55.15 0,-32.59 11.95,-58.2 35.73,-77.02 23.78,-18.82 60.72,-28.24 110.92,-28.24 33.39,0 62.24,4.86 86.43,14.48 24.28,9.61 42.8,24.59 55.76,45.13 12.95,20.45 19.43,47.37 19.43,80.76l0 37.55 162.94 0 0 -37.55c0,-63.45 -14.07,-116.28 -42.01,-158.48 -28.03,-42.2 -66.48,-73.98 -115.26,-95.23 -48.88,-21.36 -104.65,-31.98 -167.29,-31.98 -62.65,0 -117.2,10.22 -163.55,30.66 -46.35,20.55 -82.27,49.69 -107.78,87.74 -25.5,38.06 -38.25,83.8 -38.25,137.24 0,53.43 11.54,96.85 34.51,130.24 22.97,33.5 55.96,60.42 98.97,80.86 43.01,20.55 94.63,37.45 154.74,50.81l28.85 6.17c37.54,8.4 69.52,17.41 95.83,27.02 26.32,9.52 46.36,21.86 60.12,36.94 13.76,15.08 20.75,34.61 20.75,58.9 0,35.02 -14.07,63.86 -42,86.43 -28.04,22.57 -70.34,33.8 -127.21,33.8 -55.97,0 -100.19,-13.06 -132.78,-39.47 -32.59,-26.31 -48.88,-65.78 -48.88,-118.41l0 -35.11 -162.94 0 0 35.11c0,63.56 14.67,117.8 43.92,162.94 29.25,45.14 69.73,79.75 121.55,103.94 51.81,24.28 111.52,36.43 179.13,36.43 67.7,0 126.4,-11.54 176.09,-34.51 49.69,-22.98 88.15,-54.65 115.27,-95.23 27.12,-40.48 40.68,-87.44 40.68,-140.98 0,-53.43 -12.95,-97.25 -38.86,-131.56z"/>
   <polygon class="fil0" points="14307.54,5366.46 14673.38,4934.12 14461.56,4934.12 14177.19,5282.46 14154.62,5282.46 14154.62,4934.12 13989.25,4934.12 13989.25,5811.25 14154.62,5811.25 14154.62,5455.42 14177.19,5455.42 14467.84,5811.25 14685.93,5811.25 "/>
   <polygon class="fil0" points="14761.02,4934.12 14761.02,5811.25 14926.49,5811.25 14926.49,4934.12 "/>
   <polygon class="fil0" points="9092.56,4944.95 9092.56,5811.25 8923.86,5811.25 8923.86,5376.38 8608.81,5537.9 8608.81,5811.25 8440.01,5811.25 8440.01,4944.95 8608.81,4944.95 8608.81,5379.92 8923.86,5218.4 8923.86,4944.95 "/>
   <path class="fil0" d="M9602.72 5519.99l-37.44 0c-34.71,0 -62.85,-28.14 -62.85,-62.85l0 -154.64c0,-34.71 28.14,-62.84 62.85,-62.84l37.44 0c34.72,0 62.85,28.13 62.85,62.84l0 154.64c0,34.71 -28.13,62.85 -62.85,62.85z"/>
   <polygon class="fil0" points="8133.56,5660.86 8133.56,5811.25 7567.23,5811.25 7567.23,5542.15 7425.85,5615.62 7361.79,5492.36 7567.23,5385.79 7567.23,4934.12 7732.7,4934.12 7732.7,5299.87 7888.96,5218.71 7952.92,5341.97 7732.7,5456.23 7732.7,5660.86 "/>
   <path class="fil0" d="M2371.87 5809.27c-54.71,0 -96.77,-9.39 -126.17,-28.17 -29.4,-18.79 -51.04,-39.61 -64.92,-62.48l-22.05 0 0 73.5 -151.9 0 0 -857.49 154.35 0 0 319.72 22.05 0c8.98,-14.7 21.02,-28.58 36.13,-41.65 15.11,-13.06 35.12,-23.88 60.03,-32.46 24.9,-8.57 55.73,-12.86 92.48,-12.86 49,0 94.33,12.05 135.98,36.14 41.64,24.09 75.13,59.41 100.44,105.96 25.32,46.55 37.98,102.9 37.98,169.05l0 19.59c0,66.15 -12.66,122.5 -37.98,169.05 -25.31,46.55 -58.8,81.87 -100.44,105.96 -41.65,24.09 -86.98,36.14 -135.98,36.14zm-46.55 -134.75c47.37,0 86.98,-15.31 118.83,-45.93 31.85,-30.63 47.77,-75.34 47.77,-134.14l0 -12.25c0,-58.8 -15.72,-103.51 -47.16,-134.14 -31.44,-30.62 -71.25,-45.93 -119.44,-45.93 -47.36,0 -86.97,15.31 -118.82,45.93 -31.85,30.63 -47.77,75.34 -47.77,134.14l0 12.25c0,58.8 15.92,103.51 47.77,134.14 31.85,30.62 71.46,45.93 118.82,45.93z"/>
   <path id="_1" class="fil0" d="M2854.52 6037.12l0 -134.75 330.74 0c22.87,0 34.3,-12.25 34.3,-36.75l0 -153.12 -22.05 0c-6.53,13.88 -16.74,27.76 -30.62,41.65 -13.89,13.88 -32.67,25.31 -56.35,34.3 -23.68,8.98 -53.9,13.47 -90.65,13.47 -47.37,0 -88.81,-10.82 -124.34,-32.46 -35.52,-21.64 -63.08,-51.66 -82.68,-90.04 -19.6,-38.38 -29.4,-82.48 -29.4,-132.3l0 -362.59 154.35 0 0 350.34c0,45.74 11.23,80.04 33.68,102.9 22.46,22.87 54.51,34.3 96.16,34.3 47.37,0 84.12,-15.72 110.25,-47.16 26.14,-31.44 39.2,-75.34 39.2,-131.69l0 -308.69 154.35 0 0 715.39c0,41.65 -12.25,74.93 -36.75,99.83 -24.5,24.91 -57.17,37.37 -98,37.37l-382.19 0z"/>
  </g>
 </g>
</svg>
