<?xml version="1.0" encoding="UTF-8"?>
<!DOCTYPE svg PUBLIC "-//W3C//DTD SVG 1.1//EN" "http://www.w3.org/Graphics/SVG/1.1/DTD/svg11.dtd">
<!-- Creator: CorelDRAW -->
<svg xmlns="http://www.w3.org/2000/svg" xml:space="preserve" width="169.333mm" height="50.7998mm" version="1.1" style="shape-rendering:geometricPrecision; text-rendering:geometricPrecision; image-rendering:optimizeQuality; fill-rule:evenodd; clip-rule:evenodd"
viewBox="0 0 16933.32 5079.98"
 xmlns:xlink="http://www.w3.org/1999/xlink"
 xmlns:xodm="http://www.corel.com/coreldraw/odm/2003">
 <defs>
  <style type="text/css">
   <![CDATA[
    .fil2 {fill:#E42229}
    .fil3 {fill:#E6E6E6}
    .fil1 {fill:#E42229;fill-rule:nonzero}
    .fil0 {fill:white;fill-rule:nonzero}
   ]]>
  </style>
 </defs>
 <g id="Layer_x0020_1">
  <metadata id="CorelCorpID_0Corel-Layer"/>
  <g id="_2939510323568">
   <path class="fil0" d="M2020.95 1627.86c-87.09,0 -156.42,-25.26 -207.99,-75.77 -51.56,-50.52 -77.34,-124.21 -77.34,-221.06l0 -167.23c0,-96.85 25.78,-170.54 77.34,-221.05 51.57,-50.52 120.9,-75.78 207.99,-75.78 86.41,0 152.78,24.04 199.11,72.12 46.34,48.08 69.51,113.92 69.51,197.54l0 5.22 -86.75 0 0 -8.36c0,-55.04 -14.81,-100.16 -44.42,-135.35 -29.62,-35.19 -75.43,-52.78 -137.45,-52.78 -62.01,0 -110.44,18.99 -145.28,56.96 -34.83,37.98 -52.25,91.11 -52.25,159.39l0 171.41c0,68.29 17.42,121.42 52.25,159.39 34.84,37.98 83.27,56.96 145.28,56.96 62.02,0 107.83,-17.59 137.45,-52.78 29.61,-35.19 44.42,-80.3 44.42,-135.35l0 -16.72 86.75 0 0 13.59c0,83.61 -23.17,149.46 -69.51,197.54 -46.33,48.07 -112.7,72.11 -199.11,72.11z"/>
   <polygon id="_1" class="fil0" points="3541.17,1613.23 3541.17,1334.17 3280.92,881.6 3381.26,881.6 3577.75,1232.78 3592.39,1232.78 3788.88,881.6 3889.22,881.6 3628.97,1334.17 3628.97,1613.23 "/>
   <path id="_2" class="fil0" d="M4893.11 1613.23l0 -78.39 102.43 0 0 -574.85 -102.43 0 0 -78.39 366.86 0c42.51,0 80.31,7.67 113.4,23 33.1,15.33 58.88,36.75 77.35,64.28 18.46,27.52 27.69,59.75 27.69,96.68l0 8.36c0,34.14 -6.62,62.19 -19.85,84.13 -13.24,21.95 -28.92,39.02 -47.04,51.22 -18.11,12.19 -35.88,21.08 -53.3,26.65l0 14.63c17.42,4.18 35.53,12.37 54.35,24.56 18.81,12.2 34.66,29.44 47.55,51.74 12.89,22.3 19.34,50.52 19.34,84.66l0 10.45c0,39.72 -9.58,74.04 -28.74,102.95 -19.16,28.92 -45.29,50.87 -78.39,65.85 -33.1,14.98 -70.9,22.47 -113.4,22.47l-365.82 0zm190.23 -79.43l166.18 0c45.99,0 81.18,-10.8 105.56,-32.4 24.39,-21.6 36.58,-50.87 36.58,-87.8l0 -9.41c0,-36.93 -12.19,-66.19 -36.58,-87.79 -24.38,-21.6 -59.57,-32.4 -105.56,-32.4l-166.18 0 0 249.8zm0 -329.24l169.32 0c41.8,0 75.25,-10.62 100.33,-31.87 25.09,-21.26 37.63,-49.3 37.63,-84.14l0 -10.45c0,-35.54 -12.37,-63.93 -37.1,-85.18 -24.74,-21.26 -58.36,-31.88 -100.86,-31.88l-169.32 0 0 243.52z"/>
   <polygon id="_3" class="fil0" points="6559.65,1613.23 6558.6,881.6 7009.08,881.6 7009.08,961.04 6645.35,959.99 6646.4,1205.61 6979.81,1206.65 6979.81,1285.04 6645.35,1285.04 6646.4,1533.8 7013.26,1534.84 7014.3,1613.23 "/>
   <path id="_4" class="fil0" d="M8087.18 1613.23l0 -731.63 295.79 0c45.29,0 85.18,7.84 119.67,23.52 34.49,15.68 61.49,37.98 81,66.89 19.51,28.92 29.27,63.58 29.27,104l0 11.49c0,48.08 -11.5,86.06 -34.49,113.93 -22.99,27.87 -50.17,46.68 -81.53,56.44l0 14.63c25.09,0.7 45.82,8.89 62.19,24.56 16.38,15.68 24.56,39.2 24.56,70.55l0 245.62 -86.75 0 0 -235.17c0,-20.9 -5.74,-36.93 -17.24,-48.07 -11.5,-11.15 -28.74,-16.73 -51.74,-16.73l-252.93 0 0 299.97 -87.8 0zm87.8 -379.4l199.63 0c48.08,0 85.18,-11.67 111.31,-35.01 26.13,-23.35 39.19,-55.92 39.19,-97.73l0 -7.31c0,-41.81 -12.89,-74.39 -38.67,-97.73 -25.78,-23.34 -63.06,-35.01 -111.83,-35.01l-199.63 0 0 272.79z"/>
   <path id="_5" class="fil0" d="M9941.86 1627.86c-54.35,0 -102.26,-11.32 -143.71,-33.97 -41.46,-22.64 -73.86,-55.91 -97.21,-99.81 -23.34,-43.9 -35.01,-98.25 -35.01,-163.05l0 -167.23c0,-96.85 25.78,-170.54 77.34,-221.05 51.57,-50.52 120.9,-75.78 207.99,-75.78 86.41,0 152.25,23.69 197.54,71.07 45.3,47.39 67.94,110.79 67.94,190.23l0 5.22 -86.75 0 0 -7.31c0,-34.84 -6.27,-65.85 -18.81,-93.02 -12.54,-27.18 -32.05,-48.61 -58.53,-64.28 -26.48,-15.68 -60.27,-23.52 -101.39,-23.52 -62.01,0 -110.44,18.99 -145.28,56.96 -34.83,37.98 -52.25,91.11 -52.25,159.39l0 171.41c0,68.29 17.42,121.42 52.25,159.39 34.84,37.98 83.62,56.96 146.33,56.96 61.32,0 106.43,-17.42 135.35,-52.25 28.92,-34.84 43.38,-81.18 43.38,-139.01l0 -17.77 -221.58 0 0 -75.25 307.28 0 0 348.04 -79.43 0 0 -79.43 -14.64 0c-7.66,15.33 -18.46,30.31 -32.4,44.94 -13.93,14.63 -32.75,26.48 -56.44,35.54 -23.69,9.05 -54.35,13.58 -91.97,13.58z"/>
   <path id="_6" class="fil0" d="M11581.22 1627.86c-54.34,0 -101.73,-9.75 -142.14,-29.26 -40.41,-19.51 -71.77,-48.6 -94.07,-87.28 -22.29,-38.67 -33.44,-86.22 -33.44,-142.66l0 -487.06 86.75 0 0 488.1c0,59.93 16.02,104.87 48.08,134.83 32.05,29.96 76.99,44.94 134.82,44.94 57.84,0 102.78,-14.98 134.83,-44.94 32.06,-29.96 48.08,-74.9 48.08,-134.83l0 -488.1 87.8 0 0 487.06c0,56.44 -11.15,103.99 -33.45,142.66 -22.3,38.68 -53.83,67.77 -94.59,87.28 -40.76,19.51 -88.32,29.26 -142.67,29.26z"/>
   <path id="_7" class="fil0" d="M12953.02 1613.23l0 -731.63 295.79 0c45.29,0 85.18,7.84 119.67,23.52 34.49,15.68 61.49,37.98 81,66.89 19.51,28.92 29.27,63.58 29.27,104l0 11.49c0,48.08 -11.5,86.06 -34.49,113.93 -22.99,27.87 -50.17,46.68 -81.53,56.44l0 14.63c25.09,0.7 45.82,8.89 62.19,24.56 16.38,15.68 24.56,39.2 24.56,70.55l0 245.62 -86.75 0 0 -235.17c0,-20.9 -5.74,-36.93 -17.24,-48.07 -11.5,-11.15 -28.74,-16.73 -51.74,-16.73l-252.93 0 0 299.97 -87.8 0zm87.8 -379.4l199.63 0c48.08,0 85.18,-11.67 111.31,-35.01 26.13,-23.35 39.19,-55.92 39.19,-97.73l0 -7.31c0,-41.81 -12.89,-74.39 -38.67,-97.73 -25.78,-23.34 -63.06,-35.01 -111.83,-35.01l-199.63 0 0 272.79z"/>
   <path id="_8" class="fil0" d="M14817.1 1627.86c-54.34,0 -101.73,-9.75 -142.14,-29.26 -40.41,-19.51 -71.77,-48.6 -94.07,-87.28 -22.29,-38.67 -33.44,-86.22 -33.44,-142.66l0 -487.06 86.75 0 0 488.1c0,59.93 16.02,104.87 48.08,134.83 32.05,29.96 76.99,44.94 134.82,44.94 57.84,0 102.78,-14.98 134.83,-44.94 32.06,-29.96 48.08,-74.9 48.08,-134.83l0 -488.1 87.8 0 0 487.06c0,56.44 -11.15,103.99 -33.45,142.66 -22.3,38.68 -53.83,67.77 -94.59,87.28 -40.76,19.51 -88.32,29.26 -142.67,29.26z"/>
   <path class="fil0" d="M2646.41 4213.01c-237.11,0 -425.72,-65.11 -565.83,-195.34 -140.11,-130.24 -210.17,-316.6 -210.17,-559.1l0 -452.67c0,-242.5 70.06,-428.86 210.17,-559.09 140.11,-130.23 328.72,-195.35 565.83,-195.35 237.11,0 425.72,65.12 565.83,195.35 140.11,130.23 210.17,316.59 210.17,559.09l0 452.67c0,242.5 -70.06,428.86 -210.17,559.1 -140.11,130.23 -328.72,195.34 -565.83,195.34zm0 -317.94c132.93,0 236.21,-38.62 309.86,-115.86 73.65,-77.24 110.47,-180.53 110.47,-309.86l0 -474.22c0,-129.34 -36.82,-232.62 -110.47,-309.87 -73.65,-77.24 -176.93,-115.86 -309.86,-115.86 -131.13,0 -233.97,38.62 -308.51,115.86 -74.55,77.25 -111.82,180.53 -111.82,309.87l0 474.22c0,129.33 37.27,232.62 111.82,309.86 74.54,77.24 177.38,115.86 308.51,115.86z"/>
   <path id="_1_0" class="fil0" d="M4252.83 4213.01c-145.5,0 -273.93,-26.04 -385.3,-78.14 -111.37,-52.09 -198.49,-126.64 -261.36,-223.64 -62.87,-96.99 -94.31,-213.75 -94.31,-350.27l0 -75.45 350.28 0 0 75.45c0,113.16 35.03,198.04 105.08,254.62 70.06,56.59 165.26,84.88 285.61,84.88 122.15,0 213.31,-24.25 273.49,-72.75 60.17,-48.5 90.26,-110.47 90.26,-185.92 0,-52.09 -14.82,-94.3 -44.46,-126.64 -29.64,-32.33 -72.75,-58.83 -129.33,-79.48 -56.58,-20.66 -125.29,-39.97 -206.12,-57.93l-61.98 -13.48c-129.33,-28.74 -240.25,-65.11 -332.76,-109.12 -92.51,-44.01 -163.46,-101.94 -212.86,-173.79 -49.4,-71.85 -74.1,-165.26 -74.1,-280.22 0,-114.97 27.4,-213.31 82.18,-295.05 54.79,-81.73 132.03,-144.6 231.72,-188.61 99.7,-44.01 216.91,-66.01 351.63,-66.01 134.72,0 254.62,22.9 359.71,68.71 105.08,45.8 187.71,114.06 247.88,204.78 60.18,90.71 90.27,204.32 90.27,340.84l0 80.84 -350.28 0 0 -80.84c0,-71.85 -13.92,-129.78 -41.76,-173.79 -27.84,-44.01 -67.81,-76.34 -119.9,-97 -52.1,-20.66 -114.07,-30.99 -185.92,-30.99 -107.78,0 -187.26,20.21 -238.46,60.63 -51.19,40.42 -76.79,95.65 -76.79,165.71 0,46.7 12.12,86.22 36.37,118.55 24.25,32.34 60.63,59.28 109.13,80.84 48.5,21.55 110.47,40.41 185.92,56.58l61.97 13.47c134.72,28.74 251.93,65.57 351.62,110.47 99.7,44.91 177.39,104.19 233.07,177.84 55.69,73.64 83.53,167.95 83.53,282.91 0,114.97 -29.19,216.01 -87.57,303.13 -58.38,87.12 -141.01,155.38 -247.89,204.78 -106.88,49.39 -233.07,74.09 -378.57,74.09z"/>
   <polygon id="_2_1" class="fil0" points="5094.03,4175.29 5094.03,2289.18 5449.7,2289.18 5449.7,4175.29 "/>
   <polygon id="_3_2" class="fil0" points="5668.48,4175.29 5668.48,2289.18 6344.79,2289.18 6719.31,3932.79 6767.81,3932.79 6767.81,2289.18 7118.09,2289.18 7118.09,4175.29 6441.79,4175.29 6067.26,2531.68 6018.76,2531.68 6018.76,4175.29 "/>
   <polygon id="_4_3" class="fil0" points="7773.37,4175.29 7773.37,2612.51 7223.71,2612.51 7223.71,2289.18 8678.7,2289.18 8678.7,2612.51 8129.04,2612.51 8129.04,4175.29 "/>
   <path id="_5_4" class="fil0" d="M8749.29 4213.01c-71.85,0 -132.48,-23.8 -181.87,-71.4 -49.4,-47.6 -74.1,-109.13 -74.1,-184.57 0,-75.44 24.7,-136.97 74.1,-184.57 49.39,-47.6 110.02,-71.4 181.87,-71.4 73.65,0 134.72,24.25 183.22,72.75 48.5,48.5 72.75,110.47 72.75,185.91 0,73.65 -24.25,134.28 -72.75,181.88 -48.5,47.6 -109.57,71.4 -183.22,71.4z"/>
   <polygon id="_6_5" class="fil1" points="9628.21,4175.29 9628.21,2612.51 9078.55,2612.51 9078.55,2289.18 10533.54,2289.18 10533.54,2612.51 9983.88,2612.51 9983.88,4175.29 "/>
   <path id="_7_6" class="fil1" d="M11005.6 4213.01c-132.92,0 -250.13,-28.29 -351.62,-84.87 -101.49,-56.59 -180.53,-136.52 -237.11,-239.81 -56.58,-103.28 -84.88,-224.98 -84.88,-365.09l0 -32.34c0,-140.11 27.85,-261.81 83.53,-365.09 55.69,-103.29 133.83,-183.23 234.42,-239.81 100.59,-56.58 217.35,-84.87 350.28,-84.87 131.12,0 245.19,29.19 342.19,87.56 97,58.38 172.44,139.22 226.33,242.5 53.89,103.29 80.84,223.19 80.84,359.71l0 115.86 -972.7 0c3.6,91.61 37.72,166.16 102.39,223.64 64.67,57.48 143.7,86.22 237.11,86.22 95.21,0 165.26,-20.65 210.17,-61.97 44.91,-41.31 79.04,-87.12 102.39,-137.41l277.52 145.49c-25.14,46.71 -61.52,97.45 -109.12,152.24 -47.6,54.79 -110.92,101.49 -189.96,140.11 -79.04,38.62 -179.63,57.93 -301.78,57.93zm-326.02 -859.52l625.11 0c-7.19,-77.24 -38.17,-139.22 -92.96,-185.92 -54.79,-46.7 -126.19,-70.06 -214.21,-70.06 -91.61,0 -164.36,23.36 -218.25,70.06 -53.89,46.7 -87.12,108.68 -99.69,185.92z"/>
   <path id="_8_7" class="fil1" d="M12229.41 4213.01c-95.2,0 -180.52,-16.61 -255.97,-49.84 -75.44,-33.24 -135.17,-81.74 -179.18,-145.5 -44.01,-63.77 -66.01,-141.46 -66.01,-233.07 0,-91.61 22,-168.41 66.01,-230.38 44.01,-61.97 105.09,-108.67 183.22,-140.11 78.14,-31.43 167.51,-47.15 268.1,-47.15l366.45 0 0 -75.45c0,-62.87 -19.76,-114.51 -59.28,-154.93 -39.52,-40.41 -102.39,-60.62 -188.61,-60.62 -84.43,0 -147.3,19.31 -188.61,57.93 -41.32,38.62 -68.26,88.47 -80.84,149.54l-312.55 -105.08c21.55,-68.26 56.13,-130.68 103.73,-187.27 47.61,-56.58 111.37,-102.39 191.31,-137.41 79.93,-35.03 177.38,-52.54 292.35,-52.54 176.03,0 315.24,44 417.63,132.02 102.39,88.02 153.59,215.56 153.59,382.61l0 498.48c0,53.88 25.14,80.83 75.44,80.83l107.78 0 0 280.22 -226.33 0c-66.47,0 -121.25,-16.17 -164.37,-48.5 -43.11,-32.33 -64.66,-75.44 -64.66,-129.33l0 -2.7 -51.2 0c-7.18,21.56 -23.35,49.85 -48.5,84.88 -25.14,35.03 -64.66,66.01 -118.55,92.96 -53.89,26.94 -127.54,40.41 -220.95,40.41zm59.28 -274.83c95.21,0 172.9,-26.5 233.07,-79.49 60.18,-52.99 90.27,-123.49 90.27,-211.51l0 -26.94 -342.2 0c-62.87,0 -112.27,13.47 -148.19,40.41 -35.93,26.95 -53.89,64.67 -53.89,113.17 0,48.5 18.86,88.02 56.58,118.55 37.72,30.54 92.51,45.81 164.36,45.81z"/>
   <path id="_9" class="fil1" d="M13234.98 4175.29l0 -1336.44 334.11 0 0 145.5 48.5 0c23.35,-44.91 61.97,-83.98 115.86,-117.21 53.89,-33.23 124.84,-49.85 212.86,-49.85 95.21,0 171.55,18.41 229.03,55.24 57.48,36.82 101.49,84.87 132.03,144.15l48.5 0c30.53,-57.48 73.65,-105.08 129.33,-142.8 55.69,-37.73 134.72,-56.59 237.11,-56.59 82.63,0 157.63,17.52 224.99,52.54 67.36,35.03 121.25,88.02 161.66,158.98 40.42,70.95 60.63,160.31 60.63,268.09l0 878.39 -339.5 0 0 -854.14c0,-73.65 -18.86,-128.88 -56.58,-165.71 -37.73,-36.82 -90.72,-55.23 -158.98,-55.23 -77.24,0 -136.96,24.7 -179.18,74.1 -42.21,49.39 -63.32,119.9 -63.32,211.51l0 789.47 -339.49 0 0 -854.14c0,-73.65 -18.87,-128.88 -56.59,-165.71 -37.72,-36.82 -90.71,-55.23 -158.97,-55.23 -77.24,0 -136.97,24.7 -179.18,74.1 -42.21,49.39 -63.32,119.9 -63.32,211.51l0 789.47 -339.5 0z"/>
   <path class="fil2" d="M2438.47 3016.41l0 400.66c0,89.87 72.81,162.8 162.8,162.8l97.05 0c89.87,0 162.8,-72.93 162.8,-162.8l0 -400.66c0,-89.88 -72.93,-162.69 -162.8,-162.69l-97.05 0c-89.99,0 -162.8,72.81 -162.8,162.69z"/>
   <path class="fil3" d="M14987.2 2332.3c36.83,0 71.46,9.53 103.77,27.17 33.55,18.32 59.56,44.45 78.33,77.75 18.46,32.76 28.39,67.95 28.39,105.56 0,37.32 -9.6,72.26 -27.84,104.82 -18.6,33.22 -44.61,59.23 -77.83,77.83 -32.56,18.24 -67.5,27.84 -104.82,27.84 -37.31,0 -72.25,-9.6 -104.82,-27.84 -33.21,-18.6 -59.22,-44.61 -77.82,-77.83 -18.24,-32.56 -27.84,-67.5 -27.84,-104.82 0,-37.61 9.93,-72.8 28.39,-105.56 18.77,-33.3 44.77,-59.43 78.33,-77.75 32.31,-17.64 66.94,-27.17 103.76,-27.17zm0 50.49c-28.06,0 -54.39,7.22 -79.01,20.57 -25.48,13.82 -45.14,33.56 -59.35,58.83 -14.08,25.02 -21.63,51.88 -21.63,80.59 0,28.36 7.44,54.95 21.27,79.7 14.09,25.21 33.82,44.94 59.03,59.03 24.75,13.83 51.34,21.27 79.69,21.27 28.36,0 54.95,-7.44 79.7,-21.27 25.21,-14.09 44.94,-33.82 59.03,-59.03 13.83,-24.75 21.27,-51.34 21.27,-79.7 0,-28.62 -7.62,-55.47 -21.63,-80.41 -14.21,-25.3 -33.83,-45.18 -59.35,-59.01 -24.62,-13.35 -50.96,-20.57 -79.02,-20.57zm46.17 184.53l52.79 17.37 -1.36 4.57c-6.41,21.49 -17.46,40.84 -35.42,54.7 -17.26,13.33 -37.43,19.16 -59.15,19.16 -30.4,0 -57.11,-9.6 -78.29,-31.65 -22.59,-23.49 -30.23,-54.67 -30.23,-86.49 0,-22.11 3.81,-43.93 13.29,-64.02 8.64,-18.29 21.46,-32.92 39.16,-42.77 17.47,-9.74 36.56,-14.09 56.53,-14.09 20.71,0 40.84,4.49 57.9,16.67 17.65,12.58 28.82,31.94 36.12,51.96l1.88 5.17 -52.98 12.74 -1.52 -4.05c-3.66,-9.69 -9.21,-19.98 -17.68,-26.29 -7.49,-5.59 -15.97,-7.92 -25.28,-7.92 -14.69,0 -26.54,5.44 -36.01,16.68 -11.95,14.16 -14.33,36.58 -14.33,54.37 0,17.83 2.35,40.35 14.1,54.7 8.51,10.4 19.06,16.71 32.67,16.71 10.39,0 19.7,-2.94 27.77,-9.53 9.69,-7.9 15.27,-21.4 18.63,-33.1l1.41 -4.89z"/>
   <path class="fil3" d="M14987.2 2332.3c36.83,0 71.46,9.53 103.77,27.17 33.55,18.32 59.56,44.45 78.33,77.75 18.46,32.76 28.39,67.95 28.39,105.56 0,37.32 -9.6,72.26 -27.84,104.82 -18.6,33.22 -44.61,59.23 -77.83,77.83 -32.56,18.24 -67.5,27.84 -104.82,27.84 -37.31,0 -72.25,-9.6 -104.82,-27.84 -33.21,-18.6 -59.22,-44.61 -77.82,-77.83 -18.24,-32.56 -27.84,-67.5 -27.84,-104.82 0,-37.61 9.93,-72.8 28.39,-105.56 18.77,-33.3 44.77,-59.43 78.33,-77.75 32.31,-17.64 66.94,-27.17 103.76,-27.17zm0 50.49c-28.06,0 -54.39,7.22 -79.01,20.57 -25.48,13.82 -45.14,33.56 -59.35,58.83 -14.08,25.02 -21.63,51.88 -21.63,80.59 0,28.36 7.44,54.95 21.27,79.7 14.09,25.21 33.82,44.94 59.03,59.03 24.75,13.83 51.34,21.27 79.69,21.27 28.36,0 54.95,-7.44 79.7,-21.27 25.21,-14.09 44.94,-33.82 59.03,-59.03 13.83,-24.75 21.27,-51.34 21.27,-79.7 0,-28.62 -7.62,-55.47 -21.63,-80.41 -14.21,-25.3 -33.83,-45.18 -59.35,-59.01 -24.62,-13.35 -50.96,-20.57 -79.02,-20.57zm46.17 184.53l52.79 17.37 -1.36 4.57c-6.41,21.49 -17.46,40.84 -35.42,54.7 -17.26,13.33 -37.43,19.16 -59.15,19.16 -30.4,0 -57.11,-9.6 -78.29,-31.65 -22.59,-23.49 -30.23,-54.67 -30.23,-86.49 0,-22.11 3.81,-43.93 13.29,-64.02 8.64,-18.29 21.46,-32.92 39.16,-42.77 17.47,-9.74 36.56,-14.09 56.53,-14.09 20.71,0 40.84,4.49 57.9,16.67 17.65,12.58 28.82,31.94 36.12,51.96l1.88 5.17 -52.98 12.74 -1.52 -4.05c-3.66,-9.69 -9.21,-19.98 -17.68,-26.29 -7.49,-5.59 -15.97,-7.92 -25.28,-7.92 -14.69,0 -26.54,5.44 -36.01,16.68 -11.95,14.16 -14.33,36.58 -14.33,54.37 0,17.83 2.35,40.35 14.1,54.7 8.51,10.4 19.06,16.71 32.67,16.71 10.39,0 19.7,-2.94 27.77,-9.53 9.69,-7.9 15.27,-21.4 18.63,-33.1l1.41 -4.89z"/>
  </g>
 </g>
</svg>
