<?xml version="1.0" encoding="UTF-8"?>
<!DOCTYPE svg PUBLIC "-//W3C//DTD SVG 1.1//EN" "http://www.w3.org/Graphics/SVG/1.1/DTD/svg11.dtd">
<!-- Creator: CorelDRAW -->
<svg xmlns="http://www.w3.org/2000/svg" xml:space="preserve" width="169.333mm" height="107.289mm" version="1.1" style="shape-rendering:geometricPrecision; text-rendering:geometricPrecision; image-rendering:optimizeQuality; fill-rule:evenodd; clip-rule:evenodd"
viewBox="0 0 16933.32 10728.86"
 xmlns:xlink="http://www.w3.org/1999/xlink"
 xmlns:xodm="http://www.corel.com/coreldraw/odm/2003">
 <defs>
  <style type="text/css">
   <![CDATA[
    .fil2 {fill:#E42229}
    .fil0 {fill:white}
    .fil1 {fill:#CCCCCC;fill-rule:nonzero}
   ]]>
  </style>
 </defs>
 <g id="Layer_x0020_1">
  <metadata id="CorelCorpID_0Corel-Layer"/>
  <g id="_2442908626000">
   <circle class="fil0" cx="8466.66" cy="5367.84" r="4995.19"/>
   <path class="fil1" d="M9089.1 4851.68c-383.54,-30.87 -769.81,-21.7 -1154.03,-9.5 -704.01,21.03 -1329,599.23 -1415.14,1296.79 -24.07,412.04 -13.57,825.08 -9.84,1238.46 119.04,171.25 337.43,117 517.5,124.8 1053.64,-3.39 2106.61,2.7 3160.25,-2.72 140.4,22.72 241.45,-127.84 235.69,-254.68 11.52,-388.28 7.46,-777.59 -50.87,-1161.13 -108.18,-628.06 -645,-1161.83 -1283.56,-1232.02z"/>
   <path class="fil1" d="M8180.25 4531.21c344.55,60.7 728.1,12.89 1001.76,-221.44 385.92,-296.06 535.47,-853.91 340.82,-1301.88 -180.75,-516.27 -785.06,-813.61 -1306.97,-686.18 -508,106.83 -903.75,598.01 -877.3,1120.59 -29.5,503.25 353.36,983.45 841.69,1088.91z"/>
   <circle class="fil2" cx="4581.75" cy="1482.95" r="1110.28"/>
  </g>
 </g>
</svg>
