<?xml version="1.0" encoding="UTF-8"?>
<!DOCTYPE svg PUBLIC "-//W3C//DTD SVG 1.1//EN" "http://www.w3.org/Graphics/SVG/1.1/DTD/svg11.dtd">
<!-- Creator: CorelDRAW -->
<svg xmlns="http://www.w3.org/2000/svg" xml:space="preserve" width="169.333mm" height="169.333mm" version="1.1" style="shape-rendering:geometricPrecision; text-rendering:geometricPrecision; image-rendering:optimizeQuality; fill-rule:evenodd; clip-rule:evenodd"
viewBox="0 0 16933.32 16933.32"
 xmlns:xlink="http://www.w3.org/1999/xlink"
 xmlns:xodm="http://www.corel.com/coreldraw/odm/2003">
 <defs>
  <style type="text/css">
   <![CDATA[
    .fil0 {fill:#FEFEFE;fill-rule:nonzero}
    .fil1 {fill:#861613;fill-rule:nonzero}
    .fil2 {fill:#E42229;fill-rule:nonzero}
   ]]>
  </style>
 </defs>
 <g id="Layer_x0020_1">
  <metadata id="CorelCorpID_0Corel-Layer"/>
  <g id="_1804326506352">
   <path class="fil0" d="M5887.25 6494.3c206.1,94.2 323.5,316.15 540.94,390.8 129.57,57.08 272.76,59.87 411.4,77.45 65.15,-340.11 266.69,-641.11 536.39,-853.87 -99.24,-325.73 -165.14,-670.44 -365.18,-953.81 -93.93,-155.28 -236.36,-327.3 -173.49,-521.23 38.64,-210.65 314.4,-340.93 484.14,-189.41 320.46,230.3 440.18,631.87 562.13,988.71 367.45,-128.06 764.49,-124.27 1148.58,-102.27 75.77,-368.21 287.13,-722.8 609.87,-922.8 181.07,-123.51 438.67,67.42 431.12,267.45 18.93,193.17 -107.57,346.98 -219.74,487.13 -196.96,235.64 -246.22,547.01 -334.08,831.86 291.68,245.31 499.26,592.6 617.46,953.87 279.55,-2.4 512.91,-165.27 688.68,-368.06 135.6,-158.48 359.11,-83.43 515.18,-0.8 144.71,268.66 -29.58,571.23 -252.28,733.31 -247.02,197.6 -562.93,269.85 -867.51,325.74 -1.52,116.56 -3.04,233.92 -3.04,352.47 470.52,107.39 923.56,405.98 1124.35,856.66 38.61,132.52 134.09,289.41 34.85,419.15 -109.09,178.83 -372,162.86 -543.97,96.2 -120.48,-140.91 -141.67,-355.27 -308.37,-456.27 -125.79,-70.26 -268.21,-101.39 -403.82,-146.1 -208.33,646.28 -766.72,1247.85 -1470.52,1308.93 -804.65,91.81 -1597.86,-516.55 -1771.35,-1296.96 -169.69,54.69 -344.74,94.61 -506.09,171.25 -125.78,82.64 -152.28,248.69 -247.73,359.27 -204.58,180.03 -621.26,69.47 -615.19,-233.52 120.43,-597.58 700.77,-972.82 1262.19,-1092.58 11.37,-275.04 55.29,-546.88 44.71,-822.72 -40.92,151.69 34.85,349.29 -103.79,463.06 -147.75,77.84 -309.13,-18.37 -457.63,-49.1 -334.87,-118.96 -711.39,-322.14 -816.7,-688.2 -5.31,-224.34 220.47,-439.51 448.49,-385.61zm8255.86 4478.47c-8.35,-2446.61 -3.05,-4893.63 -3.8,-7339.96 -3759.34,11.37 -7519.44,11.37 -11278.01,0 2.27,2446.33 -1.52,4893.35 0.76,7340.76 3760.85,0 7520.95,-0.8 11281.05,-0.8z"/>
   <path class="fil1" d="M9519.33 5994.31c87.86,-284.85 137.12,-596.22 334.08,-831.86 112.17,-140.15 238.67,-293.96 219.74,-487.13 7.55,-200.03 -250.05,-390.96 -431.12,-267.45 -322.74,200 -534.1,554.59 -609.87,922.8 -384.09,-22 -781.13,-25.79 -1148.58,102.27 -121.95,-356.84 -241.67,-758.41 -562.13,-988.71 -169.74,-151.52 -445.5,-21.24 -484.14,189.41 -62.87,193.93 79.56,365.95 173.49,521.23 200.04,283.37 265.94,628.08 365.18,953.81 598.54,-480.3 1491,-501.49 2143.35,-114.37z"/>
   <path class="fil1" d="M6255.46 7568.11c148.5,30.73 309.88,126.94 457.63,49.1 138.64,-113.77 62.87,-311.37 103.79,-463.06 5.3,-47.5 16.64,-143.7 22.71,-191.6 -138.64,-17.58 -281.83,-20.37 -411.4,-77.45 -217.44,-74.65 -334.84,-296.6 -540.94,-390.8 -228.02,-53.9 -453.8,161.27 -448.49,385.61 105.31,366.06 481.83,569.24 816.7,688.2z"/>
   <path class="fil1" d="M14139.31 3632.81c0.75,2446.33 -4.55,4893.35 3.8,7339.96 -3760.1,0 -7520.2,0.8 -11281.05,0.8 -2.28,-2447.41 1.51,-4894.43 -0.76,-7340.76 3758.57,11.37 7518.67,11.37 11278.01,0zm-12118.98 8205.79c4320.75,-21.96 8642.23,-8.39 12962.98,-5.99 3,-2738.81 -2.28,-5478.43 3,-8217.96 41.71,-454.59 -394.68,-859.93 -840.17,-834.94 -3738.15,2.31 -7476.24,0 -11214.39,1.52 -460.62,-24.23 -935.65,351.56 -908.39,835.69 -7.58,2740.45 0.76,5480.47 -3.03,8221.68z"/>
   <path class="fil1" d="M5509.98 9069.45c-6.07,302.99 410.61,413.55 615.19,233.52 95.45,-110.58 121.95,-276.63 247.73,-359.27 161.35,-76.64 336.4,-116.56 506.09,-171.25 -64.39,-260.66 -97.72,-528.12 -106.82,-795.58 -561.42,119.76 -1141.76,495 -1262.19,1092.58z"/>
   <path class="fil1" d="M10524.68 8906.58c166.7,101 187.89,315.36 308.37,456.27 171.97,66.66 434.88,82.63 543.97,-96.2 99.24,-129.74 3.76,-286.63 -34.85,-419.15 -200.79,-450.68 -653.83,-749.27 -1124.35,-856.66 3.04,259.07 -18.92,520.14 -96.96,769.64 135.61,44.71 278.03,75.84 403.82,146.1z"/>
   <path class="fil1" d="M11088.37 7312.63c222.7,-162.08 396.99,-464.65 252.28,-733.31 -156.07,-82.63 -379.58,-157.68 -515.18,0.8 -175.77,202.79 -409.13,365.66 -688.68,368.06 66.66,223.53 88.61,456.66 84.07,690.19 304.58,-55.89 620.49,-128.14 867.51,-325.74z"/>
   <path class="fil1" d="M2335.54 14153.87c4088.13,-1.58 8177.01,0 12265.14,-0.79 659.14,18.36 1287.98,-490.21 1419.8,-1134.89 46.98,-235.52 70.45,-512.95 -118.16,-693.79 -1866.8,11.18 -3732.83,-13.16 -5598.87,11.98 -93.17,189.61 -129.53,513.77 -394.72,524.13 -885.67,27.54 -1772.07,0 -2657.73,15.18 -118.21,-11.18 -253.81,17.56 -357.6,-50.7 -98.52,-158.09 -127.3,-351.28 -240.95,-502.18 -1871.3,6.79 -3741.89,1.59 -5612.47,2.79 -231.1,244.31 -172.73,616.74 -69.71,906.95 194.73,559.26 776.58,942.48 1365.27,921.32z"/>
   <path class="fil2" d="M6772.17 7976.87c9.1,267.46 42.43,534.92 106.82,795.58 173.49,780.41 966.7,1388.77 1771.35,1296.96 703.8,-61.08 1262.19,-662.65 1470.52,-1308.93 78.04,-249.5 100,-510.57 96.96,-769.64 0,-118.55 1.52,-235.91 3.04,-352.47 4.54,-233.53 -17.41,-466.66 -84.07,-690.19 -118.2,-361.27 -325.78,-708.56 -617.46,-953.87 -652.35,-387.12 -1544.81,-365.93 -2143.35,114.37 -269.7,212.76 -471.24,513.76 -536.39,853.87 -6.07,47.9 -17.41,144.1 -22.71,191.6 10.58,275.84 -33.34,547.68 -44.71,822.72z"/>
  </g>
 </g>
</svg>
