<?xml version="1.0" encoding="UTF-8"?>
<!DOCTYPE svg PUBLIC "-//W3C//DTD SVG 1.1//EN" "http://www.w3.org/Graphics/SVG/1.1/DTD/svg11.dtd">
<!-- Creator: CorelDRAW -->
<svg xmlns="http://www.w3.org/2000/svg" xml:space="preserve" width="169.333mm" height="169.333mm" version="1.1" style="shape-rendering:geometricPrecision; text-rendering:geometricPrecision; image-rendering:optimizeQuality; fill-rule:evenodd; clip-rule:evenodd"
viewBox="0 0 16933.32 16933.32"
 xmlns:xlink="http://www.w3.org/1999/xlink"
 xmlns:xodm="http://www.corel.com/coreldraw/odm/2003">
 <defs>
  <style type="text/css">
   <![CDATA[
    .fil0 {fill:#FEFEFE;fill-rule:nonzero}
    .fil1 {fill:#861613;fill-rule:nonzero}
   ]]>
  </style>
 </defs>
 <g id="Layer_x0020_1">
  <metadata id="CorelCorpID_0Corel-Layer"/>
  <g id="_1804347458544">
   <path class="fil0" d="M8236.46 8191.3c529.72,47.74 1079.8,-133.33 1463.82,-504.57 415.15,-357.6 615.95,-922.05 583.21,-1462.23 -61.08,-509.12 -326.53,-995.53 -745.28,-1297.03 -431.92,-350.05 -1025.91,-437.15 -1557.63,-316.72 -658.65,167.46 -1191.96,727.36 -1329.69,1392.52 -114.57,404.58 -15.96,836.42 164.46,1206.9 265.07,541.7 831.12,900.81 1421.11,981.13z"/>
   <path class="fil0" d="M10150.96 9023.92c-540.9,-288.65 -1168.02,-198.48 -1754.42,-210.61 -415.96,11.37 -837.5,-37.88 -1247.06,47.74 -949.67,192.44 -1790.35,1065.99 -1735.27,2071.34 -18.76,275.04 58.29,691.71 405.58,705.35 1639.46,13.62 3281.31,-5.3 4921.56,6.08 171.26,-9.87 389.21,20.44 509.77,-132.62 142.5,-184.1 161.26,-432.59 169.65,-656.85 -28.74,-789.44 -558.46,-1506.93 -1269.81,-1830.43z"/>
   <path class="fil1" d="M11251.12 11511.2c-120.56,153.06 -338.51,122.75 -509.77,132.62 -1640.25,-11.38 -3282.1,7.54 -4921.56,-6.08 -347.29,-13.64 -424.34,-430.31 -405.58,-705.35 -55.08,-1005.35 785.6,-1878.9 1735.27,-2071.34 409.56,-85.62 831.1,-36.37 1247.06,-47.74 586.4,12.13 1213.52,-78.04 1754.42,210.61 711.35,323.5 1241.07,1040.99 1269.81,1830.43 -8.39,224.26 -27.15,472.75 -169.65,656.85zm-4600.23 -5507.93c137.73,-665.16 671.04,-1225.06 1329.69,-1392.52 531.72,-120.43 1125.71,-33.33 1557.63,316.72 418.75,301.5 684.2,787.91 745.28,1297.03 32.74,540.18 -168.06,1104.63 -583.21,1462.23 -384.02,371.24 -934.1,552.31 -1463.82,504.57 -589.99,-80.32 -1156.04,-439.43 -1421.11,-981.13 -180.42,-370.48 -279.03,-802.32 -164.46,-1206.9zm6595.76 -2484.25c-1600.74,-135.61 -3175.13,-668.96 -4497.24,-1587.96 -198.39,-159.12 -475.02,-117.45 -659.05,40.15 -1289.77,956.13 -2882.13,1455.39 -4474.48,1555.39 -255.48,28.03 -533.31,42.43 -736.49,218.96 -129.75,107.57 -103.8,289.4 -111.38,439.42 7.58,608.36 8.38,1216 20.36,1824.36 93.81,1133.42 210.77,2276.68 557.66,3365.38 425.94,1330.36 1148.45,2566.05 2101.72,3587.37 799.17,851.55 1752.42,1551.59 2785.52,2091.77 141.31,80.32 318.55,55.29 454.68,-26.5 1141.27,-594.75 2195.51,-1378.87 3025.43,-2366.85 996.76,-1138.68 1655.82,-2542.59 2043.03,-3997.98 406.37,-1581.9 428.33,-3227.45 400.78,-4850.31 -216.35,-287.89 -593.18,-248.49 -910.54,-293.2z"/>
  </g>
 </g>
</svg>
