<?xml version="1.0" encoding="UTF-8"?>
<!DOCTYPE svg PUBLIC "-//W3C//DTD SVG 1.1//EN" "http://www.w3.org/Graphics/SVG/1.1/DTD/svg11.dtd">
<!-- Creator: CorelDRAW -->
<svg xmlns="http://www.w3.org/2000/svg" xml:space="preserve" width="169.333mm" height="169.333mm" version="1.1" style="shape-rendering:geometricPrecision; text-rendering:geometricPrecision; image-rendering:optimizeQuality; fill-rule:evenodd; clip-rule:evenodd"
viewBox="0 0 16933.32 16933.32"
 xmlns:xlink="http://www.w3.org/1999/xlink"
 xmlns:xodm="http://www.corel.com/coreldraw/odm/2003">
 <defs>
  <style type="text/css">
   <![CDATA[
    .fil0 {fill:#FEFEFE;fill-rule:nonzero}
    .fil1 {fill:#861613;fill-rule:nonzero}
    .fil2 {fill:white;fill-rule:nonzero}
   ]]>
  </style>
 </defs>
 <g id="Layer_x0020_1">
  <metadata id="CorelCorpID_0Corel-Layer"/>
  <g id="_1804326540096">
   <path class="fil0" d="M11141.4 10334.31c116.64,203.79 -18.21,549.29 259.06,644.74 318.24,112.12 561.42,-283.36 455.36,-558.35 -116.68,-591.72 -598.54,-1047.82 -1163.71,-1219.8 -10.61,290.18 -85.62,572.76 -178.03,847.04 250.77,-224.26 511.39,65.91 627.32,286.37z"/>
   <path class="fil0" d="M11728.52 8142.51c89.42,-142.43 196.24,-327.31 114.4,-495.48 -79.51,-198.52 -355.3,-352.32 -515.18,-149.25 -196.2,248.49 -345.46,642.45 -736.38,589.44 43.9,202.26 76.53,406.85 95.45,613.66 408.36,-16.68 815.97,-209.84 1041.71,-558.37z"/>
   <path class="fil0" d="M10066.31 5949.93c37.88,-408.33 -155.33,-854.58 -524.29,-1053.85 -173.49,-64.39 -315.16,72.73 -376.52,221.23 -54.56,236.4 187.14,387.18 248.5,596.26 124.98,253.05 -9.86,525.01 -111.38,759.14 156.85,72.72 301.55,169.69 441.71,271.21 127.25,-254.53 295.48,-503.07 321.98,-793.99z"/>
   <path class="fil0" d="M7420.71 5647.67c67.41,-145.47 203.78,-243.22 286.37,-378.07 94.69,-240.15 -195.49,-529.56 -430.33,-400.79 -353.84,150.78 -520.49,562.14 -539.45,925.08 -32.58,378.03 176.55,713.67 387.17,1008.38 157.6,-136.36 345.45,-231.08 534.87,-315.16 -240.92,-205.34 -325.79,-539.45 -238.63,-839.44z"/>
   <path class="fil0" d="M6331.98 8074.32c-373.5,-15.92 -487.91,-407.61 -725.04,-622.02 -234.12,-187.89 -567.46,134.85 -459.88,396.24 148.49,494.75 649.28,783.41 1126.59,892.5 -3.79,-223.5 0.75,-450.04 58.33,-666.72z"/>
   <path class="fil0" d="M5365.25 10958.6c199.27,51.54 426.53,-91.69 389.41,-313.68 -3.77,-378.03 284.11,-717.46 656.88,-775.78 -62.14,-202.31 -109.86,-409.88 -125.78,-620.5 -585.65,94.69 -1070.52,603.06 -1175.83,1180.36 -30.3,196.24 12.89,497.79 255.32,529.6z"/>
   <path class="fil1" d="M5109.93 10429c105.31,-577.3 590.18,-1085.67 1175.83,-1180.36 -7.57,-169.73 -6.04,-339.42 -12.11,-507.6 -477.31,-109.09 -978.1,-397.75 -1126.59,-892.5 -107.58,-261.39 225.76,-584.13 459.88,-396.24 237.13,214.41 351.54,606.1 725.04,622.02 108.34,-503.06 420.49,-928.82 792.49,-1272.05 -210.62,-294.71 -419.75,-630.35 -387.17,-1008.38 18.96,-362.94 185.61,-774.3 539.45,-925.08 234.84,-128.77 525.02,160.64 430.33,400.79 -82.59,134.85 -218.96,232.6 -286.37,378.07 -87.16,299.99 -2.29,634.1 238.63,839.44 518.22,-247.01 1110.69,-172 1643.28,-14.4 101.52,-234.13 236.36,-506.09 111.38,-759.14 -61.36,-209.08 -303.06,-359.86 -248.5,-596.26 61.36,-148.5 203.03,-285.62 376.52,-221.23 368.96,199.27 562.17,645.52 524.29,1053.85 -26.5,290.92 -194.73,539.46 -321.98,793.99 444.73,310.64 722.01,824.31 847.03,1343.3 390.92,53.01 540.18,-340.95 736.38,-589.44 159.88,-203.07 435.67,-49.27 515.18,149.25 81.84,168.17 -24.98,353.05 -114.4,495.48 -225.74,348.53 -633.35,541.69 -1041.71,558.37 12.88,165.91 12.88,333.37 5.3,500.02 565.17,171.98 1047.03,628.08 1163.71,1219.8 106.06,274.99 -137.12,670.47 -455.36,558.35 -277.27,-95.45 -142.42,-440.95 -259.06,-644.74 -115.93,-220.46 -376.55,-510.63 -627.32,-286.37 -226.54,525 -556.11,1046.26 -1077.33,1320.51 -630.36,366.73 -1484.97,389.44 -2082.75,-54.53 -484.1,-341.71 -773.53,-889.47 -942.46,-1444.78 -372.77,58.32 -660.65,397.75 -656.88,775.78 37.12,221.99 -190.14,365.22 -389.41,313.68 -242.43,-31.81 -285.62,-333.36 -255.32,-529.6zm-1095.52 749.31c995.51,1683.46 2488.8,3068.39 4244.22,3929.79 337.11,114.41 623.53,-162.11 902.32,-304.58 1778.14,-989.42 3217.65,-2573.63 4047.24,-4430.57 844.76,-2017.56 987.18,-4234.37 1015.2,-6395.88 -51.49,-340.9 -451.55,-396.99 -731.86,-434.11 -1463.74,-125.75 -2922.17,-532.6 -4182.84,-1298.55 -296.99,-167.43 -572.75,-533.36 -949.3,-427.29 -239.4,96.96 -444.74,256.83 -658.37,397.74 -552.33,381.07 -1193.27,600.02 -1819.82,823.52 -824.29,297 -1699.34,412.93 -2566.84,503.07 -269.7,33.37 -615.93,188.65 -594.73,511.39 -6.81,912.18 -37.13,1828.16 62.12,2736.55 87.13,1528.88 459.88,3057.75 1232.66,4388.92z"/>
   <path class="fil2" d="M7354 11313.92c597.78,443.97 1452.39,421.26 2082.75,54.53 521.22,-274.25 850.79,-795.51 1077.33,-1320.51 92.41,-274.28 167.42,-556.86 178.03,-847.04 7.58,-166.65 7.58,-334.11 -5.3,-500.02 -18.92,-206.81 -51.55,-411.4 -95.45,-613.66 -125.02,-518.99 -402.3,-1032.66 -847.03,-1343.3 -140.16,-101.52 -284.86,-198.49 -441.71,-271.21 -532.59,-157.6 -1125.06,-232.61 -1643.28,14.4 -189.42,84.08 -377.27,178.8 -534.87,315.16 -372,343.23 -684.15,768.99 -792.49,1272.05 -57.58,216.68 -62.12,443.22 -58.33,666.72 6.07,168.18 4.54,337.87 12.11,507.6 15.92,210.62 63.64,418.19 125.78,620.5 168.93,555.31 458.36,1103.07 942.46,1444.78z"/>
  </g>
 </g>
</svg>
