<?xml version="1.0" encoding="UTF-8"?>
<!DOCTYPE svg PUBLIC "-//W3C//DTD SVG 1.1//EN" "http://www.w3.org/Graphics/SVG/1.1/DTD/svg11.dtd">
<!-- Creator: CorelDRAW -->
<svg xmlns="http://www.w3.org/2000/svg" xml:space="preserve" width="169.333mm" height="169.333mm" version="1.1" style="shape-rendering:geometricPrecision; text-rendering:geometricPrecision; image-rendering:optimizeQuality; fill-rule:evenodd; clip-rule:evenodd"
viewBox="0 0 16933.32 16933.32"
 xmlns:xlink="http://www.w3.org/1999/xlink"
 xmlns:xodm="http://www.corel.com/coreldraw/odm/2003">
 <defs>
  <style type="text/css">
   <![CDATA[
    .fil0 {fill:#FEFEFE;fill-rule:nonzero}
    .fil1 {fill:#861613;fill-rule:nonzero}
   ]]>
  </style>
 </defs>
 <g id="Layer_x0020_1">
  <metadata id="CorelCorpID_0Corel-Layer"/>
  <g id="_1804450463584">
   <path class="fil0" d="M13904.18 9706.83c-76.64,240.72 -367.66,99 -510.16,7.6 37.93,221.13 -79.44,461.05 -336.91,390 -66.67,-129.34 -98.61,-271.06 -86.23,-415.95 -124.55,71.85 -297.79,231.92 -433.52,91.01 -24.35,-38.72 -72.65,-116.56 -97.8,-155.28 78.24,-157.69 198.4,-272.25 393.21,-236.33 -88.63,-79.04 -202.39,-112.17 -311.37,-145.7 -70.26,-118.96 -91.01,-317.35 60.67,-380.42 140.91,-81.43 277.44,49.5 393.2,117.76 -44.7,-210.77 27.15,-399.98 214.37,-506.97 195.6,110.57 271.05,333.32 184.02,541.69 134.12,-146.09 328.93,-194 520.54,-140.11 1.59,57.49 3.19,173.25 3.99,231.93 -5.59,168.06 -209.18,167.26 -326.14,211.17 153.3,83.43 407.17,160.87 332.13,389.6zm-5254.88 -2266.18c-384.03,-18.35 -413.56,-650.66 -42.72,-722.12 1582.77,-21.95 3166.34,-6.79 4749.91,-9.59 171.66,-3.19 404.38,0.4 467.45,202 144.51,251.08 -115.36,580.42 -391.2,534.9 -1594.75,-3.59 -3189.5,7.59 -4783.44,-5.19zm3155.55 2393.92c-169.24,61.48 -296.19,-101.38 -414.74,-192.41 39.51,150.9 69.85,350.09 -80.24,452.29 -247.5,77.44 -334.13,-242.32 -285.42,-423.54 -107.79,144.9 -404.77,279.02 -481.02,41.91 -85.03,-231.92 149.7,-345.69 344.49,-323.74 -162.86,-98.19 -432.71,-182.43 -336.9,-427.93 124.94,-188.01 373.24,-89.41 482.61,62.28 -66.67,-192.41 -33.54,-459.86 199.19,-512.16 242.31,53.89 198.4,333.32 149.69,514.96 125.36,-97.01 287.42,-254.29 453.88,-145.31 117.76,39.52 84.23,194.01 70.65,287.01 -91.8,103.8 -227.53,147.7 -343.29,215.97 108.18,31.93 271.85,-6.79 326.54,125.74 51.49,102.99 50.69,287.81 -85.44,324.93zm-1791.14 -56.68c-170.46,168.85 -380.43,-10.78 -502.98,-140.12 98.2,158.49 71.05,486.22 -175.24,468.25 -210.37,1.6 -209.18,-259.87 -213.57,-407.57 -129.33,119.76 -293.79,169.66 -459.06,93.81 3.59,-125.74 -69.06,-305.38 87.03,-367.25 88.61,-21.16 178.03,-38.72 269.84,-53.09 -124.14,-58.28 -265.86,-94.61 -362.85,-194.8 -9.98,-93.82 -7.58,-187.23 6.79,-280.23 165.26,-69.86 330.12,-23.56 480.22,62.67 -27.95,-170.45 -5.99,-401.58 194,-448.29 218.36,42.32 268.25,282.63 204.38,467.45 132.92,-119.76 303.78,-150.89 472.24,-95.41 16.76,99 17.96,198.4 5.99,297.79 -98.6,73.46 -209.97,124.16 -309.77,192.82 224.74,-27.15 426.33,191.21 302.98,403.97zm-2209.1 1382.77c6.78,149.31 -112.17,326.53 -277.43,299.79 -1240.27,6.39 -2479.75,-0.79 -3720.02,3.21 -211.96,-9.19 -469.04,54.67 -609.16,-146.91 -4.39,-486.6 -16.76,-972.81 11.58,-1457.83 101.39,-821.12 837.1,-1501.73 1665.8,-1526.48 452.28,-14.37 906.96,-25.16 1358.44,11.18 751.66,82.62 1383.57,710.94 1510.91,1450.24 68.67,451.48 73.45,909.74 59.88,1366.8zm-2598.71 -5795.14c614.36,-150.01 1325.71,200 1538.47,807.71 229.13,527.33 53.1,1183.99 -401.18,1532.49 -322.14,275.84 -773.63,332.12 -1179.2,260.66 -574.83,-124.14 -1025.5,-689.4 -990.77,-1281.79 -31.14,-615.14 434.7,-1193.32 1032.68,-1319.07zm9807.22 -730.35c14.37,-282.58 -264.26,-437.15 -516.55,-409.12 -4079.68,6.06 -8160.56,-20.44 -12239.46,14.4 -229.52,14.37 -351.67,268.94 -340.09,474.99 -4,2500.08 0,5000.98 -1.6,7501.07 -22.76,194.81 75.04,454.68 299.39,470.65 378.02,27.95 758.45,5.19 1136.88,11.98 3738.38,3.19 7476.36,0 11214.74,0.79 241.51,41.92 466.65,-156.89 447.48,-401.58 0.81,-2553.59 3.2,-5109.19 -0.79,-7663.18z"/>
   <path class="fil1" d="M6233.82 8343.62c-451.48,-36.34 -906.16,-25.55 -1358.44,-11.18 -828.7,24.75 -1564.41,705.36 -1665.8,1526.48 -28.34,485.02 -15.97,971.23 -11.58,1457.83 140.12,201.58 397.2,137.72 609.16,146.91 1240.27,-4 2479.75,3.18 3720.02,-3.21 165.26,26.74 284.21,-150.48 277.43,-299.79 13.57,-457.06 8.79,-915.32 -59.88,-1366.8 -127.34,-739.3 -759.25,-1367.62 -1510.91,-1450.24z"/>
   <path class="fil1" d="M5163.99 7966.38c405.57,71.46 857.06,15.18 1179.2,-260.66 454.28,-348.5 630.31,-1005.16 401.18,-1532.49 -212.76,-607.71 -924.11,-957.72 -1538.47,-807.71 -597.98,125.75 -1063.82,703.93 -1032.68,1319.07 -34.73,592.39 415.94,1157.65 990.77,1281.79z"/>
   <path class="fil1" d="M13823.94 6910.94c-63.07,-201.6 -295.79,-205.19 -467.45,-202 -1583.57,2.8 -3167.14,-12.36 -4749.91,9.59 -370.84,71.46 -341.31,703.77 42.72,722.12 1593.94,12.78 3188.69,1.6 4783.44,5.19 275.84,45.52 535.71,-283.82 391.2,-534.9z"/>
   <path class="fil1" d="M9710.73 9373.92c99.8,-68.66 211.17,-119.36 309.77,-192.82 11.97,-99.39 10.77,-198.79 -5.99,-297.79 -168.46,-55.48 -339.32,-24.35 -472.24,95.41 63.87,-184.82 13.98,-425.13 -204.38,-467.45 -199.99,46.71 -221.95,277.84 -194,448.29 -150.1,-86.23 -314.96,-132.53 -480.22,-62.67 -14.37,93 -16.77,186.41 -6.79,280.23 96.99,100.19 238.71,136.52 362.85,194.8 -91.81,14.37 -181.23,31.93 -269.84,53.09 -156.09,61.87 -83.44,241.51 -87.03,367.25 165.27,75.85 329.73,25.95 459.06,-93.81 4.39,147.7 3.2,409.17 213.57,407.57 246.29,17.97 273.44,-309.76 175.24,-468.25 122.55,129.34 332.52,308.97 502.98,140.12 123.35,-212.76 -78.24,-431.12 -302.98,-403.97z"/>
   <path class="fil1" d="M11563.75 9383.9c115.76,-68.27 251.49,-112.17 343.29,-215.97 13.58,-93 47.11,-247.49 -70.65,-287.01 -166.46,-108.98 -328.52,48.3 -453.88,145.31 48.71,-181.64 92.62,-461.07 -149.69,-514.96 -232.73,52.3 -265.86,319.75 -199.19,512.16 -109.37,-151.69 -357.67,-250.29 -482.61,-62.28 -95.81,245.5 174.04,329.74 336.9,427.93 -194.79,-21.95 -429.52,91.82 -344.49,323.74 76.25,237.11 373.23,102.99 481.02,-41.91 -48.71,181.22 37.92,500.98 285.42,423.54 150.09,-102.2 119.75,-301.39 80.24,-452.29 118.55,91.03 245.5,253.89 414.74,192.41 136.13,-37.12 136.93,-221.94 85.44,-324.93 -54.69,-132.53 -218.36,-93.81 -326.54,-125.74z"/>
   <path class="fil1" d="M14566.43 12699.93c-3738.38,-0.79 -7476.36,2.4 -11214.74,-0.79 -378.43,-6.79 -758.86,15.97 -1136.88,-11.98 -224.35,-15.97 -322.15,-275.84 -299.39,-470.65 1.6,-2500.09 -2.4,-5000.99 1.6,-7501.07 -11.58,-206.05 110.57,-460.62 340.09,-474.99 4078.9,-34.84 8159.78,-8.34 12239.46,-14.4 252.29,-28.03 530.92,126.54 516.55,409.12 3.99,2553.99 1.6,5109.59 0.79,7663.18 19.17,244.69 -205.97,443.5 -447.48,401.58zm1070.22 -8514.8c-163.67,-424.25 -612.76,-717.46 -1069.02,-684.12 -4142.36,6.06 -8285.91,-12.14 -12428.67,7.58 -510.56,48.46 -931.3,546.24 -909.75,1056.89 1.2,2600.14 2.01,5201.23 -1.59,7801.13 -23.55,597.18 556.87,1104.54 1140.87,1066.22 4089.67,-2.39 8179.33,2.8 12268.99,-2.39 565.25,5.19 1062.24,-499.39 1067.43,-1059.83 -0.8,-2501.71 -2.39,-5003.41 0.8,-7505.14 -5.99,-227.26 26.34,-466.69 -69.06,-680.34z"/>
   <path class="fil1" d="M13572.05 9317.23c116.96,-43.91 320.55,-43.11 326.14,-211.17 -0.8,-58.68 -2.4,-174.44 -3.99,-231.93 -191.61,-53.89 -386.42,-5.98 -520.54,140.11 87.03,-208.37 11.58,-431.12 -184.02,-541.69 -187.22,106.99 -259.07,296.2 -214.37,506.97 -115.76,-68.26 -252.29,-199.19 -393.2,-117.76 -151.68,63.07 -130.93,261.46 -60.67,380.42 108.98,33.53 222.74,66.66 311.37,145.7 -194.81,-35.92 -314.97,78.64 -393.21,236.33 25.15,38.72 73.45,116.56 97.8,155.28 135.73,140.91 308.97,-19.16 433.52,-91.01 -12.38,144.89 19.56,286.61 86.23,415.95 257.47,71.05 374.84,-168.87 336.91,-390 142.5,91.4 433.52,233.12 510.16,-7.6 75.04,-228.73 -178.83,-306.17 -332.13,-389.6z"/>
  </g>
 </g>
</svg>
