<?xml version="1.0" encoding="UTF-8"?>
<!DOCTYPE svg PUBLIC "-//W3C//DTD SVG 1.1//EN" "http://www.w3.org/Graphics/SVG/1.1/DTD/svg11.dtd">
<!-- Creator: CorelDRAW -->
<svg xmlns="http://www.w3.org/2000/svg" xml:space="preserve" width="169.333mm" height="169.333mm" version="1.1" style="shape-rendering:geometricPrecision; text-rendering:geometricPrecision; image-rendering:optimizeQuality; fill-rule:evenodd; clip-rule:evenodd"
viewBox="0 0 16933.32 16933.32"
 xmlns:xlink="http://www.w3.org/1999/xlink"
 xmlns:xodm="http://www.corel.com/coreldraw/odm/2003">
 <defs>
  <style type="text/css">
   <![CDATA[
    .fil0 {fill:#FEFEFE;fill-rule:nonzero}
    .fil2 {fill:#861613;fill-rule:nonzero}
    .fil1 {fill:#E42229;fill-rule:nonzero}
   ]]>
  </style>
 </defs>
 <g id="Layer_x0020_1">
  <metadata id="CorelCorpID_0Corel-Layer"/>
  <g id="_1804052246064">
   <path class="fil0" d="M5952.96 9208.38c408.76,-122.95 199.19,-625.92 231.53,-934.5 158.47,-157.27 343.3,-389.2 222.74,-622.72 -86.22,-162.07 -253.08,-323.34 -450.68,-310.57 -261.47,-35.53 -551.68,186.41 -541.7,458.27 -20.36,192.8 124.15,337.3 234.73,475.02 47.09,310.98 -153.69,874.63 303.38,934.5z"/>
   <path class="fil0" d="M9384.32 5250.45c-190.42,-407.57 -651.88,-694.98 -1105.35,-621.13 -403.18,67.06 -749.28,379.22 -882.2,762.84 -74.25,308.97 -40.73,631.11 -39.13,945.28 709.75,-11.99 1421.1,-16.38 2131.66,3.19 -12.77,-362.87 69.06,-753.67 -104.98,-1090.18z"/>
   <path class="fil0" d="M2282.23 10929.56c2227.42,-12.86 4455.48,-1.52 6682.94,-6.08 1880.57,9.87 3761.53,-17.4 5642.09,12.14 25.16,-2558.35 -7.58,-5118.73 18.77,-7677.11 -4114.42,-10.38 -8230.03,-1.6 -12344.55,-4.39 2.98,2558.38 6.02,5116.77 0.75,7675.44z"/>
   <path class="fil1" d="M5414.91 7798.82c-10.01,-271.87 280.19,-493.78 541.65,-458.27 197.59,-12.75 364.48,148.55 450.72,310.63 120.45,233.49 -64.26,465.42 -222.82,622.68 -32.26,308.55 177.29,811.56 -231.54,934.48 -456.97,-59.83 -256.26,-623.46 -303.35,-934.48 -110.56,-137.75 -255.08,-282.14 -234.66,-475.04zm-613.57 -1461.43c-1.69,-314.14 -35.12,-636.21 39.15,-945.28 132.81,-383.6 478.95,-695.78 882.19,-762.77 453.45,-73.89 914.84,213.59 1105.27,621.12 174.05,336.51 92.23,727.27 104.97,1090.18 -710.48,-19.64 -1421.88,-15.22 -2131.58,-3.25zm2813.06 12.36c18.73,-525.65 35.51,-1089.27 -252.35,-1554.82 -257.81,-524.09 -832.63,-845.38 -1405.49,-868.14 -627.11,-33.17 -1280.23,301.78 -1567.57,869.83 -259.9,466.59 -277.07,1018.25 -244.81,1538.82 -269,-1.56 -499.11,165.2 -603.69,408.31 -56.06,297.88 -31.09,602.4 -34.08,903.01 9.89,605.12 -14.44,1212.32 17.43,1816.66 21.2,372.03 411.18,628.41 763.69,609.94 1086.67,-2.34 2173.6,1.69 3260.14,-2.34 397.65,1.56 750.94,-353.68 737.67,-753.67 11.58,-760.83 4.04,-1522.83 0,-2283.39 9.24,-359.28 -274.98,-759.14 -670.94,-684.21z"/>
   <path class="fil2" d="M14626.03 3258.51c-26.35,2558.38 6.39,5118.76 -18.77,7677.11 -1880.56,-29.54 -3761.52,-2.27 -5642.09,-12.14 -2227.46,4.56 -4455.52,-6.78 -6682.94,6.08 5.27,-2558.67 2.23,-5117.06 -0.75,-7675.44 4114.52,2.79 8230.13,-5.99 12344.55,4.39zm-12401.4 9165.08c1586.49,0 3172.92,-0.76 4759.37,0.76 -12.76,443.22 -6.78,887.19 -5.99,1331.17 -373.63,-6.08 -747.07,-11.39 -1119.84,-12.14 -152.99,-5.31 -327.29,50.02 -389.4,203.06 -138.63,252.29 78.81,640.94 381.11,598.5 1745.68,0 3491.72,2.28 5237.36,-1.51 405.58,29.53 539.7,-655.35 145.7,-773.54 -422.73,-43.92 -851.06,-15.13 -1275.39,-9.07 -15.18,-445.49 -3.6,-890.98 -7.59,-1336.47 1464.61,-1.52 2929.23,-1.52 4393.45,0 243.5,-5.31 510.16,34.09 726.12,-107.59 305.37,-174.99 422.73,-544.73 411.95,-878.84 -1.6,-2754.87 -0.79,-5508.85 -0.79,-8262.84 25.94,-413.56 -330.93,-828.72 -761.25,-784 -4189.07,-7.59 -8377.89,0.8 -12566.79,-4.39 -384.85,-27.95 -725.04,334.92 -694.74,714.94 -12.1,2828.23 -3.03,5656.47 -4.55,8484.78 -34.09,421.27 336.39,862.97 771.27,837.18z"/>
   <path class="fil1" d="M11101.43 7079.15c459.8,41.44 937.28,-115.73 1270.61,-437.97 360.36,-310.39 534.65,-800.34 506.23,-1269.23 -53.02,-441.92 -283.43,-864.13 -646.91,-1125.83 -374.91,-303.86 -890.5,-379.46 -1352.04,-274.92 -571.72,145.36 -1034.64,631.36 -1154.18,1208.72 -99.45,351.18 -13.86,726.03 142.75,1047.61 230.08,470.2 721.42,781.91 1233.54,851.62z"/>
   <path class="fil1" d="M12763.24 7801.88c-469.51,-250.55 -1013.86,-172.28 -1522.86,-182.81 -361.06,9.87 -726.96,-32.89 -1082.46,41.44 -824.33,167.04 -1554.05,925.29 -1506.24,1797.94 -16.28,238.74 50.6,600.41 352.05,612.26 1423.07,11.81 2848.21,-4.61 4271.97,5.27 148.66,-8.56 337.84,17.74 442.48,-115.11 123.7,-159.81 139.98,-375.5 147.26,-570.16 -24.95,-685.24 -484.74,-1308.03 -1102.2,-1588.83z"/>
  </g>
 </g>
</svg>
