<?xml version="1.0" encoding="UTF-8"?>
<!DOCTYPE svg PUBLIC "-//W3C//DTD SVG 1.1//EN" "http://www.w3.org/Graphics/SVG/1.1/DTD/svg11.dtd">
<!-- Creator: CorelDRAW -->
<svg xmlns="http://www.w3.org/2000/svg" xml:space="preserve" width="169.333mm" height="169.333mm" version="1.1" style="shape-rendering:geometricPrecision; text-rendering:geometricPrecision; image-rendering:optimizeQuality; fill-rule:evenodd; clip-rule:evenodd"
viewBox="0 0 16933.32 16933.32"
 xmlns:xlink="http://www.w3.org/1999/xlink"
 xmlns:xodm="http://www.corel.com/coreldraw/odm/2003">
 <defs>
  <style type="text/css">
   <![CDATA[
    .fil0 {fill:#861613}
    .fil1 {fill:white;fill-rule:nonzero}
   ]]>
  </style>
 </defs>
 <g id="Layer_x0020_1">
  <metadata id="CorelCorpID_0Corel-Layer"/>
  <g id="_1778958176800">
   <path class="fil0" d="M8734.9 4980.21l-412.27 -1608.4 224.98 -249.15c687.63,-761.43 1624.42,-1209.17 2655.56,-1207.45 2049.72,3.46 3555.14,1667.13 3618.09,3682.31 118.37,3789.21 -4483.76,4770.43 -5765.93,7945.17l-595.8 1475.43 -568.32 -1486.26c-1212.62,-3171.45 -5666.08,-4345.77 -5779.12,-7894.94 -44.58,-1402.43 564.87,-2679.89 1851.91,-3314.46 1133.34,-558.75 2514.89,-453.56 3592.03,186.19l176.46 104.72 1002.41 2366.84z"/>
   <path class="fil1" d="M11202.13 2540.92c-776.46,-1.49 -1568.16,311.85 -2190.37,1000.96l863.07 3366.4 -775.34 0.74 819.58 3063.47 -2707.02 -4368.84 1160.41 124.52 -1135.89 -2681.75c-1903.42,-1130.68 -4586.28,-160.57 -4499.3,2570.61 102.21,3210.66 4434.26,4281.5 5738.15,7691.39 1377.11,-3410.26 5827.35,-4275.18 5720.68,-7691.39 -59.46,-1902.68 -1498.28,-3073.87 -2993.96,-3076.48l0 0 -0.01 0.37z"/>
  </g>
 </g>
</svg>
