<?xml version="1.0" encoding="UTF-8"?>
<!DOCTYPE svg PUBLIC "-//W3C//DTD SVG 1.1//EN" "http://www.w3.org/Graphics/SVG/1.1/DTD/svg11.dtd">
<!-- Creator: CorelDRAW -->
<svg xmlns="http://www.w3.org/2000/svg" xml:space="preserve" width="169.333mm" height="107.289mm" version="1.1" style="shape-rendering:geometricPrecision; text-rendering:geometricPrecision; image-rendering:optimizeQuality; fill-rule:evenodd; clip-rule:evenodd"
viewBox="0 0 16933.32 10728.86"
 xmlns:xlink="http://www.w3.org/1999/xlink"
 xmlns:xodm="http://www.corel.com/coreldraw/odm/2003">
 <defs>
  <style type="text/css">
   <![CDATA[
    .fil0 {fill:#E42229}
   ]]>
  </style>
 </defs>
 <g id="Layer_x0020_1">
  <metadata id="CorelCorpID_0Corel-Layer"/>
  <path class="fil0" d="M9568.98 6407.73l0 -1844.36 1836.54 0c570.43,-3.55 1035.17,-468.28 1035.17,-1035.34l0 -1378.38c0,-573.99 -467.05,-1043.16 -1042.1,-1047.78l-3651.23 -21.67 0 1410.36 -1890.9 1096.63 0 -2499 -1363.64 0 0 4911.48 1363.64 -789.83 30.73 -27.18 1475.03 -855.74 0 1844.36 -1835.3 0c-569.37,0 -1034.1,465.97 -1034.1,1036.4l0 1378.39c0,576.11 465.98,1044.4 1038.72,1044.4l3652.3 24.87 0 -1411.25 1890.9 -1095.56 0 2496.68 1365.95 0 0 -4985.37 -1396.69 892.15 -1475.02 855.74zm-2113.67 1130.56l0 751.28 -1599.91 0 -2.31 -754.65 1602.22 3.37zm3621.74 -4338.73l-1508.07 -3.38 0 -750.04 1505.76 0 2.31 753.42z"/>
 </g>
</svg>
