<?xml version="1.0" encoding="UTF-8"?>
<!DOCTYPE svg PUBLIC "-//W3C//DTD SVG 1.1//EN" "http://www.w3.org/Graphics/SVG/1.1/DTD/svg11.dtd">
<!-- Creator: CorelDRAW -->
<svg xmlns="http://www.w3.org/2000/svg" xml:space="preserve" width="169.333mm" height="169.333mm" version="1.1" style="shape-rendering:geometricPrecision; text-rendering:geometricPrecision; image-rendering:optimizeQuality; fill-rule:evenodd; clip-rule:evenodd"
viewBox="0 0 16933.32 16933.32"
 xmlns:xlink="http://www.w3.org/1999/xlink"
 xmlns:xodm="http://www.corel.com/coreldraw/odm/2003">
 <defs>
  <style type="text/css">
   <![CDATA[
    .fil0 {fill:white}
    .fil1 {fill:#FEFEFE;fill-rule:nonzero}
    .fil3 {fill:#861613;fill-rule:nonzero}
    .fil2 {fill:#E42229;fill-rule:nonzero}
   ]]>
  </style>
 </defs>
 <g id="Layer_x0020_1">
  <metadata id="CorelCorpID_0Corel-Layer"/>
  <g id="_1802447216384">
   <path class="fil0" d="M1899.4 92.37l13134.53 0c995.29,0 1807.02,811.74 1807.02,1807.02l0 13134.54c0,995.29 -811.73,1807.02 -1807.02,1807.02l-13134.53 0c-995.29,0 -1807.02,-811.73 -1807.02,-1807.02l0 -13134.54c0,-995.28 811.73,-1807.02 1807.02,-1807.02z"/>
   <g>
    <path class="fil1" d="M8519.2 9135.26c292.48,-87.97 142.52,-447.87 165.66,-668.66 113.4,-112.54 245.65,-278.5 159.39,-445.59 -61.7,-115.96 -181.09,-231.36 -322.49,-222.22 -187.08,-25.42 -394.74,133.39 -387.6,327.91 -14.56,137.96 88.84,241.35 167.96,339.9 33.7,222.51 -109.97,625.82 217.08,668.66z"/>
    <path class="fil1" d="M9145.3 6303.22c-136.25,-291.62 -466.44,-497.28 -790.91,-444.44 -288.49,47.99 -536.13,271.35 -631.25,545.84 -53.13,221.08 -29.14,451.59 -27.99,676.38 507.85,-8.57 1016.85,-11.71 1525.27,2.28 -9.14,-259.64 49.42,-539.27 -75.12,-780.06z"/>
    <path class="fil1" d="M6793.01 7371.77c74.8,-173.95 239.47,-293.34 431.99,-292.2 -23.13,-372.46 -10.85,-767.21 175.09,-1101.11 205.65,-406.46 672.95,-646.1 1121.67,-622.39 409.89,16.28 821.2,246.22 1005.71,621.24 205.95,333.05 193.95,736.36 180.53,1112.54 283.34,-53.7 486.71,232.5 480.14,489.57 2.86,544.14 8.29,1089.41 0,1633.82 9.43,286.2 -243.36,540.41 -527.84,539.27 -777.5,2.86 -1555.27,0 -2332.76,1.71 -252.21,13.14 -531.28,-170.23 -546.47,-436.44 -22.76,-432.45 -5.4,-866.89 -12.46,-1299.91 2.17,-215.08 -15.73,-433.01 24.4,-646.1zm-2729.49 2995.05c1593.79,-9.2 3188.04,-1.08 4781.87,-4.35 1345.61,7.06 2691.51,-12.45 4037.11,8.69 18,-1830.59 -5.42,-3662.63 13.43,-5493.24 -2944.01,-7.42 -5888.87,-1.14 -8832.96,-3.14 2.14,1830.61 4.31,3661.23 0.55,5492.04z"/>
    <path class="fil2" d="M8134.21 8126.67c-7.17,-194.53 200.48,-353.32 387.56,-327.91 141.38,-9.12 260.8,106.3 322.51,222.27 86.19,167.07 -45.98,333.02 -159.44,445.55 -23.08,220.77 126.86,580.7 -165.67,668.65 -326.98,-42.81 -183.36,-446.11 -217.05,-668.65 -79.12,-98.57 -182.52,-201.88 -167.91,-339.91zm-439.04 -1045.7c-1.21,-224.78 -25.13,-455.23 28.02,-676.38 95.03,-274.48 342.7,-497.86 631.23,-545.79 324.46,-52.87 654.6,152.83 790.86,444.43 124.54,240.79 66,520.38 75.12,780.06 -508.38,-14.05 -1017.41,-10.89 -1525.23,-2.32zm2012.85 8.84c13.4,-376.12 25.41,-779.41 -180.57,-1112.53 -184.47,-375 -595.77,-604.9 -1005.68,-621.18 -448.71,-23.74 -916.04,215.93 -1121.65,622.39 -185.96,333.86 -198.25,728.59 -175.16,1101.08 -192.48,-1.12 -357.13,118.21 -431.97,292.16 -40.11,213.15 -22.24,431.04 -24.38,646.13 7.07,432.99 -10.33,867.47 12.47,1299.89 15.17,266.2 294.21,449.65 546.44,436.43 777.56,-1.67 1555.29,1.21 2332.75,-1.67 284.53,1.11 537.32,-253.07 527.83,-539.28 8.28,-544.4 2.89,-1089.63 0,-1633.84 6.61,-257.08 -196.76,-543.19 -480.08,-489.58z"/>
    <path class="fil3" d="M12895.93 4877.92c-18.85,1830.61 4.57,3662.65 -13.43,5493.24 -1345.6,-21.14 -2691.5,-1.63 -4037.11,-8.69 -1593.83,3.27 -3188.08,-4.85 -4781.87,4.35 3.76,-1830.81 1.59,-3661.43 -0.55,-5492.04 2944.09,2 5888.95,-4.28 8832.96,3.14zm-8873.63 6557.93c1135.19,0 2270.34,-0.54 3405.49,0.55 -9.13,317.13 -4.85,634.81 -4.28,952.49 -267.35,-4.34 -534.56,-8.14 -801.28,-8.68 -109.48,-3.8 -234.19,35.79 -278.63,145.3 -99.2,180.52 56.38,458.61 272.69,428.25 1249.1,0 2498.45,1.62 3747.52,-1.09 290.2,21.13 386.17,-468.92 104.25,-553.49 -302.48,-31.43 -608.96,-10.83 -912.59,-6.49 -10.86,-318.76 -2.57,-637.53 -5.43,-956.29 1047.98,-1.09 2095.97,-1.09 3143.67,0 174.23,-3.8 365.03,24.39 519.56,-76.99 218.5,-125.21 302.48,-389.77 294.76,-628.84 -1.14,-1971.2 -0.56,-3941.77 -0.56,-5912.35 18.56,-295.91 -236.79,-592.97 -544.7,-560.97 -2997.42,-5.44 -5994.67,0.56 -8991.98,-3.14 -275.37,-20 -518.79,239.64 -497.11,511.56 -8.65,2023.7 -2.17,4047.4 -3.25,6071.15 -24.4,301.43 240.7,617.49 551.87,599.03z"/>
   </g>
  </g>
 </g>
</svg>
