<?xml version="1.0" encoding="UTF-8"?>
<!DOCTYPE svg PUBLIC "-//W3C//DTD SVG 1.1//EN" "http://www.w3.org/Graphics/SVG/1.1/DTD/svg11.dtd">
<!-- Creator: CorelDRAW -->
<svg xmlns="http://www.w3.org/2000/svg" xml:space="preserve" width="169.333mm" height="169.333mm" version="1.1" style="shape-rendering:geometricPrecision; text-rendering:geometricPrecision; image-rendering:optimizeQuality; fill-rule:evenodd; clip-rule:evenodd"
viewBox="0 0 16933.32 16933.32"
 xmlns:xlink="http://www.w3.org/1999/xlink"
 xmlns:xodm="http://www.corel.com/coreldraw/odm/2003">
 <defs>
  <style type="text/css">
   <![CDATA[
    .fil0 {fill:white}
    .fil1 {fill:#FEFEFE;fill-rule:nonzero}
    .fil2 {fill:#861613;fill-rule:nonzero}
   ]]>
  </style>
 </defs>
 <g id="Layer_x0020_1">
  <metadata id="CorelCorpID_0Corel-Layer"/>
  <g id="_1802447187392">
   <path class="fil0" d="M1899.39 92.43l13134.54 0c995.28,0 1807.02,811.73 1807.02,1807.02l0 13134.42c0,995.29 -811.74,1807.02 -1807.02,1807.02l-13134.54 0c-995.29,0 -1807.02,-811.73 -1807.02,-1807.02l0 -13134.42c0,-995.29 811.73,-1807.02 1807.02,-1807.02z"/>
   <path class="fil1" d="M9975.39 7222.42c-290.49,-50.27 -613.82,-44.27 -860.32,-230.79 -261.35,-191.37 -342.76,-526.45 -395.32,-827.87 -107.11,-299.8 -498.14,-296.55 -755.49,-238.54 -127.97,35.8 -291.63,82.95 -322.2,234.19 -59.12,239.62 -74.26,515 -262.78,698.26 -233.07,249.36 -587.83,316.48 -912.88,347.04 -110.82,14 -254.21,36.27 -295.05,157.67 -129.96,310.48 -156.53,744.93 133.95,973.72 263.36,176.52 592.98,324.19 704.09,647.24 116.25,372.46 -149.1,699.8 -271.92,1029.42 -130.25,325.33 205.36,706.37 544.13,602.68 215.36,-21.14 318.19,-229.07 450.44,-370.18 156.81,-163.66 414.73,-286.77 634.95,-174.52 240.22,109.4 369.04,354.46 576.13,505.28 302.48,207.65 853.47,-64.56 716.07,-464.15 -132.81,-335.05 -374.46,-650.96 -361.32,-1027.13 55.7,-323.62 369.04,-493.28 618.39,-659.24 257.07,-147.67 401.6,-465.29 329.05,-755.21 -33.99,-170.8 -57.98,-413.02 -269.92,-447.87z"/>
   <path class="fil2" d="M9916.26 8425.5c-249.35,165.96 -562.69,335.62 -618.39,659.24 -13.14,376.17 228.51,692.08 361.32,1027.13 137.4,399.59 -413.59,671.8 -716.07,464.15 -207.09,-150.82 -335.91,-395.88 -576.13,-505.28 -220.22,-112.25 -478.14,10.86 -634.95,174.52 -132.25,141.11 -235.08,349.04 -450.44,370.18 -338.77,103.69 -674.38,-277.35 -544.13,-602.68 122.82,-329.62 388.17,-656.96 271.92,-1029.42 -111.11,-323.05 -440.73,-470.72 -704.09,-647.24 -290.48,-228.79 -263.91,-663.24 -133.95,-973.72 40.84,-121.4 184.23,-143.67 295.05,-157.67 325.05,-30.56 679.81,-97.68 912.88,-347.04 188.52,-183.26 203.66,-458.64 262.78,-698.26 30.57,-151.24 194.23,-198.39 322.2,-234.19 257.35,-58.01 648.38,-61.26 755.49,238.54 52.56,301.42 133.97,636.5 395.32,827.87 246.5,186.52 569.83,180.52 860.32,230.79 211.94,34.85 235.93,277.07 269.92,447.87 72.55,289.92 -71.98,607.54 -329.05,755.21zm1976.57 -3460.89c-1197.08,-136.61 -2439.57,-390.85 -3426.15,-1123.24 -112.82,-83.49 -265.06,-176.72 -402.74,-92.69 -787.2,596.31 -1749.49,912.91 -2711.21,1092.89 -345.33,67.75 -702.37,55.3 -1043.99,141.47 -191.94,98.12 -218.51,336.1 -208.79,529.1 28.85,780.1 13.13,1563.46 119.96,2338.1 110.54,918.87 384.75,1826.9 867.18,2621.52 683.8,1161.39 1714.64,2102.82 2908.58,2722.07 222.8,88.84 416.75,-92.83 603.26,-186.52 1314.77,-742.64 2402.16,-1904.3 2984.85,-3303.61 312.19,-723.79 477.58,-1502.14 556.13,-2284.48 62.55,-741.02 99.39,-1486.39 73.4,-2230.15 -44.55,-136.08 -181.66,-220.11 -320.48,-224.46z"/>
  </g>
 </g>
</svg>
