<?xml version="1.0" encoding="UTF-8"?>
<!DOCTYPE svg PUBLIC "-//W3C//DTD SVG 1.1//EN" "http://www.w3.org/Graphics/SVG/1.1/DTD/svg11.dtd">
<!-- Creator: CorelDRAW -->
<svg xmlns="http://www.w3.org/2000/svg" xml:space="preserve" width="169.333mm" height="169.333mm" version="1.1" style="shape-rendering:geometricPrecision; text-rendering:geometricPrecision; image-rendering:optimizeQuality; fill-rule:evenodd; clip-rule:evenodd"
viewBox="0 0 16933.32 16933.32"
 xmlns:xlink="http://www.w3.org/1999/xlink"
 xmlns:xodm="http://www.corel.com/coreldraw/odm/2003">
 <defs>
  <style type="text/css">
   <![CDATA[
    .fil0 {fill:white}
    .fil1 {fill:#FEFEFE;fill-rule:nonzero}
    .fil3 {fill:#861613;fill-rule:nonzero}
    .fil2 {fill:#E42229;fill-rule:nonzero}
   ]]>
  </style>
 </defs>
 <g id="Layer_x0020_1">
  <metadata id="CorelCorpID_0Corel-Layer"/>
  <g id="_1802384537136">
   <path class="fil0" d="M1899.39 92.37l13134.54 0c995.28,0 1807.02,811.74 1807.02,1807.02l0 13134.54c0,995.29 -811.74,1807.02 -1807.02,1807.02l-13134.54 0c-995.29,0 -1807.02,-811.73 -1807.02,-1807.02l0 -13134.54c0,-995.28 811.73,-1807.02 1807.02,-1807.02z"/>
   <path class="fil1" d="M12243.87 9354.03c-54.83,172.24 -263.06,70.84 -365.03,5.44 27.14,158.23 -56.84,329.9 -241.07,279.06 -47.71,-92.55 -70.56,-193.95 -61.7,-297.63 -89.12,51.42 -213.08,165.95 -310.2,65.12 -17.42,-27.7 -51.99,-83.4 -69.98,-111.11 55.98,-112.82 141.96,-194.8 281.35,-169.1 -63.41,-56.55 -144.81,-80.26 -222.79,-104.25 -50.27,-85.12 -65.12,-227.08 43.41,-272.21 100.83,-58.26 198.52,35.43 281.35,84.26 -31.99,-150.8 19.43,-286.2 153.39,-362.75 139.95,79.12 193.94,238.5 131.67,387.6 95.97,-104.53 235.36,-138.81 372.46,-100.25 1.14,41.13 2.29,123.96 2.86,165.95 -4,120.25 -149.67,119.68 -233.36,151.1 109.68,59.7 291.34,115.11 237.64,278.77zm-3760.05 -1621.53c-274.78,-13.13 -295.91,-465.57 -30.56,-516.7 1132.53,-15.71 2265.63,-4.86 3398.73,-6.86 122.82,-2.28 289.34,0.29 334.47,144.54 103.4,179.65 -82.54,415.3 -279.92,382.74 -1141.1,-2.58 -2282.19,5.42 -3422.72,-3.72zm2257.92 1712.94c-121.11,43.99 -211.94,-72.55 -296.77,-137.68 28.27,107.97 49.98,250.5 -57.41,323.63 -177.09,55.41 -239.08,-173.39 -204.23,-303.06 -77.12,103.68 -289.63,199.65 -344.18,29.99 -60.85,-165.95 107.11,-247.35 246.49,-231.65 -116.53,-70.26 -309.62,-130.53 -241.07,-306.2 89.4,-134.52 267.07,-63.98 345.33,44.57 -47.7,-137.68 -24,-329.05 142.53,-366.47 173.38,38.56 141.95,238.5 107.11,368.47 89.69,-69.41 205.65,-181.95 324.76,-103.97 84.26,28.27 60.27,138.82 50.56,205.36 -65.69,74.27 -162.81,105.69 -245.64,154.53 77.4,22.85 194.51,-4.85 233.65,89.97 36.84,73.7 36.27,205.94 -61.13,232.51zm-1281.63 -40.56c-121.97,120.82 -272.21,-7.71 -359.9,-100.26 70.27,113.4 50.84,347.91 -125.39,335.05 -150.52,1.14 -149.67,-185.95 -152.81,-291.64 -92.55,85.7 -210.23,121.41 -328.48,67.13 2.57,-89.97 -49.41,-218.51 62.27,-262.78 63.41,-15.14 127.39,-27.71 193.08,-37.99 -88.82,-41.7 -190.23,-67.7 -259.63,-139.38 -7.14,-67.13 -5.43,-133.97 4.86,-200.52 118.25,-49.99 236.21,-16.85 343.61,44.84 -20,-121.96 -4.28,-287.34 138.82,-320.76 156.24,30.28 191.94,202.23 146.24,334.48 95.11,-85.7 217.36,-107.97 337.9,-68.27 12,70.83 12.85,141.96 4.29,213.08 -70.56,52.56 -150.24,88.83 -221.66,137.96 160.82,-19.42 305.06,136.82 216.8,289.06zm-1580.68 989.42c4.85,106.83 -80.27,233.64 -198.52,214.51 -887.45,4.57 -1774.34,-0.56 -2661.8,2.29 -151.67,-6.57 -335.62,39.13 -435.88,-105.12 -3.14,-348.18 -11.99,-696.07 8.29,-1043.12 72.55,-587.54 598.97,-1074.54 1191.94,-1092.25 323.62,-10.28 648.96,-18 972.01,8 537.84,59.12 989.99,508.7 1081.11,1037.7 49.13,323.04 52.55,650.95 42.85,977.99zm-1859.47 -4146.62c439.59,-107.34 948.59,143.1 1100.83,577.94 163.95,377.32 37.99,847.19 -287.06,1096.55 -230.51,197.37 -553.56,237.64 -843.76,186.51 -411.31,-88.83 -733.78,-493.29 -708.94,-917.16 -22.28,-440.16 311.05,-853.87 738.93,-943.84zm7017.4 -522.59c10.28,-202.2 -189.09,-312.8 -369.61,-292.75 -2919.15,4.34 -5839.16,-14.62 -8757.75,10.31 -164.23,10.28 -251.64,192.43 -243.36,339.87 -2.85,1788.89 0,3578.37 -1.14,5367.28 -16.28,139.39 53.7,325.34 214.22,336.76 270.5,20 542.71,3.72 813.48,8.58 2674.95,2.28 5349.6,0 8024.54,0.56 172.81,29.99 333.9,-112.26 320.19,-287.35 0.57,-1827.18 2.29,-3655.79 -0.57,-5483.26z"/>
   <path class="fil2" d="M6755.47 8378.61c-323.05,-26 -648.39,-18.28 -972.01,-8 -592.97,17.71 -1119.39,504.71 -1191.94,1092.25 -20.28,347.05 -11.43,694.94 -8.29,1043.12 100.26,144.25 284.21,98.55 435.88,105.12 887.46,-2.85 1774.35,2.28 2661.8,-2.29 118.25,19.13 203.37,-107.68 198.52,-214.51 9.7,-327.04 6.28,-654.95 -42.85,-977.99 -91.12,-529 -543.27,-978.58 -1081.11,-1037.7z"/>
   <path class="fil2" d="M5989.97 8108.68c290.2,51.13 613.25,10.86 843.76,-186.51 325.05,-249.36 451.01,-719.23 287.06,-1096.55 -152.24,-434.84 -661.24,-685.28 -1100.83,-577.94 -427.88,89.97 -761.21,503.68 -738.93,943.84 -24.84,423.87 297.63,828.33 708.94,917.16z"/>
   <path class="fil3" d="M12186.46 7353.48c-45.13,-144.25 -211.65,-146.82 -334.47,-144.54 -1133.1,2 -2266.2,-8.85 -3398.73,6.86 -265.35,51.13 -244.22,503.57 30.56,516.7 1140.53,9.14 2281.62,1.14 3422.72,3.72 197.38,32.56 383.32,-203.09 279.92,-382.74z"/>
   <path class="fil3" d="M9243.31 9115.82c71.42,-49.13 151.1,-85.4 221.66,-137.96 8.56,-71.12 7.71,-142.25 -4.29,-213.08 -120.54,-39.7 -242.79,-17.43 -337.9,68.27 45.7,-132.25 10,-304.2 -146.24,-334.48 -143.1,33.42 -158.82,198.8 -138.82,320.76 -107.4,-61.69 -225.36,-94.83 -343.61,-44.84 -10.29,66.55 -12,133.39 -4.86,200.52 69.4,71.68 170.81,97.68 259.63,139.38 -65.69,10.28 -129.67,22.85 -193.08,37.99 -111.68,44.27 -59.7,172.81 -62.27,262.78 118.25,54.28 235.93,18.57 328.48,-67.13 3.14,105.69 2.29,292.78 152.81,291.64 176.23,12.86 195.66,-221.65 125.39,-335.05 87.69,92.55 237.93,221.08 359.9,100.26 88.26,-152.24 -55.98,-308.48 -216.8,-289.06z"/>
   <path class="fil3" d="M10569.22 9122.96c82.83,-48.84 179.95,-80.26 245.64,-154.53 9.71,-66.54 33.7,-177.09 -50.56,-205.36 -119.11,-77.98 -235.07,34.56 -324.76,103.97 34.84,-129.97 66.27,-329.91 -107.11,-368.47 -166.53,37.42 -190.23,228.79 -142.53,366.47 -78.26,-108.55 -255.93,-179.09 -345.33,-44.57 -68.55,175.67 124.54,235.94 241.07,306.2 -139.38,-15.7 -307.34,65.7 -246.49,231.65 54.55,169.66 267.06,73.69 344.18,-29.99 -34.85,129.67 27.14,358.47 204.23,303.06 107.39,-73.13 85.68,-215.66 57.41,-323.63 84.83,65.13 175.66,181.67 296.77,137.68 97.4,-26.57 97.97,-158.81 61.13,-232.51 -39.14,-94.82 -156.25,-67.12 -233.65,-89.97z"/>
   <path class="fil3" d="M12717.74 11495.7c-2674.94,-0.56 -5349.59,1.72 -8024.54,-0.56 -270.77,-4.86 -542.98,11.42 -813.48,-8.58 -160.52,-11.42 -230.5,-197.37 -214.22,-336.76 1.14,-1788.91 -1.71,-3578.39 1.14,-5367.28 -8.28,-147.44 79.13,-329.59 243.36,-339.87 2918.59,-24.93 5838.6,-5.97 8757.75,-10.31 180.52,-20.05 379.89,90.55 369.61,292.75 2.86,1827.47 1.14,3656.08 0.57,5483.26 13.71,175.09 -147.38,317.34 -320.19,287.35zm765.78 -6092.63c-117.11,-303.57 -438.45,-513.37 -764.92,-489.52 -2964.01,4.34 -5928.86,-8.69 -8893.15,5.43 -365.32,34.67 -666.38,390.85 -650.95,756.24 0.86,1860.49 1.43,3721.66 -1.14,5581.98 -16.85,427.3 398.46,790.34 816.33,762.91 2926.3,-1.7 5852.6,2.01 8778.89,-1.7 404.46,3.71 760.07,-357.33 763.78,-758.35 -0.57,-1790.06 -1.71,-3580.11 0.57,-5370.19 -4.28,-162.61 18.85,-333.93 -49.41,-486.8z"/>
   <path class="fil3" d="M12006.23 9075.26c83.69,-31.42 229.36,-30.85 233.36,-151.1 -0.57,-41.99 -1.72,-124.82 -2.86,-165.95 -137.1,-38.56 -276.49,-4.28 -372.46,100.25 62.27,-149.1 8.28,-308.48 -131.67,-387.6 -133.96,76.55 -185.38,211.95 -153.39,362.75 -82.83,-48.83 -180.52,-142.52 -281.35,-84.26 -108.53,45.13 -93.68,187.09 -43.41,272.21 77.98,23.99 159.38,47.7 222.79,104.25 -139.39,-25.7 -225.37,56.28 -281.35,169.1 17.99,27.71 52.56,83.41 69.98,111.11 97.12,100.83 221.08,-13.7 310.2,-65.12 -8.86,103.68 13.99,205.08 61.7,297.63 184.23,50.84 268.21,-120.83 241.07,-279.06 101.97,65.4 310.2,166.8 365.03,-5.44 53.7,-163.66 -127.96,-219.07 -237.64,-278.77z"/>
  </g>
 </g>
</svg>
