<?xml version="1.0" encoding="UTF-8"?>
<!DOCTYPE svg PUBLIC "-//W3C//DTD SVG 1.1//EN" "http://www.w3.org/Graphics/SVG/1.1/DTD/svg11.dtd">
<!-- Creator: CorelDRAW -->
<svg xmlns="http://www.w3.org/2000/svg" xml:space="preserve" width="169.333mm" height="169.333mm" version="1.1" style="shape-rendering:geometricPrecision; text-rendering:geometricPrecision; image-rendering:optimizeQuality; fill-rule:evenodd; clip-rule:evenodd"
viewBox="0 0 16933.32 16933.32"
 xmlns:xlink="http://www.w3.org/1999/xlink"
 xmlns:xodm="http://www.corel.com/coreldraw/odm/2003">
 <defs>
  <style type="text/css">
   <![CDATA[
    .fil0 {fill:white}
    .fil2 {fill:#861613;fill-rule:nonzero}
    .fil1 {fill:#E42229;fill-rule:nonzero}
   ]]>
  </style>
 </defs>
 <g id="Layer_x0020_1">
  <metadata id="CorelCorpID_0Corel-Layer"/>
  <g id="_1813344461840">
   <path class="fil0" d="M1899.39 92.37l13134.54 0c995.28,0 1807.02,811.73 1807.02,1807.02l0 13134.53c0,995.29 -811.74,1807.02 -1807.02,1807.02l-13134.54 0c-995.29,0 -1807.02,-811.73 -1807.02,-1807.02l0 -13134.53c0,-995.29 811.73,-1807.02 1807.02,-1807.02z"/>
   <path class="fil1" d="M8705.34 13527.72c218.76,-101.64 305.88,-376.61 221.99,-594.02 -55.82,-110.22 -176.5,-195.94 -161.98,-331.27 -5.48,-206.41 1.3,-412.78 0,-619.15 -163.91,2.45 -327.49,4.29 -490.44,9.19 -5.48,204.54 0.65,409.68 -2.26,614.22 24.85,193.53 -222.96,285.39 -194.24,481.34 -51.95,320.27 345.89,604.41 626.93,439.69z"/>
   <path class="fil1" d="M5764.3 5663.49c178.76,-122.62 344.61,-266.52 501.42,-415.91 12.9,-407.2 -5.49,-814.39 1.93,-1221.59 -12.26,-83.89 57.44,-139.71 99.05,-201.99 149.08,-172.61 141.01,-458.17 -28.07,-614.98 -229.72,-248.45 -715.98,-127.77 -782.77,211.98 -87.44,230.71 80.99,428.49 201.67,604.35 12.26,546.26 -4.84,1092.52 6.77,1638.14z"/>
   <path class="fil1" d="M7788.02 3908.54c22.91,227.16 6.13,456.89 3.23,684.69 162.94,-8.72 326.21,-13.56 490.44,-15.49 -4.2,-217.47 -8.39,-435.26 1.29,-652.09 104.22,-106.49 206.5,-231.68 192.31,-391.39 31.93,-270.07 -240.07,-509.48 -501.74,-461.08 -210.37,40.33 -364.29,251.68 -352.02,463.02 16.13,139.06 109.06,249.09 166.49,372.34z"/>
   <path class="fil1" d="M9565.22 4710.03c-0.64,-50.33 -2.25,-151.33 -2.89,-201.99 427.19,-8.07 854.71,7.1 1282.23,-3.87 199.73,3.87 384.62,-150.68 426.24,-343.95 9.68,-124.55 -4.19,-249.42 2.26,-373.64 92.6,-143.26 232.96,-310.4 146.48,-491.09 -50.65,-197.79 -246.18,-346.54 -452.68,-317.82 -259.43,-19.68 -470.77,254.58 -435.27,501.41 -1.94,194.89 225.86,299.43 200.37,501.74 -413.32,7.1 -826.33,-3.22 -1239.01,0 -165.2,-8.71 -349.76,67.76 -415.27,228.76 -25.49,158.75 -16.45,320.4 -12.25,480.76 166.17,10.65 332.66,14.85 499.79,19.69z"/>
   <path class="fil1" d="M12740.52 9910.97c-15.82,-15.16 -47.12,-46.46 -63.25,-61.95 -260.7,-15.17 -521.74,-0.96 -782.44,-4.19 -94.87,183.75 -204.57,359.5 -322.66,528.51 226.5,-2.45 453.65,-1.84 680.81,-2.45 -17.75,241.28 59.36,511.35 -92.28,722.02 -127.45,232.69 -0.65,543.77 249.09,628.89 289.74,116.96 604.34,-175.75 584.33,-467.24 10.97,-170.86 -130.03,-287.21 -242.64,-391.29 -17.1,-317.25 5.49,-635.06 -10.96,-952.3z"/>
   <path class="fil1" d="M11581.84 6181.04c377.19,18.38 756.31,6.12 1134.79,8.38 132.3,106.8 281.04,218.76 460.44,216.82 216.19,-16.45 445.91,-189.07 434.3,-424.29 36.14,-225.22 -152.62,-445.92 -374.29,-467.86 -182.94,-31.3 -338.14,89.38 -462.37,206.51 -539.48,-5.16 -1078.32,6.45 -1617.16,0.96 160.36,134.88 263.93,329.44 424.29,459.48z"/>
   <path class="fil2" d="M6987.82 8491.6c-6.77,336.2 44.54,672.42 130.36,996.37 -315.24,95.5 -610.47,243.6 -917.32,361.05l-46.46 -20.65c-251.68,-401.07 -404.29,-863.44 -461.08,-1333.23 431.71,-7.42 862.79,-3.54 1294.5,-3.54zm-946.03 -1611.36c45.17,-62.93 65.5,-159.72 146.81,-187.79 309.75,132.61 614.99,279.09 930.87,399.12 -60.01,323.31 -99.38,650.48 -136.49,977.34 -429.46,0 -859.24,0 -1288.69,0 53.88,-410.75 139.71,-824.72 347.5,-1188.67zm1681.37 -1309.36c-184.88,356.54 -397.83,705.66 -500.11,1101.24 -268.46,-116.48 -552.4,-202.63 -809.24,-342.34 376.87,-341.05 809.88,-635.64 1309.35,-758.9zm678.55 -16.45c79.7,-72.28 170.37,32.58 234.58,77.76 338.14,306.2 527.87,730.5 687.58,1148.98 -550.45,143.27 -1130.91,119.39 -1685.89,16.46 89.06,-486.89 346.22,-963.78 763.73,-1243.2zm2163.12 847.62c-313.63,-1.29 -570.14,200.7 -866.02,270.71 -99.71,-399.77 -333.63,-744.69 -557.88,-1083.49 538.84,115.84 1063.16,390.1 1423.9,812.78zm718.23 1666.86c-448.81,-0.65 -897.96,1.94 -1346.77,-0.65 3.22,-330.08 -39.7,-658.87 -126.82,-976.69 329.76,-116.48 639.52,-297.49 977.02,-383.96 300.39,385.26 432.69,883.77 496.57,1361.3zm-447.2 1795.6c-323.95,-117.13 -631.77,-279.43 -971.21,-350.41 40.66,-342.34 96.16,-682.75 96.16,-1028.64 440.43,0 881.17,0.65 1322.9,0 -21.62,489.8 -189.41,964.43 -447.85,1379.05zm-1646.54 1120.59c251.04,-326.37 430.43,-698.72 553.69,-1091.88 259.41,116.49 540.13,187.41 793.42,314.79l3.88 39.78c-409.78,311.11 -846.34,606.89 -1350.99,737.31zm-578.19 -17.13c-79.06,66.76 -200.7,61.24 -273.62,-9.19 -321.05,-255.97 -511.42,-636.25 -652.74,-1013.61 -28.39,-66.47 -71.63,-193.27 42.27,-193.92 529.48,-65.49 1076.38,-74.21 1600.71,40.34 -141.65,434.78 -317.17,914.28 -716.62,1176.38zm-1162.23 -2899.06c23.88,-288.45 32.59,-578.53 99.06,-861.5 613.7,137.78 1256.75,134.55 1871.1,1.62 53.24,284.9 93.57,571.43 122.29,859.88 -698.24,0 -1394.85,0 -2092.45,0zm2099.87 424.94c-30.01,291.69 -49.69,585.63 -117.45,872.15 -635.31,-134.88 -1292.25,-133.58 -1929.83,-17.75 -20,-287.16 -47.75,-573.36 -88.72,-857.3 711.46,-6.13 1423.89,6.77 2136,2.9zm-3107.21 1753.94l-8.71 -45.91c260.39,-112.06 520.77,-229.61 792.45,-312.85 117.12,382.06 304.27,736.02 515.62,1073.42 -492.38,-97.95 -916.69,-404.16 -1299.36,-714.66zm811.49 1039.84c607.89,248.03 1295.16,341.12 1934.98,160.46 1005.41,-245.58 1917.25,-953.5 2300.25,-1929.79 239.41,-532.07 244.89,-1126.09 212.3,-1697.84 -157.45,-1133.82 -965.72,-2142.78 -2035.33,-2548.36 -584.98,-243.61 -1236.43,-261.35 -1854.97,-167.78 -905.7,197.79 -1756.87,770.51 -2185.05,1606.19 -378.48,730.83 -518.83,1601.68 -301.36,2402.53 266.52,968.81 1007.34,1783.88 1929.18,2174.59z"/>
   <path class="fil1" d="M3198.84 6691.8c176.49,46.46 327.82,-76.79 479.47,-144.55 318.46,-10.97 638.22,-9.36 957.33,3.55 12.26,76.47 25.17,153.26 38.39,229.73 136.81,50.66 319.77,75.18 400.75,-80.34 204.56,-211.67 75.83,-608.53 -219.41,-645.32 -373,-20.33 -746.96,-2.58 -1119.95,-7.42 -135.84,-312.98 -582.4,-393 -810.19,-138.42 -235.87,259.09 -64.86,721.47 273.61,782.77z"/>
   <path class="fil1" d="M10633.87 13253.37c281.04,-159.82 278.14,-579.31 34.21,-773.42 -11.62,-395 -0.65,-790.61 -6.78,-1185.58 -161.65,96.15 -317.82,201.47 -487.86,281.69 -9.36,260.89 0,522.35 -5.49,783.24 13.88,191.05 -225.53,289.65 -196.82,488.06 -44.53,334.37 383.64,594.02 662.74,406.01z"/>
   <path class="fil1" d="M13416.49 7691.72c-177.47,-27.1 -287.18,131 -431.07,194.89 -264.59,14.51 -529.82,0 -794.39,-0.65 0.64,174.56 0.64,348.47 0.64,523.04 287.16,-18.72 575.63,-4.52 863.44,-24.21 108.41,79.7 213.27,199.08 362.67,180.05 191.01,12.25 386.54,-114.55 449.46,-296.85 133.58,-275.55 -152.62,-630.8 -450.75,-576.27z"/>
   <path class="fil1" d="M3864.16 7879.19c-250.71,-182.63 -649.19,2.25 -679.2,307.82 -54.53,279.41 227.8,544.64 502.71,498.5 145.84,5.48 236.51,-131 362.34,-179.4 234.58,-12.91 469.79,-1.29 705.01,-2.9 -5.48,-166.82 -5.48,-333.31 0.65,-499.8 -295.24,-45.17 -656.61,110.99 -891.51,-124.22z"/>
   <path class="fil1" d="M4171.33 9953.24c-100.99,-51.95 -165.84,-157.45 -272.32,-199.73 -286.2,-132.93 -657.26,142.94 -611.77,455.11 16.47,211.25 193.28,387.03 400.43,419.46 174.55,6.74 322.01,-101.64 446.23,-213.09 428.18,6.11 856.99,-0.61 1285.48,1.84 -92.93,-153.1 -192.95,-301.91 -282.33,-456.81 -322.01,-17.11 -644.03,4.19 -965.72,-6.78z"/>
   <path class="fil1" d="M5344.85 12969.23c50.65,290.88 405.9,472.76 665.64,319.05 293.29,-139.62 341.7,-586.05 69.7,-772.84 -2.58,-120.6 -2.58,-240.67 -2.58,-360.67 459.46,-25.71 924.74,34.3 1380.01,-49.62 26.13,-59.4 53.23,-118.8 80.66,-177.56 -185.53,-99.22 -391.39,-146.39 -584.33,-227.83 -297.5,-135.93 -631.77,-64.92 -947.34,-82.67 -156.81,-11.03 -370.4,3.07 -423.64,183.11 -23.88,227.19 1.93,455.59 -12.27,683.43 -114.53,136.55 -289.1,284.75 -225.85,485.6z"/>
  </g>
 </g>
</svg>
