<?xml version="1.0" encoding="UTF-8"?>
<!DOCTYPE svg PUBLIC "-//W3C//DTD SVG 1.1//EN" "http://www.w3.org/Graphics/SVG/1.1/DTD/svg11.dtd">
<!-- Creator: CorelDRAW -->
<svg xmlns="http://www.w3.org/2000/svg" xml:space="preserve" width="169.333mm" height="169.333mm" version="1.1" style="shape-rendering:geometricPrecision; text-rendering:geometricPrecision; image-rendering:optimizeQuality; fill-rule:evenodd; clip-rule:evenodd"
viewBox="0 0 16933.32 16933.32"
 xmlns:xlink="http://www.w3.org/1999/xlink"
 xmlns:xodm="http://www.corel.com/coreldraw/odm/2003">
 <defs>
  <style type="text/css">
   <![CDATA[
    .fil0 {fill:white}
    .fil1 {fill:#861613;fill-rule:nonzero}
    .fil2 {fill:#E42229;fill-rule:nonzero}
   ]]>
  </style>
 </defs>
 <g id="Layer_x0020_1">
  <metadata id="CorelCorpID_0Corel-Layer"/>
  <g id="_1803990036448">
   <path class="fil0" d="M1899.39 92.37l13134.54 0c995.28,0 1807.02,811.73 1807.02,1807.02l0 13134.53c0,995.29 -811.74,1807.02 -1807.02,1807.02l-13134.54 0c-995.29,0 -1807.02,-811.73 -1807.02,-1807.02l0 -13134.53c0,-995.29 811.73,-1807.02 1807.02,-1807.02z"/>
   <path class="fil1" d="M6523.98 12179.47c302.49,-18.11 604.97,-6.56 907.46,-10.5 -273.89,-277.82 -433.93,-641.44 -502.39,-1021.83 -138.53,-1.06 -275.99,-3.94 -413.46,-3.94 15.47,344.98 5.51,690.49 8.39,1036.27z"/>
   <path class="fil1" d="M11934.34 8685.02c259.45,2.1 519.44,-6.56 778.9,-4.98 -6.03,-551.71 -1.57,-1102.9 -4.99,-1654.09 -836.09,2.1 -1672.19,1.57 -2508.02,12.59 -1.57,417.66 0,835.84 -0.52,1253.49 455.95,-382.76 1015.79,-639.08 1599.78,-751.62 142.98,-51.95 327.67,86.57 283.33,241.88 -59.82,298.82 -161.34,593.43 -148.48,902.73z"/>
   <path class="fil1" d="M7644.99 8670.07c125.4,-351.54 112.01,-732.47 219.05,-1086.37 133.02,-67.69 277.83,-23.09 396.41,54.57 474.84,274.93 909.55,627.52 1242.73,1065.64 92.6,-37.25 187.05,-71.62 283.33,-102.57 -3.15,-519.19 -4.98,-1038.63 -1.57,-1558.07 -1087.43,4.98 -2175.37,34.36 -3262.79,33.05 6.82,543.58 7.34,1088.47 -3.94,1632.05 375.94,9.97 751.88,-9.97 1126.78,-38.3z"/>
   <path class="fil1" d="M12705.11 6087.41c-16.79,-124.48 -139.31,-219.58 -263.93,-201.67 -1395.41,1 -2791.09,0 -4186.77,0.5 -66.37,-9.96 -154.78,20.91 -152.95,99.59 -16,196.18 2.1,393.34 14.96,589.01 62.7,21.91 122.52,58.78 192.3,59.27 1468.87,14.43 2936.95,-37.86 4405.83,-48.3 -1.31,-166.3 11.54,-333.1 -9.44,-498.4z"/>
   <path class="fil1" d="M4151.59 6679.92c1175.05,-22.41 2350.62,-17.92 3525.66,-41.32 -6.03,-533.27 -18.89,-1066.04 -67.16,-1596.82 -29.38,-102.06 -146.39,-160.32 -247.39,-151.38 -913.22,-3.95 -1826.97,13.46 -2739.67,1.5 -231.39,-15.43 -460.95,160.34 -464.88,400.84 -14.17,462.04 -3.15,924.61 -6.56,1387.18z"/>
   <path class="fil1" d="M4158.41 7081.3c-11.28,548.04 -1.84,1097.4 -3.41,1645.96 651.93,1.58 1303.6,-3.93 1955.26,-12.33 13.12,-545.68 -0.52,-1091.88 6.56,-1638.09 -652.71,0.79 -1305.43,4.46 -1958.41,4.46z"/>
   <path class="fil1" d="M6118.92 12179.47c-3.15,-347.61 -3.15,-695.22 0,-1042.83 -655.34,0 -1310.68,3.94 -1965.49,-1.83 8.13,274.15 -14.7,549.61 14.69,822.97 12.85,129.34 133.27,229.55 263.66,220.63 562.2,6.04 1124.41,-0.52 1687.14,1.06z"/>
   <path class="fil1" d="M12710.09 11162.61c-70.57,0.53 -140.88,1.58 -210.14,2.89 -20.2,374.63 -153.73,739.55 -366.5,1047.8 184.96,-30.42 434.71,28.86 554.34,-155.57 52.21,-294.09 6.56,-597.36 22.3,-895.12z"/>
   <path class="fil1" d="M12703.27 9119.21c-271.53,-0.53 -542.79,5.51 -813.8,-1.05 45.92,232.18 118.06,459.1 251.07,657.17 192.82,305.37 300.12,652.45 405.32,994.82 58.77,-2.9 118.06,-5.25 178.14,-7.35 -27.82,-547.78 -8.4,-1095.82 -20.73,-1643.59z"/>
   <path class="fil1" d="M6909.11 10717.41c25.18,-562.99 226.92,-1094.76 475.89,-1594.27 -1078.5,7.61 -2157,15.48 -3235.51,24.92 3.68,523.91 3.68,1047.02 -2.36,1570.93 920.57,-1.06 1841.14,0.52 2761.98,-1.58z"/>
   <path class="fil2" d="M11395.22 12199.14c287.26,-71.1 523.37,-303.53 612.84,-583.98 99.68,-338.17 155.83,-703.87 46.43,-1047.02 -87.1,-334.75 -276.51,-626.48 -428.41,-932.11 -240.84,-511.31 -103.36,-1088.47 -21.25,-1620.25 -550.14,108.61 -1041.25,439.17 -1403.03,860.5 -275.46,323.46 -391.41,741.38 -613.62,1096.33 -41.19,-469.59 -261.3,-908.76 -582.93,-1248.76 -243.46,-257.89 -511.84,-508.42 -836.1,-659.8 -11.28,396.4 -153.73,776.29 -352.86,1114.97 -256.56,476.94 -458.57,994.82 -505.01,1537.87 1.05,410.84 94.71,851.04 388.28,1156.68 267.06,252.9 636.45,401.39 1005.83,391.42 467.23,3.41 959.66,-117.53 1313.56,-438.11 281.23,-251.6 497.41,-596.06 551.72,-973.05 139.3,470.13 95.49,1021.32 -237.95,1402.24 353.38,-16 716.99,50.63 1062.5,-56.93z"/>
  </g>
 </g>
</svg>
