<?xml version="1.0" encoding="UTF-8"?>
<!DOCTYPE svg PUBLIC "-//W3C//DTD SVG 1.1//EN" "http://www.w3.org/Graphics/SVG/1.1/DTD/svg11.dtd">
<!-- Creator: CorelDRAW -->
<svg xmlns="http://www.w3.org/2000/svg" xml:space="preserve" width="169.333mm" height="169.333mm" version="1.1" style="shape-rendering:geometricPrecision; text-rendering:geometricPrecision; image-rendering:optimizeQuality; fill-rule:evenodd; clip-rule:evenodd"
viewBox="0 0 16933.32 16933.32"
 xmlns:xlink="http://www.w3.org/1999/xlink"
 xmlns:xodm="http://www.corel.com/coreldraw/odm/2003">
 <defs>
  <style type="text/css">
   <![CDATA[
    .fil0 {fill:white}
    .fil1 {fill:#FEFEFE;fill-rule:nonzero}
    .fil2 {fill:#861613;fill-rule:nonzero}
    .fil3 {fill:#E42229;fill-rule:nonzero}
   ]]>
  </style>
 </defs>
 <g id="Layer_x0020_1">
  <metadata id="CorelCorpID_0Corel-Layer"/>
  <g id="_1803990041872">
   <path class="fil0" d="M1899.39 92.37l13134.54 0c995.28,0 1807.02,811.73 1807.02,1807.02l0 13134.54c0,995.29 -811.74,1807.02 -1807.02,1807.02l-13134.54 0c-995.29,0 -1807.02,-811.73 -1807.02,-1807.02l0 -13134.54c0,-995.29 811.73,-1807.02 1807.02,-1807.02z"/>
   <path class="fil1" d="M9894.03 7229.87c-191.25,305.15 -547.88,476.32 -899.33,507.08 -2.13,77.35 -1.52,155.92 -2.74,234.5 329.52,63.04 656,246.37 798.22,564.32 90.75,157.15 83.75,340.79 74.62,515.91 -95.03,117.55 -295.42,177.55 -402.31,45.07 -112.07,-103.85 -99.59,-275.61 -186.08,-391.04 -109.34,-84.05 -256.13,-81.01 -382.21,-122.74 -76.14,354.5 -345.66,638.34 -649.6,818.63 -423.62,278.96 -1008.66,239.07 -1418.58,-45.68 -306.37,-200.09 -526.56,-515.6 -641.08,-859.44 -111.46,27.11 -243.63,33.81 -317.03,135.23 -96.24,135.83 -52.69,338.04 -178.16,458.94 -135.82,132.18 -405.35,92.29 -455.6,-103.54 -39.29,-465.96 314.6,-897.19 764.72,-991.3 131.25,-33.5 155.62,-151.36 146.48,-270.44 -378.85,13.1 -729.08,-219.88 -923.08,-533.57 -122.73,-169.33 24.67,-465.96 246.08,-417.23 155.62,-23.75 220.19,138.57 302.41,238.16 91.37,146.79 284.15,160.49 439.16,184.86 47.5,-273.49 207.39,-508.59 376.42,-722.69 -241.21,-320.08 -376.42,-785.43 -149.23,-1148.45 88.32,-170.55 352.67,-170.55 465.35,-23.45 86.18,119.39 -3.96,255.21 -30.76,379.47 -59.38,181.2 45.08,359.67 148.01,502.5 325.56,-147.4 713.25,-126.08 1038.81,12.18 165.67,-156.23 243.95,-414.49 112.07,-616.71 -141.61,-192.47 82.54,-473.57 303.33,-394.39 234.81,63.65 275.93,352.06 292.07,558.54 34.11,276.22 -80.41,540.88 -245.16,756.5 204.66,204.05 317.94,477.83 411.44,746.75 109.33,-47.51 223.84,-86.19 326.78,-148.01 128.21,-121.21 212.57,-354.19 429.41,-319.47 212.58,3.35 305.16,283.22 205.57,449.51zm-781.78 -2817.06c-629.49,-377.64 -1394.82,-468.4 -2112.03,-359.67 -906.34,142.22 -1739.88,671.22 -2266.44,1420.71 -627.06,853.95 -753.76,2010.32 -449.21,3011.37 268.31,892.02 937.09,1638.79 1768.81,2047.47 1058.91,546.2 2429.38,485.51 3400.28,-220.83 746.75,-521.96 1293.72,-1342.71 1433.5,-2247.22 43.85,-491.85 53.9,-998.92 -82.53,-1477.36 -247.6,-909.99 -855.47,-1728.31 -1692.38,-2174.47z"/>
   <path class="fil2" d="M10887.16 8064.64c-139.78,904.51 -686.75,1725.26 -1433.5,2247.22 -970.9,706.34 -2341.37,767.03 -3400.28,220.83 -831.72,-408.68 -1500.5,-1155.45 -1768.81,-2047.47 -304.55,-1001.05 -177.85,-2157.42 449.21,-3011.37 526.56,-749.49 1360.1,-1278.49 2266.44,-1420.71 717.21,-108.73 1482.54,-17.97 2112.03,359.67 836.91,446.16 1444.78,1264.48 1692.38,2174.47 136.43,478.44 126.38,985.51 82.53,1477.36zm2261.27 3644.27c-430.02,-436.96 -885.63,-847.34 -1329.96,-1268.71 -90.15,-113.87 -246.99,-57.8 -360.89,-108.66 -182.43,-134.13 -331.04,-306.35 -502.2,-452.72 961.15,-1447.21 952.62,-3499.24 -77.97,-4908.99 -609.39,-815.58 -1513.29,-1421.94 -2520.12,-1609.24 -1102.17,-225.97 -2299.34,5.49 -3214.81,666.66 -813.44,573.76 -1434.72,1435.63 -1652.17,2413.23 -265.87,1146.01 -59.39,2410.19 627.97,3375 641.99,960.55 1714.3,1611.94 2855.75,1769.76 1025.41,141 2117.82,-79.8 2966.3,-686.12 119.07,126.03 244.55,246.23 375.2,361.25 -8.53,123.71 -15.53,265.32 102.93,343.36 593.56,520.77 1138.1,1094.18 1720.69,1627.07 346.28,306.37 921.87,300.59 1265.71,-8.07 238.76,-198.84 288.4,-540.45 267.69,-832.9 -51.46,-302.88 -327.69,-474.55 -524.12,-680.92z"/>
   <path class="fil3" d="M7432.45 7229.5c348.5,31.41 710.38,-87.72 963.02,-331.95 273.12,-235.25 405.22,-606.59 383.68,-961.96 -40.18,-334.94 -214.82,-654.94 -490.31,-853.29 -284.14,-230.3 -674.92,-287.6 -1024.72,-208.37 -433.32,110.17 -784.17,478.52 -874.78,916.11 -75.37,266.16 -10.5,550.27 108.2,794 174.38,356.37 546.77,592.62 934.91,645.46z"/>
   <path class="fil3" d="M8691.97 7777.26c-355.85,-189.89 -768.42,-130.57 -1154.2,-138.55 -273.65,7.48 -550.97,-24.92 -820.42,31.41 -624.76,126.6 -1177.83,701.29 -1141.6,1362.69 -12.34,180.94 38.35,455.05 266.83,464.03 1078.56,8.96 2158.7,-3.49 3237.79,4 112.67,-6.49 256.05,13.44 335.36,-87.25 93.75,-121.11 106.1,-284.59 111.61,-432.13 -18.91,-519.35 -367.39,-991.38 -835.37,-1204.2z"/>
  </g>
 </g>
</svg>
