<?xml version="1.0" encoding="UTF-8"?>
<!DOCTYPE svg PUBLIC "-//W3C//DTD SVG 1.1//EN" "http://www.w3.org/Graphics/SVG/1.1/DTD/svg11.dtd">
<!-- Creator: CorelDRAW -->
<svg xmlns="http://www.w3.org/2000/svg" xml:space="preserve" width="169.333mm" height="169.333mm" version="1.1" style="shape-rendering:geometricPrecision; text-rendering:geometricPrecision; image-rendering:optimizeQuality; fill-rule:evenodd; clip-rule:evenodd"
viewBox="0 0 16933.32 16933.32"
 xmlns:xlink="http://www.w3.org/1999/xlink"
 xmlns:xodm="http://www.corel.com/coreldraw/odm/2003">
 <defs>
  <style type="text/css">
   <![CDATA[
    .fil0 {fill:white}
    .fil1 {fill:#FEFEFE;fill-rule:nonzero}
    .fil2 {fill:#861613;fill-rule:nonzero}
    .fil3 {fill:#E42229;fill-rule:nonzero}
   ]]>
  </style>
 </defs>
 <g id="Layer_x0020_1">
  <metadata id="CorelCorpID_0Corel-Layer"/>
  <g id="_1802447171936">
   <path class="fil0" d="M1899.4 92.37l13134.53 0c995.29,0 1807.02,811.73 1807.02,1807.02l0 13134.53c0,995.29 -811.73,1807.02 -1807.02,1807.02l-13134.53 0c-995.29,0 -1807.02,-811.73 -1807.02,-1807.02l0 -13134.53c0,-995.29 811.73,-1807.02 1807.02,-1807.02z"/>
   <g>
    <path class="fil1" d="M6569.34 6715.46c147.47,67.4 231.47,226.22 387.06,279.63 92.71,40.84 195.17,42.84 294.37,55.41 46.62,-243.36 190.83,-458.73 383.8,-610.97 -71.01,-233.07 -118.16,-479.72 -261.29,-682.48 -67.21,-111.11 -169.13,-234.2 -124.14,-372.96 27.65,-150.72 224.97,-243.95 346.41,-135.53 229.31,164.79 314.97,452.13 402.23,707.46 262.92,-91.63 547.02,-88.92 821.85,-73.18 54.21,-263.47 205.45,-517.19 436.38,-660.3 129.57,-88.37 313.89,48.25 308.49,191.37 13.54,138.22 -76.98,248.28 -157.24,348.56 -140.93,168.61 -176.17,391.4 -239.05,595.23 208.71,175.52 357.24,424.02 441.82,682.52 200.03,-1.72 367.01,-118.25 492.77,-263.36 97.03,-113.39 256.96,-59.7 368.63,-0.57 103.55,192.23 -21.16,408.74 -180.51,524.71 -176.75,141.39 -402.8,193.09 -620.74,233.08 -1.08,83.4 -2.17,167.38 -2.17,252.21 336.68,76.83 660.84,290.49 804.51,612.96 27.63,94.83 95.94,207.09 24.94,299.92 -78.06,127.96 -266.18,116.53 -389.23,68.83 -86.21,-100.82 -101.37,-254.21 -220.65,-326.48 -90.01,-50.27 -191.92,-72.54 -288.95,-104.53 -149.07,462.43 -548.61,892.88 -1052.21,936.58 -575.75,65.69 -1143.32,-369.61 -1267.46,-928.02 -121.42,39.13 -246.67,67.7 -362.12,122.54 -90.01,59.13 -108.97,177.95 -177.26,257.07 -146.39,128.81 -444.53,49.7 -440.19,-167.09 86.17,-427.6 501.42,-696.09 903.14,-781.78 8.13,-196.8 39.56,-391.31 31.99,-588.69 -29.28,108.54 24.93,249.93 -74.27,331.33 -105.71,55.7 -221.19,-13.14 -327.45,-35.13 -239.61,-85.12 -509.02,-230.5 -584.37,-492.43 -3.8,-160.52 157.75,-314.48 320.91,-275.91zm5907.35 3204.49c-5.98,-1750.63 -2.18,-3501.55 -2.72,-5251.99 -2689.93,8.14 -5380.42,8.14 -8069.81,0 1.63,1750.44 -1.08,3501.36 0.55,5252.57 2691.01,0 5381.5,-0.58 8071.98,-0.58z"/>
    <path class="fil2" d="M12473.97 4667.96c0.54,1750.44 -3.26,3501.36 2.72,5251.99 -2690.48,0 -5380.97,0.58 -8071.98,0.58 -1.63,-1751.21 1.08,-3502.13 -0.55,-5252.57 2689.39,8.14 5379.88,8.14 8069.81,0zm-8671.55 5871.53c3091.65,-15.71 6183.81,-6 9275.46,-4.29 2.15,-1959.71 -1.63,-3920 2.15,-5880.23 29.84,-325.28 -282.41,-615.31 -601.17,-597.43 -2674.78,1.65 -5349.51,0 -8024.29,1.08 -329.59,-17.33 -669.48,251.56 -649.98,597.97 -5.42,1960.89 0.54,3921.47 -2.17,5882.9z"/>
    <path class="fil2" d="M4027.96 12196.15c2925.21,-1.14 5850.94,0 8776.14,-0.57 471.64,13.13 921.59,-350.76 1015.91,-812.05 33.62,-168.53 50.41,-367.04 -84.54,-496.43 -1335.76,8 -2670.97,-9.42 -4006.19,8.56 -66.67,135.68 -92.68,367.62 -282.44,375.04 -633.72,19.71 -1267.97,0 -1901.7,10.86 -84.57,-8 -181.6,12.57 -255.87,-36.27 -70.49,-113.12 -91.08,-251.36 -172.41,-359.33 -1338.98,4.85 -2677.45,1.14 -4015.91,2 -165.36,174.8 -123.6,441.3 -49.88,648.95 139.33,400.17 555.66,674.38 976.89,659.24z"/>
    <path class="fil3" d="M6856.08 7327.86c232.85,20.99 474.66,-58.61 643.47,-221.8 182.49,-157.19 270.76,-405.31 256.37,-642.77 -26.85,-223.8 -143.54,-437.61 -327.62,-570.15 -189.86,-153.88 -450.97,-192.16 -684.7,-139.22 -289.54,73.61 -523.97,319.73 -584.51,612.13 -50.36,177.84 -7.02,367.67 72.29,530.53 116.52,238.12 365.35,395.98 624.7,431.28z"/>
    <path class="fil3" d="M7697.66 7693.87c-237.77,-126.89 -513.44,-87.25 -771.22,-92.58 -182.84,5 -368.14,-16.65 -548.18,20.99 -417.46,84.59 -787.01,468.59 -762.8,910.52 -8.24,120.9 25.63,304.06 178.29,310.06 720.68,5.99 1442.41,-2.33 2163.43,2.67 75.29,-4.33 171.09,8.99 224.09,-58.29 62.64,-80.93 70.89,-190.16 74.57,-288.74 -12.63,-347.03 -245.48,-662.43 -558.18,-804.63z"/>
    <path class="fil3" d="M10044.14 7327.86c232.86,20.99 474.66,-58.61 643.47,-221.8 182.5,-157.19 270.76,-405.31 256.37,-642.77 -26.85,-223.8 -143.54,-437.61 -327.61,-570.15 -189.86,-153.88 -450.98,-192.16 -684.71,-139.22 -289.53,73.61 -523.97,319.73 -584.51,612.13 -50.36,177.84 -7.01,367.67 72.3,530.53 116.52,238.12 365.34,395.98 624.69,431.28z"/>
    <path class="fil3" d="M10885.72 7693.87c-237.77,-126.89 -513.44,-87.25 -771.21,-92.58 -182.85,5 -368.15,-16.65 -548.19,20.99 -417.45,84.59 -787.01,468.59 -762.79,910.52 -8.25,120.9 25.62,304.06 178.29,310.06 720.67,5.99 1442.4,-2.33 2163.43,2.67 75.28,-4.33 171.09,8.99 224.08,-58.29 62.65,-80.93 70.89,-190.16 74.58,-288.74 -12.64,-347.03 -245.49,-662.43 -558.19,-804.63z"/>
   </g>
  </g>
 </g>
</svg>
