<?xml version="1.0" encoding="UTF-8"?>
<!DOCTYPE svg PUBLIC "-//W3C//DTD SVG 1.1//EN" "http://www.w3.org/Graphics/SVG/1.1/DTD/svg11.dtd">
<!-- Creator: CorelDRAW -->
<svg xmlns="http://www.w3.org/2000/svg" xml:space="preserve" width="169.333mm" height="169.333mm" version="1.1" style="shape-rendering:geometricPrecision; text-rendering:geometricPrecision; image-rendering:optimizeQuality; fill-rule:evenodd; clip-rule:evenodd"
viewBox="0 0 16933.32 16933.32"
 xmlns:xlink="http://www.w3.org/1999/xlink"
 xmlns:xodm="http://www.corel.com/coreldraw/odm/2003">
 <defs>
  <style type="text/css">
   <![CDATA[
    .fil0 {fill:white}
    .fil2 {fill:#861613;fill-rule:nonzero}
    .fil3 {fill:#E42229;fill-rule:nonzero}
    .fil1 {fill:white;fill-rule:nonzero}
   ]]>
  </style>
 </defs>
 <g id="Layer_x0020_1">
  <metadata id="CorelCorpID_0Corel-Layer"/>
  <g id="_1802384530032">
   <path class="fil0" d="M1899.4 92.37l13134.53 0c995.29,0 1807.02,811.73 1807.02,1807.02l0 13134.54c0,995.29 -811.73,1807.02 -1807.02,1807.02l-13134.53 0c-995.29,0 -1807.02,-811.73 -1807.02,-1807.02l0 -13134.54c0,-995.29 811.73,-1807.02 1807.02,-1807.02z"/>
   <path class="fil1" d="M11156.82 10623.32c-294.2,-44.99 -584.69,245.04 -550.12,538.33 -7.14,151.24 123.1,248.26 220.22,344.24 45.41,236.9 -98.83,555.64 125.67,725.33 129.68,92.69 310.2,-5.42 337.05,-152.87 23.42,-194.63 -23.71,-392.49 12.57,-586.03 71.69,-142.56 199.65,-268.35 187.66,-440.19 13.99,-201.11 -147.96,-377.83 -333.05,-428.81z"/>
   <path class="fil2" d="M9958.83 4976.21c-383.6,-950.33 -1466.14,-1580.23 -2481.56,-1370.43 -851.76,156.67 -1576.98,850.01 -1765.77,1696.76 -106.83,497.65 -83.98,1040.33 138.24,1505.99 206.51,463.5 588.11,839.73 1035.98,1073.92 695.52,355.61 1566.69,307.37 2227.65,-104.63 510.71,-318.22 899.16,-844.61 1003.99,-1442.55 113.11,-454.3 11.14,-932.41 -158.53,-1359.06z"/>
   <path class="fil2" d="M9480.4 8260.29c-322.76,137.7 -642.38,295.99 -992.28,350.75 -643.81,123.05 -1350.76,52.59 -1907.45,-314.42 -97.68,-77.52 -223.36,-78.61 -333.62,-30.91 -619.53,217.91 -1176.23,621.79 -1569.83,1148.73 -330.76,416.88 -549.27,941.64 -532.42,1479.94 -2,432.62 -3.14,865.2 -1.14,1298.34 -14.56,255.33 245.65,453.21 489,427.73 1502.71,3.26 3005.99,-1.63 4508.7,3.26 -11.14,-757.87 -0.86,-1515.19 -5.43,-2273.06 -17.14,-311.71 149.1,-611.48 385.6,-806.11 83.41,-76.44 210.8,-146.9 196.24,-279.18 -1.72,-329.07 -27.14,-664.63 89.4,-979.59 -107.97,-16.26 -222.23,-80.24 -326.77,-25.48z"/>
   <path class="fil3" d="M12357.85 9724.52c-549.26,-10.31 -1098.25,-1.09 -1647.52,-9.23 10.85,-330.13 -55.41,-687.37 115.4,-989.34 132.25,-235.27 365.89,-439.1 646.38,-455.9 408.17,-52.04 807.48,277.01 879.18,673.29 21.13,259.67 7.71,520.97 6.56,781.18zm-527.56 1767.8c-36.27,193.54 10.86,391.4 -12.56,586.03 -26.85,147.45 -207.37,245.56 -337.05,152.87 -224.5,-169.69 -80.26,-488.43 -125.68,-725.33 -97.12,-95.98 -227.36,-193 -220.22,-344.24 -34.56,-293.29 255.93,-583.32 550.13,-538.33 185.09,50.98 347.04,227.7 333.05,428.81 11.99,171.84 -115.97,297.63 -187.67,440.19zm1562.98 -1492.96c-98.25,-158.84 -275.35,-240.71 -453.3,-266.7 16.86,-470.03 56.85,-986.11 -215.65,-1398.11 -264.5,-418.51 -761.78,-690.09 -1259.92,-645.64 -528.13,14.11 -994.29,394.11 -1191.08,871.69 -144.82,371.35 -100.26,775.77 -109.97,1165 -343.05,8.66 -594.12,341.53 -540.99,673.84 6,634.27 2,1268.55 5.43,1902.79 -8.29,377.32 309.62,749.72 697.22,750.81 759.78,1.63 1520.42,-3.8 2281.06,2.71 195.08,0 410.45,5.98 576.12,-116.53 192.51,-130.65 318.48,-351.3 318.76,-586.03 10.85,-595.78 -0.28,-1192.09 5.43,-1787.85 -2,-191.93 8.28,-404.43 -113.11,-565.98z"/>
  </g>
 </g>
</svg>
