<?xml version="1.0" encoding="UTF-8"?>
<!DOCTYPE svg PUBLIC "-//W3C//DTD SVG 1.1//EN" "http://www.w3.org/Graphics/SVG/1.1/DTD/svg11.dtd">
<!-- Creator: CorelDRAW -->
<svg xmlns="http://www.w3.org/2000/svg" xml:space="preserve" width="169.333mm" height="169.333mm" version="1.1" style="shape-rendering:geometricPrecision; text-rendering:geometricPrecision; image-rendering:optimizeQuality; fill-rule:evenodd; clip-rule:evenodd"
viewBox="0 0 16933.32 16933.32"
 xmlns:xlink="http://www.w3.org/1999/xlink"
 xmlns:xodm="http://www.corel.com/coreldraw/odm/2003">
 <defs>
  <style type="text/css">
   <![CDATA[
    .fil0 {fill:white}
    .fil1 {fill:#FEFEFE;fill-rule:nonzero}
    .fil2 {fill:#861613;fill-rule:nonzero}
    .fil3 {fill:#E42229;fill-rule:nonzero}
   ]]>
  </style>
 </defs>
 <g id="Layer_x0020_1">
  <metadata id="CorelCorpID_0Corel-Layer"/>
  <g id="_1803990060160">
   <path class="fil0" d="M1899.4 92.37l13134.53 0c995.29,0 1807.02,811.73 1807.02,1807.02l0 13134.53c0,995.29 -811.73,1807.02 -1807.02,1807.02l-13134.53 0c-995.29,0 -1807.02,-811.73 -1807.02,-1807.02l0 -13134.53c0,-995.29 811.73,-1807.02 1807.02,-1807.02z"/>
   <polygon class="fil1" points="13829.15,8544.07 10138.51,10135.61 3650.96,10229.3 3650.96,6092.13 13613.5,6092.13 "/>
   <path class="fil1" d="M12836.59 8206.74c-77.42,-159.95 -208.23,-299.34 -373.04,-369.03 -270.49,-91.69 -596.68,15.14 -748.64,260.21 -163.1,235.64 -125.11,537.56 -115.39,808.05 425.01,0 850.61,1.72 1276.2,0 -4.29,-233.08 14.56,-471.57 -39.13,-699.23z"/>
   <path class="fil1" d="M12147.07 9666.03c-304.77,63.99 -365.32,505.29 -110.54,672.96 9.71,173.94 -4,348.47 10.29,522.41 20.56,163.1 313.33,167.1 333.89,4.86 31.43,-229.37 -45.98,-489 126.25,-678.09 203.38,-230.5 -76.83,-607.82 -359.89,-522.14z"/>
   <path class="fil2" d="M10250.19 7592.06c-145.39,-5.99 -241.65,115.4 -352.47,189.67 46.84,-176.24 66.27,-415.31 -122.82,-513.86 -109.69,-77.98 -240.22,16.28 -299.34,112.25 -88.27,137.11 -14,303.06 18.56,446.74 -114.53,-91.69 -215.94,-245.65 -381.88,-224.52 -177.1,-15.7 -325.05,225.37 -209.66,370.76 92.55,142.53 266.78,178.23 422.16,204.79 -158.81,36.57 -369.04,67.98 -431.3,245.07 -68.84,146.54 49.7,344.19 216.8,328.48 158.8,7.71 268.77,-121.39 370.74,-223.07 -28.85,161.38 -44.56,351.03 66.27,487.28 70.26,107.69 252.5,99.12 317.05,-9.71 104.54,-130.24 66.55,-314.48 29.71,-463.01 109.68,113.69 248.21,220.51 415.87,208.23 93.12,-31.71 186.53,-110.26 169.67,-219.08 18.28,-227.08 -225.93,-336.76 -415.88,-350.19 177.95,-30.84 390.46,-106.82 427.3,-309.62 61.13,-149.1 -89.97,-304.77 -240.78,-280.21z"/>
   <path class="fil2" d="M13521.81 5856.71c-221.65,-124.14 -480.14,-94.32 -723.79,-98.66 -2854.6,1.63 -5709.78,-1.63 -8565.24,1.09 -437.3,-24.39 -844.61,303.05 -967.14,713.97 -44.27,194.59 -36.27,395.19 -38.85,593.67 1.43,883.47 -3.42,1767.21 0.58,2650.96 -3.44,525.84 495.85,950.29 1007.13,940 1967.15,5.72 3935.15,1.43 5902.87,0.86 -10.29,-174.51 -13.43,-349.04 1.14,-522.99 -1950.58,0 -3901.44,3.15 -5852.6,-2.28 -300.76,15.13 -565.83,-276.49 -539.26,-572.97 0.56,-938.31 -0.58,-1877.18 0.56,-2815.68 -21.71,-286.23 273.64,-490.6 537.56,-479.75 2892.88,3.8 5785.47,1.63 8677.49,1.63 232.22,-9.22 496.14,92.69 570.98,332.3 92.83,381.67 -92.26,816.97 139.39,1164.87 122.53,240.22 169.67,511.28 156.52,780.34 78.27,44.85 155.1,90.26 232.51,138.25 0,-682.66 11.42,-1365.03 -3.14,-2047.12 2.85,-340.99 -251.07,-626.68 -536.71,-778.49z"/>
   <path class="fil2" d="M6157.37 7940.53c74.27,-122.53 1.14,-297.62 -134.53,-333.33 -176.81,-43.41 -330.19,65.12 -446.16,184.23 7.14,-158.24 69.98,-357.32 -70.54,-476.43 -100.27,-119.39 -289.92,-48.27 -345.62,79.12 -83.69,134.54 -27.14,291.63 -2.86,434.74 -114.25,-92.55 -218.51,-240.22 -383.32,-225.94 -197.37,-9.72 -329.62,268.78 -182.51,410.73 89.39,112.83 233.07,144.82 369.6,155.68 -137.67,78.54 -319.34,105.11 -399.02,258.49 -44.85,123.68 17.99,241.93 106.82,325.91 201.66,36.27 365.9,-76.55 481.86,-230.51 -2.57,183.38 -41.7,412.74 125.97,540.13 69.69,21.71 170.52,38.27 223.64,-25.99 147.68,-127.39 89.12,-339.9 89.7,-509.57 94.25,166.82 282.77,277.93 476.43,211.94 88.26,-78.55 139.39,-214.22 76.84,-323.62 -57.42,-151.38 -230.8,-169.38 -359.33,-229.93 144.25,-38.56 321.62,-83.98 373.03,-245.65z"/>
   <path class="fil2" d="M8309.89 7939.39c103.12,-149.38 -31.41,-402.74 -223.65,-345.33 -168.24,-17.71 -264.78,131.97 -376.46,228.22 34.28,-135.96 84.26,-286.77 14.85,-420.45 -45.7,-132.82 -229.93,-219.08 -343.89,-115.11 -160.25,104.83 -129.97,317.34 -116.55,482.15 -106.82,-90.55 -222.22,-199.08 -375.6,-167.67 -184.81,-12.56 -294.78,260.79 -166.52,390.46 96.54,120.25 254.5,152.82 395.88,187.95 -163.09,31.42 -351.9,88.83 -422.45,257.07 -64.84,107.68 10.57,235.07 95.12,307.91 175.95,53.13 364.18,-40.85 456.44,-193.66 10.85,-1.43 32.56,-6 43.13,-8 -63.41,190.81 -15.14,453.02 194.23,528.42 121.96,32.57 202.8,-88.26 247.07,-181.95 60.84,-118.25 8.28,-249.07 -14,-369.32 115.97,115.97 247.64,255.93 429.31,231.93 150.81,4.58 243.93,-199.36 173.09,-322.47 -67.41,-175.67 -259.35,-242.79 -432.73,-245.65 154.53,-49.13 347.04,-79.69 422.73,-244.5z"/>
   <path class="fil3" d="M11599.52 8905.97c-9.72,-270.49 -47.71,-572.41 115.39,-808.05 151.96,-245.07 478.15,-351.9 748.64,-260.21 164.81,69.69 295.62,209.08 373.04,369.03 53.69,227.66 34.84,466.15 39.13,699.23 -425.59,1.72 -851.19,0 -1276.2,0zm907.44 1282.2c-172.23,189.09 -94.82,448.72 -126.25,678.09 -20.56,162.24 -313.33,158.24 -333.89,-4.86 -14.29,-173.94 -0.58,-348.47 -10.29,-522.41 -254.78,-167.67 -194.23,-608.97 110.54,-672.96 283.06,-85.68 563.27,291.64 359.89,522.14zm1404.17 672.66c-16.85,-506.14 21.71,-1013.71 -20,-1518.41 -16.84,-251.93 -252.21,-420.17 -488.14,-446.73 -15.14,-308.49 45.7,-637.53 -97.4,-924.31 -155.67,-381.6 -524.71,-681.23 -942.87,-708.37 -445.59,-59.12 -912.3,185.38 -1120.53,582.7 -178.81,317.62 -171.09,693.8 -164.81,1047.41 -268.21,-1.14 -519.28,235.36 -502.43,508.42 3.14,577.83 -3.14,1155.67 3.14,1733.78 1.14,282.77 249.36,557.84 540.99,544.71 739.5,9.7 1479.57,6.56 2219.07,1.14 176.24,15.7 344.76,-68.85 454.73,-203.94 155.09,-165.39 111.11,-410.46 118.25,-616.4z"/>
  </g>
 </g>
</svg>
