<?xml version="1.0" encoding="UTF-8"?>
<!DOCTYPE svg PUBLIC "-//W3C//DTD SVG 1.1//EN" "http://www.w3.org/Graphics/SVG/1.1/DTD/svg11.dtd">
<!-- Creator: CorelDRAW -->
<svg xmlns="http://www.w3.org/2000/svg" xml:space="preserve" width="169.333mm" height="169.333mm" version="1.1" style="shape-rendering:geometricPrecision; text-rendering:geometricPrecision; image-rendering:optimizeQuality; fill-rule:evenodd; clip-rule:evenodd"
viewBox="0 0 16933.32 16933.32"
 xmlns:xlink="http://www.w3.org/1999/xlink"
 xmlns:xodm="http://www.corel.com/coreldraw/odm/2003">
 <defs>
  <style type="text/css">
   <![CDATA[
    .fil0 {fill:white}
    .fil1 {fill:#FEFEFE;fill-rule:nonzero}
    .fil2 {fill:#861613;fill-rule:nonzero}
    .fil3 {fill:#E42229;fill-rule:nonzero}
   ]]>
  </style>
 </defs>
 <g id="Layer_x0020_1">
  <metadata id="CorelCorpID_0Corel-Layer"/>
  <g id="_1802447230160">
   <path class="fil0" d="M1899.4 92.43l13134.53 0c995.29,0 1807.02,811.73 1807.02,1807.02l0 13134.42c0,995.29 -811.73,1807.02 -1807.02,1807.02l-13134.53 0c-995.29,0 -1807.02,-811.73 -1807.02,-1807.02l0 -13134.42c0,-995.29 811.73,-1807.02 1807.02,-1807.02z"/>
   <path class="fil1" d="M8384.23 7906.05c-278.21,50.27 -495.57,332.76 -464.15,615.83 3.71,308.48 307.33,551.83 605.53,540.41 210.8,-34.85 407.03,-179.95 482.44,-383.32 179.09,-375.61 -224.79,-854.9 -623.82,-772.92z"/>
   <path class="fil1" d="M8683.85 9723.52c-542.98,97.69 -1127.38,-210.79 -1345.89,-718.65 -166.53,-348.18 -163.09,-772.63 17.71,-1114.53 165.38,-338.47 514.71,-549.84 870.32,-638.67 324.19,-82.55 673.23,7.43 950.87,183.09 361.04,229.36 560.98,664.09 548.41,1085.97 4.28,582.12 -460.72,1127.11 -1041.42,1202.79zm-507.85 -2945.72c-795.2,112.83 -1515.85,546.99 -2086.54,1098.83 -157.38,170.81 -358.46,342.19 -377.32,589.83 5.44,211.37 173.95,361.04 295.92,516.14 393.6,484.71 904.88,877.74 1491.85,1097.11 983.43,392.02 2132.81,91.69 2924.87,-572.41 283.35,-256.78 618.4,-479.86 805.49,-823.48 134.53,-250.5 -85.12,-494.43 -233.66,-679.8 -688.65,-795.77 -1748.91,-1360.74 -2820.61,-1226.22z"/>
   <path class="fil2" d="M11230.27 8683.82c-187.09,343.62 -522.14,566.7 -805.49,823.48 -792.06,664.1 -1941.44,964.43 -2924.87,572.41 -586.97,-219.37 -1098.25,-612.4 -1491.85,-1097.11 -121.97,-155.1 -290.48,-304.77 -295.92,-516.14 18.86,-247.64 219.94,-419.02 377.32,-589.83 570.69,-551.84 1291.34,-986 2086.54,-1098.83 1071.7,-134.52 2131.96,430.45 2820.61,1226.22 148.54,185.37 368.19,429.3 233.66,679.8zm926.3 -3439c-1223.94,-107.4 -2482.14,-406.74 -3480.14,-1156.8 -104.25,-91.7 -263.07,-95.12 -368.75,-5.44 -993.14,756.08 -2247.63,1083.69 -3475.28,1175.67 -169.66,7.71 -409.88,74.26 -427.31,276.49 -18.85,1105.96 7.72,2222.78 251.65,3306.47 404.74,2042.52 1885.45,3793.53 3760.05,4661.45 181.09,55.84 332.76,-85.66 483.58,-161.56 687.8,-382.17 1316.19,-874.4 1839.17,-1463.68 706.37,-780.63 1200.23,-1739.15 1490.43,-2747.44 331.62,-1201.36 326.77,-2457.29 308.77,-3692.93 -90.54,-125.11 -230.79,-186.24 -382.17,-192.23z"/>
   <path class="fil3" d="M9008.05 8678.97c-75.41,203.37 -271.64,348.47 -482.44,383.32 -298.2,11.42 -601.82,-231.93 -605.53,-540.41 -31.42,-283.07 185.94,-565.56 464.15,-615.83 399.03,-81.98 802.91,397.31 623.82,772.92zm168.81 -1244.21c-277.64,-175.66 -626.68,-265.64 -950.87,-183.09 -355.61,88.83 -704.94,300.2 -870.32,638.67 -180.8,341.9 -184.24,766.35 -17.71,1114.53 218.51,507.86 802.91,816.34 1345.89,718.65 580.7,-75.68 1045.7,-620.67 1041.42,-1202.79 12.57,-421.88 -187.37,-856.61 -548.41,-1085.97z"/>
  </g>
 </g>
</svg>
