<?xml version="1.0" encoding="UTF-8"?>
<!DOCTYPE svg PUBLIC "-//W3C//DTD SVG 1.1//EN" "http://www.w3.org/Graphics/SVG/1.1/DTD/svg11.dtd">
<!-- Creator: CorelDRAW -->
<svg xmlns="http://www.w3.org/2000/svg" xml:space="preserve" width="169.333mm" height="169.333mm" version="1.1" style="shape-rendering:geometricPrecision; text-rendering:geometricPrecision; image-rendering:optimizeQuality; fill-rule:evenodd; clip-rule:evenodd"
viewBox="0 0 16933.32 16933.32"
 xmlns:xlink="http://www.w3.org/1999/xlink"
 xmlns:xodm="http://www.corel.com/coreldraw/odm/2003">
 <defs>
  <style type="text/css">
   <![CDATA[
    .fil2 {fill:#FEFEFE;fill-rule:nonzero}
    .fil8 {fill:#2B2A29;fill-rule:nonzero}
    .fil7 {fill:#FEF0E2;fill-rule:nonzero}
    .fil5 {fill:#CA322D;fill-rule:nonzero}
    .fil4 {fill:#672524;fill-rule:nonzero}
    .fil3 {fill:#432425;fill-rule:nonzero}
    .fil6 {fill:#212325;fill-rule:nonzero}
    .fil0 {fill:#1D1D1E;fill-rule:nonzero}
    .fil1 {fill:#E42229;fill-rule:nonzero}
   ]]>
  </style>
 </defs>
 <g id="Layer_x0020_1">
  <metadata id="CorelCorpID_0Corel-Layer"/>
  <g id="_3072907999360">
   <path class="fil0" d="M10335.23 1073.23c15.66,-73.97 6.97,-134.22 -26.16,-180.92 -33.09,-46.69 -94.99,-79.68 -185.75,-98.95l-223.16 -47.35 -94.6 446.41 223.14 47.35c173.07,36.58 275.26,-18.94 306.53,-166.54zm-28.06 233.82c-74.55,44.75 -174.08,54.05 -298.58,27.59l-223.21 -47.35 -99.95 471.73 -110.78 -23.5 234.54 -1106.43 333.92 70.87c123.48,26.12 210.43,74.95 260.9,146.3 50.47,71.36 65.57,155.12 45.21,250.97 -20.12,95.03 -67.52,164.91 -142.05,209.82z"/>
   <path class="fil0" d="M11496.68 1953.48l34.21 -650.19 -445.06 475.32 410.85 174.87zm-5.54 99.61l-473.33 -201.5 -196.08 208.36 -110.13 -46.85 817 -865.58 117.63 50.13 -59.35 1188.21 -110.19 -46.87 14.45 -285.9z"/>
   <polygon class="fil0" points="13812.7,2533.46 12880.55,3249.46 12779.33,3174.19 13126.52,2230.58 12317.23,2830.31 12217.59,2758.31 12641.87,1662.19 12739.23,1734.68 12354.86,2684.83 13179.26,2062.08 13280.48,2137.5 12914.28,3101.2 13715.35,2460.97 "/>
   <polygon class="fil0" points="14333.28,3226.93 14013.7,3502.87 14293.91,3827.32 14222.9,3888.71 13942.64,3564.29 13618.18,3844.46 13930.14,4205.65 13859.09,4267.04 13473.09,3820.13 14330.26,3079.81 14716.24,3526.72 14645.23,3588.11 "/>
   <polygon class="fil0" points="14550.2,5146.16 14474.46,5192.85 14201.95,4750.85 14646.82,4476.53 14526.97,4387.05 14602.71,4340.35 14722.56,4429.83 15164.57,4157.32 15224,4253.81 14819.18,4503.31 14992.8,4633.93 14917,4680.64 14743.43,4550.01 14337.08,4800.49 "/>
   <polygon class="fil0" points="16299.55,6902.43 15204.9,7186.54 15176.33,7076.98 15688.55,6944.06 15534.4,6350.53 15022.35,6483.44 14993.91,6373.72 16088.59,6089.6 16117,6199.33 15625.19,6326.85 15779.33,6920.39 16271.14,6792.86 "/>
   <path class="fil0" d="M15530 8644.49c58.62,50.62 128.5,82.46 209.98,95.36 81.48,13.06 167.53,4.08 258.48,-27.27 90.62,-31.19 163.93,-76.91 219.61,-137.16 55.68,-60.25 91.11,-128.34 105.97,-204.1 15.02,-75.91 8.82,-153.65 -18.61,-233.17 -27.27,-79.5 -70.21,-144.67 -128.67,-195.28 -58.45,-50.63 -128.18,-82.46 -209.17,-95.69 -80.98,-13.23 -166.87,-4.24 -257.65,26.94 -90.79,31.35 -164.27,77.07 -220.44,137.49 -56.33,60.41 -91.92,128.5 -106.79,204.43 -15.01,75.92 -8.81,153.65 18.62,233.17 27.43,79.51 70.21,144.66 128.67,195.28zm-245.09 -456.37c18.78,-96.5 61.56,-182.39 128.83,-257.34 67.11,-75.11 153.32,-130.62 258.31,-166.71 104.99,-36.25 207.05,-45.39 306.16,-27.6 99.11,17.8 185.81,59.11 259.95,123.61 73.96,64.66 128.17,146.47 162.13,245.41 34.46,99.93 42.29,198.23 23.68,294.73 -18.77,96.5 -61.72,182.06 -129.16,256.52 -67.27,74.62 -153.48,129.81 -258.47,166.06 -105.16,36.08 -207.04,45.55 -305.99,28.25 -98.96,-17.31 -185.49,-58.3 -259.62,-122.94 -74.13,-64.51 -128.34,-146.81 -162.8,-246.74 -33.96,-98.95 -41.64,-196.75 -23.02,-293.25z"/>
   <path class="fil0" d="M15790.43 9706.48l-43.59 223.87c-16.98,86.86 -8.49,156.26 25.31,208.5 33.63,52.26 86.05,85.24 156.91,99.12 73.15,14.2 133.57,4.08 181.57,-30.53 48.01,-34.62 80.83,-97.49 98.62,-188.6l43.27 -222.23 -462.09 -90.13zm-647.73 371.47l517.27 -184.35 40 -204.75 -463.72 -90.46 21.72 -111.19 1109.99 216.53 -64.98 333.4c-24.17,123.93 -72.17,212.11 -144.02,264.52 -71.68,52.58 -155.77,69.39 -252.11,50.62 -80.49,-15.68 -144.5,-52.09 -192.18,-109.24 -47.68,-57.15 -71.19,-132.26 -70.54,-225.49l-527.45 193.82 26.02 -133.41z"/>
   <path class="fil0" d="M14896.74 11460.14c44.38,108.1 134.77,190.39 271.1,247.38 137.48,57.31 260.6,63.84 369.5,19.92 108.92,-43.91 193.66,-138.63 254.4,-283.95l85.23 -204.6 -870.56 -363.14 -85.33 204.6c-60.59,145.32 -68.73,272.03 -24.34,379.79zm794.91 290.48c-76.26,65.17 -162.96,103.2 -259.79,114.3 -96.99,10.94 -199.69,-6.21 -308.16,-51.44 -107.54,-44.9 -191.22,-105.46 -251.08,-181.89 -59.89,-76.42 -93.27,-164.59 -100.09,-264.36 -6.89,-99.93 13.79,-207.53 61.93,-322.95l128.96 -309.11 1043.85 435.31 -128.99 309.09c-48.17,115.45 -110.38,205.74 -186.63,271.05z"/>
   <polygon class="fil0" points="14850.09,13319.61 14480.5,12632.68 14115.84,12386.28 14179.22,12292.4 14543.93,12538.79 15320.99,12622.55 15249.48,12728.36 14598.03,12643.62 14920.72,13215.11 "/>
   <path class="fil0" d="M14153.34 14456.71l99.96 -370.33 61.53 62.22 -89.74 380.44 -71.75 -72.33zm-1165.87 -782.94l80.4 -79.83 1114.47 234.79 -669.83 -675.51 80.43 -79.84 796.28 803.19 -80.43 79.68 -1113.32 -233.5 668.68 674.36 -80.43 79.68 -796.25 -803.02z"/>
   <path class="fil0" d="M12415 14144.51c61.48,-9.63 118.54,-4.08 171.15,16.84 52.56,20.72 95.54,54.35 128.91,100.89l-99.86 65.97c-34.86,-42.77 -81.75,-69.72 -140.64,-80.5 -58.86,-10.78 -122.95,6.69 -192.25,52.58 -63.84,42.3 -103.56,92.25 -119.14,149.73 -15.61,57.47 -6.75,111.52 26.63,161.81 26.76,40.49 58.69,66.29 95.78,77.24 37.04,11.1 74.9,12.57 113.48,4.41 38.67,-8 89.69,-22.87 153.16,-44.09 74.26,-24.66 135.24,-40.99 182.83,-49.32 47.58,-8.16 95.72,-3.75 144.42,13.07 48.76,16.98 92.44,54.53 131.15,113.16 32.11,48.49 48.29,100.25 48.37,155.12 0.14,54.86 -15.61,108.41 -47.16,160.34 -31.61,51.92 -77.05,97.47 -136.44,136.83 -87.22,57.8 -171.75,82.95 -253.54,75.6 -81.79,-7.19 -149.08,-41.8 -201.84,-104.01l102.56 -67.93c31.89,34.62 75.8,55.03 131.7,61.23 55.96,6.37 114.51,-10.78 175.66,-51.27 56.66,-37.39 93.88,-83.76 111.72,-138.95 17.8,-55.03 9.49,-108.75 -25.05,-160.84 -26.2,-39.68 -57.67,-64.66 -94.42,-75.27 -36.76,-10.62 -74.87,-11.92 -114.23,-3.92 -39.36,7.84 -90.33,22.2 -152.93,42.94 -72.45,23.35 -133.1,39.36 -181.88,47.69 -48.81,8.32 -97.5,4.08 -146.26,-12.9 -48.71,-16.82 -92.11,-54.05 -130.22,-111.69 -29.18,-44.09 -45.16,-93.57 -47.95,-148.59 -2.83,-55.19 10.65,-109.89 40.43,-164.59 29.84,-54.7 76.64,-103.2 140.48,-145.32 62.09,-41.15 123.85,-66.62 185.38,-76.26z"/>
   <polygon class="fil0" points="10884.19,14926.32 11539.4,15216.47 11335.62,14735.11 11439.89,14691.03 11880.85,15732.44 11776.58,15776.53 11570.29,15289.46 11325.15,15967.73 11192.53,16023.9 11459.55,15297.62 10747.1,14984.28 "/>
   <polygon class="fil0" points="10425.94,16247.77 10141.17,15153.28 10250.75,15124.71 10535.56,16219.36 "/>
   <path class="fil0" d="M6213.81 15833.51c-19.48,72.84 -13.95,133.57 16.67,181.9 30.63,48.5 90.72,84.58 180.36,108.59l220.37 58.78 117.81 -440.7 -220.37 -58.95c-170.87,-45.56 -275.85,4.41 -314.84,150.38zm40.23 -232.18c76.83,-40.82 176.74,-44.74 299.66,-11.92l220.4 58.94 124.5 -465.84 109.4 29.22 -292.03 1092.53 -329.8 -88.01c-121.91,-32.65 -206.19,-85.88 -252.91,-159.69 -46.65,-73.97 -57.35,-158.38 -32,-253.09 25.08,-93.89 76.02,-161.16 152.78,-202.14z"/>
   <path class="fil0" d="M5099.47 14893.33l-68.17 647.58 469.31 -451.31 -401.14 -196.27zm10.69 -99.11l462.21 225.99 206.65 -197.9 107.54 52.57 -861.16 821.65 -114.78 -56.18 121.38 -1183.46 107.54 52.56 -29.38 284.77z"/>
   <polygon class="fil0" points="2816.9,14194.32 3784.86,13527.47 3882.06,13607.82 3486.51,14532.31 4325.74,13975.2 4421.5,14052.26 3941.09,15124.86 3847.64,15047.48 4280.65,14118.39 3425.12,14697.73 3327.89,14617.22 3743.5,13673.77 2910.4,14271.71 "/>
   <polygon class="fil0" points="2332.12,13473.91 2665.59,13214.78 2402.57,12876.29 2476.64,12818.65 2739.67,13157.3 3078.3,12894.26 2785.49,12517.4 2859.57,12459.76 3221.86,12926.11 2327.48,13620.86 1965.19,13154.53 2039.3,13097.05 "/>
   <polygon class="fil0" points="2215.57,11546.37 2293.65,11503.58 2542.74,11959.3 2084.2,12209.94 2199.22,12305.64 2121.14,12348.4 2006.12,12252.72 1550.43,12501.72 1496.11,12402.45 1913.46,12174.18 1746.91,12034.9 1824.98,11992.12 1991.54,12131.56 2410.33,11902.64 "/>
   <polygon class="fil0" points="560.69,9701.59 1668.7,9475.13 1691.38,9585.98 1173.04,9691.95 1295.86,10292.83 1814.2,10186.7 1836.88,10297.73 728.88,10524.22 706.19,10413.33 1203.9,10311.61 1081.12,9710.73 583.37,9812.62 "/>
   <path class="fil0" d="M1550.38 8206.24c-14.87,-75.76 -50.32,-144.01 -106.46,-204.43 -56.14,-60.58 -129.51,-106.45 -220.28,-137.81 -90.71,-31.35 -176.58,-40.49 -257.58,-27.43 -80.96,13.06 -150.76,44.9 -209.32,95.35 -58.55,50.62 -101.52,115.61 -129.04,195.13 -27.51,79.52 -33.83,157.24 -18.95,233 14.82,75.93 50.09,144.02 105.7,204.43 55.59,60.26 128.79,106.14 219.49,137.49 90.77,31.35 176.87,40.49 258.33,27.59 81.51,-12.9 151.54,-44.57 210.1,-95.03 58.55,-50.62 101.54,-115.6 129.05,-195.12 27.52,-79.52 33.79,-157.24 18.96,-233.17zm-88.29 510.58c-74.22,64.5 -160.88,105.49 -260.01,123.12 -99.12,17.8 -201.18,8.33 -306.2,-27.92 -104.97,-36.25 -190.99,-91.93 -258.05,-167.04 -67.06,-75.11 -109.86,-161 -128.39,-257.5 -18.55,-96.66 -10.75,-194.3 23.46,-293.25 34.52,-99.93 88.89,-182.06 163.16,-246.56 74.2,-64.5 160.79,-105.32 259.73,-122.46 98.93,-17.15 200.93,-7.68 305.91,28.74 105.02,36.25 191.14,91.6 258.34,166.22 67.25,74.62 110.14,160.18 128.62,256.86 18.6,96.48 10.55,194.78 -23.97,294.71 -34.16,98.78 -88.38,180.59 -162.6,245.08z"/>
   <path class="fil0" d="M1212.26 6935.9l55.07 -221.41c21.33,-85.89 16.49,-155.61 -14.6,-209.5 -31.04,-53.88 -81.64,-89.47 -151.76,-106.94 -72.23,-17.97 -133.2,-10.94 -182.82,21.22 -49.69,32 -85.74,93.07 -108.09,183.04l-54.7 219.94 456.9 113.65zm665.88 -337.83l-526 157.57 -50.42 202.46 458.48 114.14 -27.37 109.89 -1097.47 -273.01 82.03 -329.83c30.49,-122.46 82.9,-208.02 157.26,-256.84 74.39,-48.66 159.2,-61.23 254.43,-37.4 79.55,19.76 141.68,59.27 186.34,118.88 44.67,59.43 64.31,135.68 58.93,228.75l536.61 -166.55 -32.82 131.94z"/>
   <path class="fil0" d="M2194.75 5229.92c-38.8,-110.05 -124.82,-196.92 -258.14,-260.76 -134.27,-64.17 -256.89,-77.24 -367.92,-38.86 -111.02,38.37 -200.51,128.5 -268.51,270.72l-95.68 199.86 850.84 407.22 95.68 -200.02c67.99,-142.05 82.59,-268.09 43.73,-378.16zm-778.95 -330.65c79.52,-61.07 167.96,-94.7 265.3,-100.75 97.36,-6.04 199.08,16.33 305.08,67.12 105.13,50.29 185.61,115.13 241.47,194.46 55.9,79.36 84.73,169 86.44,269.09 1.72,100.1 -24.39,206.56 -78.44,319.39l-144.57 302.23 -1020.14 -488.21 144.57 -302.23c54.04,-112.84 120.78,-199.87 200.29,-261.1z"/>
   <polygon class="fil0" points="2336.82,3374.21 2670.89,4079.1 3022.54,4343.78 2954.47,4434.24 2602.8,4169.72 1830.93,4046.44 1907.79,3944.39 2554.12,4062.12 2260.93,3475.12 "/>
   <path class="fil0" d="M3088.39 2275.81l-118.54 364.77 -58.27 -64.99 108.77 -375.71 68.04 75.93zm1124.88 840.9l-84.34 75.6 -1101.18 -290.81 634.84 708.65 -84.35 75.44 -754.69 -842.22 84.35 -75.59 1100.1 289.5 -633.76 -707.34 84.33 -75.59 754.7 842.36z"/>
   <path class="fil0" d="M4809.12 2675.19c-61.95,6.53 -118.64,-1.79 -170.08,-25.29 -51.45,-23.53 -92.66,-59.29 -123.62,-107.46l103.08 -60.9c32.63,44.74 78.07,73.97 136.35,87.68 58.27,13.72 123.14,-0.49 194.66,-42.78 65.9,-39.02 108.14,-86.7 126.64,-143.52 18.49,-56.66 12.36,-110.87 -18.37,-162.96 -24.72,-41.8 -55.29,-69.07 -91.73,-81.97 -36.48,-12.9 -74.21,-16.32 -113.16,-10.12 -38.99,6.04 -90.7,18.12 -155.21,36.26 -75.42,20.73 -137.13,34.12 -185.05,39.83 -47.96,5.88 -95.82,-0.98 -143.59,-20.41 -47.81,-19.27 -89.55,-59.11 -125.19,-119.53 -29.65,-50.12 -43.17,-102.54 -40.48,-157.4 2.65,-54.86 21.1,-107.44 55.25,-157.73 34.21,-50.29 81.94,-93.56 143.19,-129.65 90.05,-53.39 175.79,-74.29 257.07,-62.86 81.33,11.59 146.76,49.64 196.3,114.3l-105.87 62.54c-30.11,-36.09 -72.91,-58.62 -128.44,-67.77 -55.53,-9.14 -114.89,4.9 -177.98,42.29 -58.52,34.46 -98.07,78.87 -118.69,133.08 -20.59,54.05 -14.97,108.09 16.87,161.97 24.16,40.83 54.27,67.6 90.47,80.01 36.2,12.42 74.13,15.68 113.86,9.64 39.73,-5.87 91.36,-17.64 154.94,-35.11 73.56,-19.74 134.9,-32.49 184.07,-38.37 49.16,-5.86 97.59,0.82 145.4,20.25 47.78,19.43 89.27,58.78 124.36,118.21 26.91,45.4 40.38,95.69 40.38,150.88 0,55.19 -16.27,109.23 -48.79,162.3 -32.53,53.07 -81.74,99.11 -147.69,137.98 -64.04,37.88 -127.05,60.08 -188.95,66.61z"/>
   <polygon class="fil0" points="6378.17,1972.43 5738.74,1649.13 5917.55,2140.28 5811.14,2178.98 5424.12,1116.33 5530.53,1077.63 5711.58,1574.67 5991.2,909.78 6126.48,860.47 5822.62,1572.23 6518.06,1921.48 "/>
   <polygon class="fil0" points="6902.65,676.45 7131.1,1784 7020.16,1806.86 6791.71,699.31 "/>
   <path class="fil1" d="M14046.41 8687.29c-31.21,1118.79 -387.34,2152.54 -976.04,3012.22 -29.91,43.77 -60.68,87.2 -91.6,129.81 -18.16,24.82 -36.65,49.64 -55.15,74.3 -13.43,17.96 -26.89,35.59 -40.5,53.41 -17.15,22.19 -34.47,44.39 -51.94,66.27 -8.76,10.95 -17.49,22.05 -26.57,32.99 -19.17,24 -38.68,47.69 -58.52,71.35 -6.05,7.52 -12.27,14.71 -18.32,21.88l-0.18 0c-16.14,19.1 -32.28,38.21 -48.59,57.15 -19.5,22.54 -39.36,44.91 -59.36,67.11 -710.34,794.37 -1642.53,1383.83 -2695.96,1673.32 -523.18,144.18 -1076.49,214.07 -1647.18,198.07 -470.73,-13.06 -926.06,-83.6 -1359.94,-205.09 -1066.85,-297.99 -2002.69,-902.3 -2709.56,-1709.9 -40.37,-45.72 -79.56,-92.08 -118.07,-139.11 -15.53,-18.78 -30.91,-37.72 -46.11,-56.82 -5.75,-7.03 -11.5,-14.36 -17.23,-21.56 -16.05,-20.41 -31.94,-40.66 -47.83,-61.39 -20.1,-26.13 -39.87,-52.41 -59.46,-79.03 -28.4,-38.21 -56.27,-76.74 -83.65,-115.77 -11.15,-15.82 -22.31,-31.68 -33.3,-47.68 -21.63,-31.35 -42.93,-62.86 -63.71,-94.68l0 -0.35c-31.11,-46.86 -61.36,-94.54 -90.61,-142.53 -553.51,-898.4 -859.93,-1962.68 -828.41,-3095.86 62.88,-2266.53 1460.51,-4182 3418.75,-5014.75l0.5 -0.32c110.31,-46.86 222.79,-90.46 336.99,-130.3 163.02,-57.48 329.44,-107.28 498.89,-149.08 201.8,-50.29 408.18,-89.64 617.79,-117.4 102.77,-13.55 206.57,-24.33 311.03,-31.98 192.78,-14.55 388.09,-19.62 585.8,-14.07 125.56,3.6 249.95,11.11 373,22.54 124.9,11.59 248.29,27.6 370.34,47.52 101.32,16 202.15,34.94 301.27,56.49 2586.03,563 4489.54,2900.4 4413.43,5643.24z"/>
   <path class="fil2" d="M12452.87 12242.77c-14.85,17.46 -29.67,35.09 -44.66,52.4 -17.95,20.74 -36.17,41.31 -54.57,61.72 -652.84,730.04 -1509.57,1271.81 -2477.72,1537.96 -480.84,132.42 -989.37,196.6 -1513.85,181.9 -432.63,-11.92 -851.11,-76.9 -1249.85,-188.43 -980.51,-273.97 -1840.6,-829.31 -2490.24,-1571.43 -37.1,-42.13 -73.12,-84.73 -108.52,-127.85 23.23,-4.25 46.62,-8.33 70,-12.25 62.85,-10.78 126.19,-19.59 187.35,-28.41l43.21 -6.03c5.11,-0.99 9.91,-1.63 14.54,-1.81 25.64,-39.19 53.92,-73.96 84.54,-104.17 43.74,-43.43 92.47,-77.24 145.71,-101.89l0.15 0c38.84,-17.8 80.17,-30.52 123.83,-38.37 12.4,-2.29 24.62,-4.57 37.16,-7.19l0.31 0 0.93 -0.16c38.55,-8 77.73,-17.46 118.91,-27.27 53.57,-12.57 108.82,-26.12 165.66,-36.41 82.99,-15.19 166.6,-28.41 247.59,-40.66 60.23,-9.63 120.31,-19.1 180.54,-29.23 111.11,-132.09 255.69,-180.1 356.16,-204.74l14.71 -4.08c2.93,-0.83 5.87,-1.49 8.81,-2.3 6.98,-1.63 14.1,-3.41 21.07,-5.06l0.15 0c48.6,-12.41 95.82,-24.82 140.56,-40.5 21.67,-7.51 42.72,-16 62.98,-25.31 7.28,-3.42 14.41,-6.85 21.53,-10.61 14.07,-7.02 27.84,-14.86 41.14,-23.35 6.04,-3.92 12.07,-7.67 18.11,-11.25 11.45,-7.2 23.2,-13.73 34.81,-20.1 23.51,-12.9 46.88,-24.33 70.25,-35.43 14.54,-7.02 28.93,-13.86 43.33,-20.41 13,-5.88 25.69,-11.76 38.37,-17.8 3.41,-1.78 6.97,-3.27 10.37,-5.06 1.08,-0.49 2.48,-1.15 4.18,-1.8 -3.49,-44.57 -7.61,-94.05 -11.9,-146.13l0 -0.17c-3.33,-41.47 -6.83,-84.25 -10.62,-128.18l0 -0.32c-3.18,-39.68 -6.66,-80.34 -10.15,-120.5 -0.78,-7.83 -2.97,-14.7 -4.05,-16.33 -22.08,-40.01 -44.61,-80.66 -67.45,-121.16l-0.17 -0.16c-21.76,-38.86 -43.98,-77.56 -66.21,-116.42l-42.58 -74.95c-78.33,-137.65 -132.67,-281.5 -174.42,-413.43l-0.16 -0.49c-11.22,-35.11 -21.2,-68.74 -30.87,-101.71 -55.66,-191.71 -61.76,-381.45 -60.61,-589.79l0 -0.17c-0.03,-12.57 0.1,-25.31 0.23,-38.21 0.3,-10.12 -8.9,-37.72 -15.14,-56.16 -2.8,-8.99 -5.6,-18.13 -8.4,-26.95 -6.24,-19.59 -13.1,-39.51 -20.1,-59.43l-0.15 -0.33c-3.12,-8.98 -6.23,-17.8 -9.5,-26.78 -5.62,-15.84 -11.22,-31.67 -16.82,-48 -8.88,-25.47 -17.46,-51.6 -25.41,-78.54 -12.31,-42.29 -21.37,-83.77 -29.98,-124.42 -3.75,-17.31 -7.49,-34.78 -11.39,-52.09 -1.88,-8.17 -3.76,-16 -5.78,-23.84 -12.5,-49.15 -25.61,-98.46 -38.86,-147.61l0 -0.32c-7.79,-28.9 -15.6,-57.64 -23.4,-86.05l-12.31 -45.07c-8.59,-31.52 -16.71,-61.71 -25.59,-91.27l0 -0.17c-3.74,-12.73 -7.64,-25.14 -11.84,-37.56 -4.69,-14.69 -12.31,-31.84 -20.23,-50.12 -16.03,-37.39 -34.39,-79.68 -43.94,-129.48l-0.48 -2.62 -0.31 -1.14c-10.78,-58.13 -20.5,-116.73 -29.59,-175.04l-0.17 -1.47c-8.93,-57.96 -17.26,-115.6 -25.26,-172.26l-5.19 -35.43 -7.53 -52.26c-2.68,-18.61 -3.64,-37.22 -3.2,-55.51 0.85,-34.29 7.14,-68.09 18.55,-99.44 11.71,-32.5 28.84,-62.7 50.93,-88.83 3.72,-4.41 7.57,-8.65 11.44,-12.73l1.24 -1.31c4.02,-4.08 8.2,-8 12.37,-11.92 12.68,-11.59 26.14,-22.04 40.52,-30.86 14.84,-9.47 30.47,-17.31 46.88,-23.84 14.86,-5.72 30.19,-10.45 45.98,-13.71 1.65,-24.99 -4.13,-56.34 -22.98,-102.38 -15.39,-37.56 -21.5,-74.3 -26.82,-103.53 -1.73,-10.44 -3.15,-21.22 -5.65,-31.35 -2.65,-10.94 -6.7,-23.83 -12.77,-40 -0.93,-1.63 -1.86,-3.43 -2.81,-5.06 -2.63,-4.9 -5.75,-10.45 -9.32,-17.47l0 -0.33c-14.93,-31.35 -32.84,-83.11 -8.33,-142.22 4.02,-9.79 7.25,-17.31 -25.85,-67.76l-2.17 -3.43 -0.62 -1.14c-15.38,-25.15 -24.26,-55.19 -26.19,-86.87 -1.42,-19.43 -2.24,-39.02 -3.05,-58.45 -1.45,-33.15 -2.91,-64.66 -8.07,-89.48 -12.19,-58.62 -21.66,-146.96 32.53,-242.32 3.23,-4.89 4.93,-9.3 6.48,-12.24 -9.18,-96.83 11.1,-181.57 28.77,-256.84 8.46,-34.46 15.98,-66.95 20.27,-97.32 1.37,-11.11 3.05,-22.04 4.73,-32.82 4.59,-28.25 10.1,-55.68 15.48,-82.46 4.29,-22.37 8.59,-44.58 12.26,-66.78 0.93,-5.23 1.06,-10.13 1.06,-14.36 1.21,-18.63 2.7,-44.1 10.55,-72.35 1.22,-4.24 2.46,-8.49 3.69,-12.73 6.78,-24.49 13.85,-49.32 20.92,-74.11 4.47,-15.7 8.93,-31.37 13.55,-47.21 16.92,-56.99 34.16,-116.08 49.23,-173.9 6.45,-25.31 16.75,-63.84 14.71,-77.23 -11.43,-65.31 -3.33,-123.28 25.67,-182.39 5.4,-11.43 11.27,-24.49 16.96,-37.23 2.94,-6.36 5.86,-13.06 8.95,-19.92l0.15 -0.32c14.5,-31.85 31.17,-66.46 53.1,-99.77 75.04,-115.11 153.68,-226.64 227.35,-330 12.99,-18.28 26.42,-36.08 39.86,-53.55l0.17 -0.16c16.99,-21.72 33.97,-43.28 50.83,-64.34 14.36,-17.47 28.42,-35.26 42.48,-53.23 10.21,-12.9 19.77,-26.61 29.51,-40.16 26.87,-37.56 57.16,-80.34 98.44,-117.41 16.54,-14.69 33.08,-29.06 49.64,-42.78l0.46 -0.32c9.89,-8.33 19.8,-16.17 29.7,-24.17 57.83,-46.05 114.44,-86.54 165.17,-121.64 73.64,-51.11 149.29,-97.16 222.31,-141.41l33.41 -20.57 6.19 -3.75c17.94,-11.6 42.38,-27.44 72.58,-38.52 15.62,-5.9 32.8,-10.47 51.4,-12.25 11.14,-8.84 25.67,-19.28 44.23,-28.58 3.42,-1.97 12.38,-8.16 19.33,-12.91 18.57,-13.06 41.77,-29.39 71.8,-42.45 52.77,-21.56 104.01,-37.72 153.55,-53.23l14.7 -4.74c17.8,-5.55 35.61,-11.59 53.72,-17.47 61.13,-19.92 124.6,-40.99 191.48,-55.68 7.9,-1.63 15.64,-3.27 23.38,-4.57l0.48 0c31.43,-5.23 61.31,-7.02 88.25,-8.49 28.82,-1.64 55.61,-3.11 72.94,-8.82 55.1,-17.64 112.09,-28.4 174.81,-32.82l0.16 0c34.06,-2.77 69.84,-3.43 107.79,-2.45 36.55,1.14 74.66,3.43 123.93,8.33 259.01,25.14 469.6,148.42 673.19,267.96l31.02 17.95c40.94,24.16 81.41,51.1 121.59,80.99l0.15 0.16 0.31 0.16c5.27,4.08 10.55,8 15.82,12.09 106.41,81.15 210.22,183.03 314.09,308.92 6.22,7.52 12.28,15.03 18.17,22.7l0 0.16c15.06,18.94 29.2,38.05 42.39,57.48 3.74,5.39 7.3,10.78 10.73,16.16l0.14 0c13.69,21.07 26.42,42.29 38.23,63.69 16.48,30.2 31.1,60.74 43.55,91.6 0.93,1.8 1.71,3.59 2.19,5.39 0.93,2.28 1.86,4.57 2.64,6.85 17.9,45.56 31.16,91.77 40.07,138.47 1.57,7.67 2.83,15.35 4.07,23.02 8.31,51.44 22.47,85.23 49.64,114.62 6.99,7.35 14.89,14.7 23.74,21.72 26.22,21.72 49.8,44.42 71.84,67.28l0 0.16c19.09,19.93 37.1,39.84 54.63,59.76 31.21,34.78 60.39,67.92 90.64,92.91 9.77,8.16 19.24,16.49 28.55,24.98 24.51,22.37 47.48,45.56 68.9,69.56 24.67,27.27 47.35,55.52 68.32,84.25 12.74,17.31 24.69,34.78 36.18,52.42 45.84,70.21 83.31,142.87 115.97,214.22 18.66,40.66 35.77,80.99 51.97,120.34 29.24,69.4 47.48,128.02 57.51,183.86 5.77,33.31 10.95,66.29 16.13,99.6 8,50.62 15.53,99.78 25.54,146.96 9.06,43.43 20.15,85.23 35.4,124.58 0.62,1.8 2.48,4.9 4.19,8 10.88,19.6 28.92,52.25 34.26,95.52 13.7,116.42 24.35,254.56 -0.79,394.66 -0.91,3.91 -0.6,8.82 -1.06,13.55 -1.35,21.23 -2.84,50.62 -13.92,83.44 -1.55,4.41 -2.93,8.98 -4.31,13.38 -7.55,22.38 -14.32,45.23 -20.63,68.91 -20.6,77.56 -35.01,161.98 -44.43,257.5 -0.45,2.77 -0.44,5.71 -0.91,8.82 9.45,1.3 18.76,3.1 27.9,5.71 13.95,3.27 27.27,8 40.29,13.39 36.44,15.51 69.16,38.7 96.48,67.6 6.37,6.86 12.57,13.88 18.32,21.39 16.46,20.9 30.44,44.25 41.18,69.4 10.42,24.16 17.9,49.79 22.14,76.74 2.19,13.39 3.46,27.1 3.79,41.14 0.65,20.58 0.85,40.83 0.9,61.07 0.06,38.7 -0.93,77.24 -1.95,114.63 -0.44,16.49 -0.71,32.98 -1.15,49.64 -0.41,22.04 -0.69,44.41 -0.79,66.78 -0.58,180.1 -30.98,325.58 -95,458.66 -11.57,24 -19.25,58.46 -27.07,95.52l-0.77 3.75c-5.99,26.78 -11.51,53.4 -17.04,80.18l0 0.16c-6.91,33.47 -13.65,67.13 -20.4,100.74 -8.29,40.83 -16.26,81.48 -24.87,122.63 -5.82,26.62 -12.59,51.44 -18.9,75.28 -8.77,31.67 -16.75,61.55 -19.5,86.53l0 0.49c-0.46,4.25 -0.75,8.66 -0.9,12.58 -0.58,22.53 -3.02,43.6 -6.55,63.35l-0.29 2.45c-3.38,18.78 -8.15,36.41 -13.85,53.23l-0.14 0.33c-20.49,61.23 -53.85,110.38 -88.47,152.67l-0.62 0.65c-0.15,2.12 -0.15,4.25 -0.29,6.21 -1.63,32 -3.14,63.84 -4.31,95.84 -0.3,6.53 -0.44,13.06 -0.74,19.59 -2.07,48.01 -4.15,97.49 -7.3,147.13l0 0.32c-1.21,20.41 -2.56,41.15 -4.22,61.56 -6.36,79.03 -16.22,183.69 -38.79,285.91l0 0.32 -0.76 3.43c-19.04,85.56 -45.69,167.04 -71.55,245.91l-15.09 46.37 -1.39 3.92 -0.46 1.63c-3.85,11.59 -7.7,23.03 -11.56,34.12l0 0.17c-11.71,34.29 -23.87,67.76 -36.5,100.42l-0.15 0.33c-40.55,105.64 -85.58,203.94 -136.05,296.52l-0.15 0.49c-16.98,31.18 -34.58,61.88 -52.8,91.76 -3.86,6.54 -7.88,13.07 -11.89,19.6 -5.71,8.98 -10.96,18.45 -15.43,27.92l0 0.16c-3.86,7.68 -7.25,15.51 -10.03,23.02l-0.45 1.15 -0.48 1.3 -0.6 1.8c-3.85,11.1 -6.78,22.21 -8.62,32.66 -6.89,38.71 -11.47,78.7 -15.56,120.5l0 0.16c-1.23,10.62 -2.13,21.23 -3.35,32.17l-0.29 3.92c-2.75,27.92 -5.47,55.68 -8.67,83.43l0 0.33c-1.23,11.27 -2.44,22.53 -3.81,33.96 -2.14,15.19 -6.42,46.05 -5.76,63.52 6.97,3.76 13.63,7.84 20.15,12.08 17.37,11.12 32.74,23.68 45.76,37.72 13.98,14.22 25.46,29.88 34.94,47.03 71.3,18.45 133.15,50.61 187.6,97.48l0.16 0c3.56,3.1 6.99,6.2 10.4,9.31 33.37,30.69 61.14,55.51 88.59,74.45 1.7,0.49 4.8,0.82 8.52,0.98 52.52,2.78 108.27,5.23 165.6,14.53l0.31 0.17c65.23,10.29 132.33,29.23 198.54,65.64 12.41,6.53 18.28,8.98 20.77,9.96 88.46,12.57 164.42,46.37 231.11,88.01 67.78,42.61 125.96,93.56 177.62,139.11 9.31,8.02 18.16,16.98 26.7,26.45 2.93,2.78 5.58,5.88 8.54,8.33 49,33.47 93.36,63.19 136.78,90.95 15.03,9.8 30.07,19.27 45.13,28.58 7.58,-0.82 14.86,-1.64 22.14,-2.62 51.71,-5.55 95.7,-12.08 136.26,-19.92 39.17,-7.67 77.88,-10.94 114.75,-9.96 24.48,0.82 48.48,3.43 71.73,7.84l0.15 0c51.45,9.47 99.96,27.92 145.09,55.68l0.46 0c41.41,25.16 80.04,57.47 115.9,97.48 3.41,3.76 13.19,13.55 42.94,27.28 53.18,25.14 106.37,48.99 159.84,72.81 20.46,9.15 40.92,18.12 61.71,27.61z"/>
   <path class="fil0" d="M12450.07 12082.74c-54.09,-24.17 -105.72,-46.86 -156.57,-70.54 -2.65,-1.63 -4.51,-2.77 -6.2,-3.26 -117.03,-125.89 -265.24,-194.64 -428.2,-199.21 -47.38,-1.3 -96.64,2.61 -146.02,12.08 -12.4,2.45 -25.08,4.74 -38.4,6.7l-0.17 0c-18.25,2.94 -37.45,5.72 -58.37,8.33 -35.82,-22.86 -72.42,-47.18 -112.27,-74.3l-0.17 -0.16c-3.41,-2.29 -6.82,-4.57 -10.24,-6.86 -7.9,-8.32 -19.4,-19.76 -33.21,-32.17 -106.88,-93.56 -251.65,-220.92 -460.81,-258.31 -135.98,-73.15 -270.45,-86.7 -383.69,-92.74 -14.27,-12.25 -29.32,-26.29 -43.76,-39.35l-1.24 -0.82c-60.66,-55.18 -128.44,-96.17 -204.83,-123.28 -12.43,-15.68 -25.93,-29.23 -39.13,-41.8 2.89,-25.31 5.63,-50.13 7.92,-74.3l0 -0.32c0.75,-8.16 1.52,-16.17 2.27,-24.33 1.66,-16.98 3.35,-33.8 5.01,-50.13 1.98,-17.63 3.97,-35.1 6.11,-51.76 1.98,-15.02 3.97,-29.7 6.42,-43.92 1.22,-5.55 5.99,-19.92 14.95,-33.97l1.39 -2.45c10.96,-17.46 21.46,-35.08 31.95,-52.9l0.17 -0.49c5.7,-9.79 11.41,-19.75 16.98,-29.71 4,-7.03 8.02,-14.21 12.04,-21.56l0.31 -0.65c31.33,-56.66 60.8,-115.61 88.4,-176.67l0.31 -0.82c13.73,-30.21 26.98,-60.9 39.79,-92.42l0.15 -0.16c26.82,-65.31 51.63,-133.23 74.88,-203.94 5.55,-16.33 10.32,-31.34 15.08,-46.86 27.11,-81.97 55.14,-167.2 75.72,-259.46 25.18,-112.67 35.95,-225.49 42.45,-310.89 3.49,-40.99 5.88,-81.97 7.82,-122.46l0 -0.17c0.59,-11.75 1.2,-23.51 1.64,-35.1 0.89,-17.47 1.48,-34.78 2.22,-51.93l0.15 -3.59c0.31,-6.37 0.43,-12.57 0.73,-18.78 0.75,-19.1 1.48,-37.71 2.53,-56.33 42.03,-57.8 81.38,-129.64 100.26,-220.27 6.75,-31.67 10.87,-65.64 11.72,-101.89 0.6,-10.61 9.22,-41.96 15.36,-64.82 2.78,-10.29 5.85,-21.06 8.77,-32.49 1.08,-4.08 2.16,-8.33 3.23,-12.41 3.07,-12.25 6.15,-25.15 8.9,-38.54 8.92,-41.63 17.2,-82.94 25.47,-124.09 12.14,-61.4 23.49,-119.36 36.38,-177.17l0.46 -1.62 0.77 -3.6c4.61,-21.39 11.51,-53.23 15.98,-63.68 65.56,-135.85 101.21,-287.05 108.16,-460.93 0.45,-9.49 0.74,-19.12 1.03,-28.76l0 -0.16c0.28,-9.96 0.43,-20.07 0.39,-30.21l0 -1.63c-0.01,-11.75 0.12,-23.68 0.25,-35.76l0 -0.16c0.13,-16.49 0.55,-32.99 0.98,-50.13l0 -0.15c-0.15,-3.93 0,-8.01 0.15,-11.93l0.42 -14.7c1.29,-58.78 3.02,-119.19 1.04,-182.71 -0.83,-28.25 -3.98,-55.68 -9.45,-82.46 -15.48,-74.45 -48.44,-142.05 -94.25,-197.9l-2.32 -2.61c-22.82,-27.43 -48.73,-52.09 -77.42,-73.15 -5.28,-3.92 -10.72,-7.67 -16.14,-11.43 -9.78,-6.37 -19.7,-12.57 -29.92,-18.12l-0.93 -0.66c-2.34,-1.14 -4.35,-2.45 -6.68,-3.59 2.92,-18.61 6.28,-36.58 9.66,-54.21l0.77 -4.08c9.19,-45.23 20.26,-87.69 33.21,-127.69 1.85,-5.88 3.69,-11.76 5.68,-17.47 17.72,-51.92 20.43,-97.65 21.77,-122.3l0 -3.43c4.74,-26.76 8.41,-53.88 10.99,-80.33l0 -2.29c11.84,-125.73 2.01,-244.6 -10.12,-347.63 -4.72,-39.02 -15.49,-72.33 -26.69,-98.78l-0.14 -0.49c-8.56,-20.25 -17.26,-36.25 -23.34,-47.36 -2.79,-7.83 -5.29,-15.67 -7.93,-23.67 -14.66,-47.68 -24.36,-101.07 -33.6,-157.25 -1.26,-7.67 -2.37,-15.34 -3.61,-23.34l-0.48 -2.62c-1.25,-8.81 -2.66,-17.47 -4.08,-26.45 -1.88,-11.43 -3.61,-23.02 -5.49,-34.62 -3.6,-22.37 -7.21,-44.9 -11.28,-67.43 -10.95,-60.41 -29.05,-121.81 -57.36,-192.35 -2.97,-7.51 -6.08,-15.35 -9.5,-23.18 -6.39,-15.35 -12.76,-30.87 -19.45,-46.38 -6.07,-13.71 -11.98,-27.91 -18.04,-41.8 -10.44,-23.17 -21,-46.37 -32.2,-69.55 -6.69,-14.05 -13.68,-28.09 -20.69,-41.97 -3.1,-6.37 -6.37,-12.57 -9.48,-18.78 -4.35,-8.16 -8.54,-16.33 -13.05,-24.49 -7.77,-14.69 -15.86,-29.23 -24.25,-43.76l0 -0.15c-9.94,-17.15 -20.36,-34.3 -31.09,-51.12 -8.37,-13.39 -16.77,-26.44 -25.62,-39.51l-0.31 -0.33c-2.95,-4.57 -6.22,-9.31 -9.48,-13.88 -10.1,-14.69 -20.5,-29.06 -31.37,-43.27 -31.06,-41.31 -65.36,-81.15 -103.23,-119.2 -6.06,-6.04 -12.26,-12.08 -18.63,-18.12 -16.75,-16.16 -34.13,-31.84 -52.43,-47.03 -8.54,-7.18 -17.54,-15.84 -26.85,-25.31l-0.16 -0.16c-15.67,-16 -32.13,-34.61 -49.36,-53.88 -35.85,-40.01 -76.06,-85.07 -125.4,-128.01l-0.14 -0.17c-1.87,-1.47 -3.58,-3.1 -5.59,-4.57 -3.72,-3.27 -7.45,-6.37 -11.17,-9.47 -13.34,-10.45 -17.37,-13.88 -22.4,-46.86l-0.15 -0.65c-0.63,-4.09 -1.25,-8.33 -2.2,-12.42 -1.4,-8.65 -2.97,-17.3 -4.85,-25.79 -3.59,-17.96 -7.81,-35.76 -12.64,-53.4 -1.73,-6.69 -3.59,-13.39 -5.47,-19.92 -2.65,-9.63 -5.45,-19.1 -8.72,-28.57 -1.57,-5.06 -3.28,-9.96 -5.14,-15.19 -9.5,-27.59 -20.25,-54.86 -32.38,-81.97 -7.63,-16.98 -15.71,-34.12 -24.27,-50.77 -1.38,-2.62 -2.64,-5.07 -4.03,-7.52 -3.12,-6.2 -6.38,-12.41 -9.94,-18.45 -7.32,-13.39 -14.93,-26.61 -23.01,-39.84 -29.21,-48.17 -62.91,-95.19 -101.1,-141.24 -49.07,-59.76 -98.58,-114.63 -148.71,-164.73 -110.8,-112.04 -223.74,-201.19 -341.58,-270.09l-30.86 -18.29c-207.47,-121.16 -441.93,-258.62 -731.94,-287.05 -53.29,-4.9 -94.65,-7.68 -134.62,-8.82 -122.68,-3.43 -226.74,9.47 -327.04,40.99 -7.9,1.3 -26.94,2.28 -41.03,3.1 -37.02,2.12 -83.49,4.89 -135.66,16.82 -73.23,15.67 -143.03,38.86 -204.81,59.1 -17.48,5.72 -34.83,11.44 -52.62,16.82l-14.1 4.41c-49.83,16 -106.49,33.64 -163.6,57.48l-3.09 1.3c-44.26,18.62 -76.74,41.48 -98.56,56.83 -2.31,1.95 -4.63,3.59 -7.57,5.38 -10.99,5.88 -21.2,12.09 -30.18,17.97 -26.32,6.2 -50.14,15.02 -71.04,24.49 -31.56,14.37 -56.32,30.04 -73.33,40.82l-5.59 3.59 -29.84 18.13c-27.24,16.65 -54.93,33.47 -82.63,50.61 -49.19,30.54 -99,62.38 -148.34,96.83 -73.17,50.78 -168.61,119.03 -258.59,199.53 -53.66,48.33 -90.74,100.09 -120.22,141.73 -4.8,6.53 -9.28,12.74 -13.46,18.94l-0.3 0.17c-3.86,5.87 -8.19,11.42 -11.75,16 -13.75,17.14 -27.33,34.45 -40.94,51.76 -17.45,21.55 -35.23,43.43 -53,66.13l-0.31 0.48c-14.2,18.29 -28.43,37.4 -42.63,57.32 -75.08,105.33 -154.47,217.98 -231.08,335.22 -32.88,50.12 -55.4,100.26 -72.98,140.58 -5.39,11.27 -10.18,22.54 -15.58,33.66 -30.86,63.66 -45.61,128.32 -44.55,195.94 0.2,17.13 1.47,34.92 3.82,52.56 -1.37,6.86 -3.83,16.33 -5.99,25l-0.46 1.12c-0.62,2.96 -1.53,5.72 -2.15,8.33l-0.62 2.29c-14.6,56 -30.77,111.35 -47.84,170.14 -13.23,45.39 -26.31,90.78 -38.91,136.34 -1.55,5.39 -2.93,10.78 -4.01,16 -4.3,17.96 -6.74,34.29 -8.42,48.82l0 0.33c-1.52,14.69 -2.27,27.1 -2.71,36.74l-0.47 2.45 0 0.16 -0.15 1.47c-3.22,19.27 -7.06,38.21 -10.73,57.64 -7.36,37.23 -15.64,79.84 -21.75,123.93 -2.9,22.7 -9.81,52.25 -17.19,83.27 -17.21,71.52 -37.8,158.06 -35.29,258.97 -14.64,30.37 -25.89,61.56 -33.73,93.56 -4.92,20.58 -8.28,41.31 -10.26,62.54 -2.43,26.63 -2.69,53.88 -0.62,82.13 0.64,7.19 1.28,14.54 2.21,21.72 1.89,17.63 4.88,35.76 8.62,54.21 2.99,14.69 4.28,42.45 5.26,67.27 0.96,18.61 1.78,39.84 3.36,62.05 0.31,2.94 0.47,6.04 0.95,8.98 1.27,16.02 3.77,32 7.53,47.35 7.65,34.62 20.88,67.6 39.05,96.99 -13.49,71.03 -0.32,145 39.93,220.59 2.02,6.05 3.43,11.11 4.37,15.19 0.62,2.45 2.5,12.74 3.76,20.41 2.49,15.67 5.79,34.78 10.79,56.35l0.17 0.31c2.95,13.06 6.54,26.61 11.07,40.82 -11,7.02 -21.66,14.53 -31.88,22.37 -1.84,1.31 -3.54,2.78 -5.4,4.09 -11.3,8.97 -22.11,18.44 -32.48,28.57 -10.21,9.8 -19.79,20.08 -28.75,30.69 -19.16,22.7 -35.84,47.2 -49.89,73.32l0 0c-8.18,15.18 -15.26,30.69 -21.58,46.53 -5.41,13.23 -10.03,26.95 -14.03,40.66l-0.77 2.78c-1.08,3.77 -2.15,7.51 -3.07,11.26 -10.15,39.52 -15.18,80.99 -14.17,122.79 -0.15,3.59 0.02,7.02 0.18,10.45l0 0.82c0.49,16.17 2.08,32.17 4.43,48.5 4.24,30.04 8.47,59.27 12.41,88.17 4.39,31.68 9.1,63.68 13.81,96.01 0.95,7.18 2.04,14.53 3.14,21.73l0.01 0.47c11.61,78.22 24.3,157.57 38.86,236.77 1.88,9.63 3.9,19.1 6.25,28.24 4.05,16.99 8.89,32.99 14.03,48.17 3.12,9.63 6.38,18.94 9.67,27.76 1.24,3.1 2.48,6.21 3.41,9.14 7.48,18.94 14.94,35.93 21.33,50.78 6.69,15.35 12.75,30.21 16.18,39.68 12,35.76 22.61,76.42 34.16,119.69l7.78 28.08 0.17 0.49 4.52 16.99c14.19,52.24 28.85,105.47 42.75,158.38 4.21,16.16 8.42,32.17 12.47,48.17 2.35,8 4.21,16.16 6.4,24.32 5.31,22.37 10.78,46.22 16.25,71.52 6.09,29.07 12.98,61.07 21.55,94.38l0.17 0.33c3.28,13.23 7.02,26.45 11.07,40 1.4,4.9 2.81,9.64 4.36,14.86 5.92,19.76 12.16,39.19 18.71,57.8 2.79,8.49 5.76,16.99 8.55,25.47l0.17 0.5c4.19,12.24 8.41,23.67 12.6,35.43 10.29,28.9 20.1,56 28.2,81.8 2.65,9.64 5.77,18.78 9.05,28.41 0.62,2.12 1.39,4.41 2.33,7.03 1.72,5.87 3.89,12.08 5.46,16.81 -0.27,31.19 -0.51,61.89 -0.45,92.26 0.48,85.56 2.65,168.83 9.77,250.96 7.45,84.58 20,167.86 40.77,252.6l0 0.33c3.28,13.88 6.86,27.92 10.76,41.8 1.57,5.89 3.29,11.59 5,17.47 44.43,151.86 101.77,328.2 193.49,500.95 8.25,15.51 16.64,31.02 25.49,46.54l42.89 75.6c39.94,70.21 81.14,142.56 120.77,213.57 4.11,47.37 8.08,94.72 11.88,140.91l0 0.17c3.81,46.04 7.61,90.95 10.94,133.4 -8.65,4.08 -17.48,8.33 -26.3,12.57 -7.43,3.61 -15.01,7.52 -22.75,11.43 -8.5,4.43 -17.01,8.82 -25.68,13.55 -16.4,8.66 -32.95,17.97 -49.51,28.42 -7.12,4.24 -14.38,8.49 -21.5,13.22 -11.61,7.35 -23.99,14.04 -36.98,20.41l-1.08 0.33c-14.87,7.19 -30.65,13.72 -47.05,19.59l-3.87 1.31 -0.16 0c-7.58,2.78 -15.17,5.39 -23.05,8 -42.57,14.05 -89.8,25.8 -140.58,38.7l-15.16 3.77c-14.1,3.41 -29.12,7.33 -44.6,11.74 -104.33,29.88 -235.88,83.44 -349.5,198.88 -42.12,7.02 -84.86,13.55 -129.45,20.41 -82.07,12.74 -166.6,25.96 -251.29,41.64 -60.72,11.1 -117.99,24.65 -173.1,38.04 -52.96,12.41 -102.18,24.17 -149.88,33.15 -100.01,17.8 -189.78,55.68 -268.98,113.64 -51.35,37.56 -98.18,83.6 -140.21,138.14 -61.32,8.33 -124.5,17.31 -187.82,28.25 -50.33,8.32 -100.03,17.47 -148.34,26.62 14.59,18.95 29.19,37.71 43.95,56.32 5.27,6.7 10.55,13.39 15.84,19.93 13.96,17.63 28.1,34.94 42.37,52.25 35.4,43.12 71.42,85.72 108.52,127.85 70.6,-11.43 141.68,-21.23 212.76,-31.52 34.68,-4.89 72.35,5.23 97.2,-36.88 64.36,-110.39 150.02,-187.63 276.06,-209.82 108.86,-19.77 215.67,-51.29 323.89,-71.21 147.41,-26.94 295.92,-47.02 443.47,-72.82 21.84,-3.76 47.05,-17.8 60.96,-36.09 75.86,-96.33 176.61,-140.09 288.39,-167.53 66.41,-16.82 132.83,-32.98 197.38,-55.68 4.01,-1.3 8.05,-2.77 12.06,-4.24 4.8,-1.8 9.44,-3.43 14.09,-5.39 6.96,-2.45 13.93,-5.22 20.74,-8 15.63,-6.53 31.11,-13.55 46.57,-21.23 5.73,-2.76 11.61,-5.71 17.49,-8.81l2.17 -1.31c7.26,-3.75 14.69,-7.84 21.98,-12.08 7.26,-4.25 14.53,-8.49 21.65,-13.21 6.64,-4.26 13.45,-8.35 20.26,-12.43 6.19,-3.76 12.38,-7.35 18.57,-10.78 23.67,-13.22 48.12,-25.14 72.72,-36.73 6.19,-2.94 12.54,-5.88 18.73,-8.98 5.57,-2.46 11.3,-5.07 16.87,-7.68 7.9,-3.59 15.79,-7.35 23.67,-10.94 9.92,-4.41 19.67,-9.14 29.41,-13.88 4.02,-1.96 8.82,-3.92 13.77,-5.22 5.27,-1.63 10.84,-2.45 15.8,-2.45 3.42,0.16 6.81,0.98 9.46,2.12 6.35,3.26 11.77,4.25 16.42,4.41 2.01,0 4.02,-0.16 5.73,-0.49l1.54 -0.49c12.7,-3.76 18.4,-18.12 21.47,-32.33 3.38,-16.98 4.59,-34.78 4.54,-52.41 -0.02,-9.64 -0.34,-19.11 -0.98,-28.42 -2.69,-34.61 -5.39,-68.9 -8.24,-103.52 -8.43,-107.11 -17.46,-214.71 -26.65,-321.83 -2.37,-24.33 -9.08,-50.27 -20.43,-71.68 -58.29,-105.31 -118.74,-210.31 -178.42,-315.79 -86.57,-151.52 -143.43,-317.09 -192.38,-484.93 -55.66,-190.73 -56.2,-387.98 -54.41,-585.88 0.38,-42.45 -17.37,-85.56 -29.99,-127.36 -16.05,-50.45 -35.04,-100.25 -52.17,-150.54 -6.71,-19.93 -13.24,-40.01 -19.17,-60.25 -18.87,-64.18 -29.54,-130.8 -46.08,-195.46 -7.49,-29.72 -15.13,-59.27 -23.09,-89.15 -5.3,-20.41 -10.77,-40.66 -16.23,-61.07 -9.35,-34.45 -18.71,-69.06 -28.23,-103.35 -14.97,-55.36 -29.03,-110.06 -47.09,-164.11 -18.55,-55.51 -49.62,-107.76 -60.1,-164.58 -26.93,-142.55 -45.64,-287.05 -66.51,-430.74 -4.86,-33.64 -0.75,-65.15 10.52,-91.93 21.27,-50.78 68.14,-85.24 127.77,-86.87 32.36,-0.81 54.48,-13.71 67.6,-45.72 35.3,-86.21 19.8,-167.85 -13.65,-250.47 -14.63,-34.78 -16.89,-75.6 -25.62,-113 -4.85,-20.08 -11.55,-39.67 -18.72,-58.61 -6.84,-20.09 -27.33,-44.58 -21.8,-57.64 33.01,-79.36 1.92,-141.57 -38.64,-203.29 -3.56,-5.39 -5.13,-13.55 -5.15,-20.73 -4.6,-56.34 -2.69,-114.14 -14.1,-168.35 -0.31,-1.8 -0.79,-3.76 -0.95,-5.39l-0.78 -4.08 0 -0.33c-8.61,-47.51 -6.21,-87.99 18.5,-130.95 15.43,-26.29 28.83,-61.23 25.22,-89.97 -10.87,-94.22 17.93,-180.59 36.97,-269.25 4.29,-19.76 8.28,-39.52 10.71,-59.76 8.1,-59.6 21.93,-118.22 32.19,-177.33 1.69,-10.12 2.13,-20.25 2.74,-30.86l0.14 -0.82c0.59,-13.55 1.34,-27.08 5.03,-39.84l8.31 -29.39c4.77,-17.15 9.7,-34.29 14.62,-51.43 7.23,-25.15 14.61,-50.46 22.01,-75.77 2.46,-8.49 4.91,-17.14 7.38,-25.63 2.92,-10.61 5.99,-21.06 8.91,-31.84 9.39,-31.84 18.16,-64.01 26.62,-96.34 9.99,-37.88 21.06,-78.7 19.76,-116.75l-0.17 -2.12c-0.16,-6.37 -0.63,-12.73 -1.73,-18.94l0 -0.65c-1.87,-9.96 -2.82,-19.11 -3,-27.93l0 -0.16c-0.36,-23.84 5.18,-44.41 15.82,-66.29 22.53,-47.03 41.64,-97.97 70.21,-141.4 72.12,-110.71 147.5,-218.31 224.11,-325.43 40.78,-57.31 86.21,-110.7 129.79,-166.05 36.46,-47.03 67.18,-100.26 110.17,-138.79 72.98,-64.99 151.4,-122.63 230.9,-177.82 45.18,-31.35 91.58,-61.07 138.15,-89.81 24.13,-14.86 48.41,-29.71 72.71,-44.41 12.38,-7.84 25.21,-15.18 37.44,-23.19 23.83,-14.36 51.5,-35.1 75.83,-34.45l2.32 0.66 5.42 0.16 2.17 -0.16 0.46 0c25.24,-0.33 40.87,-15.68 57.26,-29.4 6.48,-5.38 13.29,-10.61 21.03,-14.53 28.48,-14.37 53.05,-38.37 82.92,-51.11 32.51,-13.71 66.24,-24.98 100.16,-35.92 18.25,-5.88 36.36,-11.59 54.63,-17.14 77.25,-24.81 154.32,-52.74 232.97,-69.89 64.71,-14.36 134.6,-5.39 197.44,-25.31 78.33,-24.98 156.53,-30.86 235.07,-28.57 37.94,1 76.05,4.08 114.16,7.84 171.5,16.81 324.51,85.88 472.12,167.04l0.62 0.32c14.42,7.67 28.52,15.84 42.8,24 43.25,24.99 86.36,50.13 129.15,75.44 127.48,74.62 239.03,173.08 339.62,283.95l0.14 0.16c1.41,1.49 2.65,2.78 4.04,4.41 23.9,26.45 47.18,53.56 69.85,81.15l0.32 0.33c6.97,8.49 13.82,16.98 20.49,25.64 12.27,15.51 23.91,31.67 34.79,48l2.02 2.94c19.11,28.41 36.51,57.97 51.75,88.66l0.78 1.64c19.59,39.84 35.62,81.64 47.17,125.23l0 0.17c2.19,7.67 4.05,15.67 5.78,23.51 3.12,13.06 5.62,26.29 7.82,39.84 0.62,3.92 1.55,8 2.5,12.09 1.71,10.93 3.75,21.22 6.56,31.34 0.31,1.8 0.48,3.1 1.1,4.9 9.66,37.39 23.99,70.54 43.87,100.91 9.02,13.55 19.25,26.61 30.89,39.19 11.81,12.9 24.84,25.14 39.57,37.07l0.62 0.65c4.97,3.91 9.94,8 14.75,12.25 32.57,29.06 62.22,61.88 91.73,94.86 6.66,7.67 13.5,15.19 20.16,22.71 4.98,5.54 9.78,10.93 14.75,16.33 11.64,12.72 23.59,25.29 35.85,37.38l0.16 0.16c12.42,12.41 24.99,24 38.33,34.94 15.35,13.07 30.25,26.62 44.52,40.66 11.48,10.94 22.51,22.37 33.07,33.96 98.56,108.26 166.17,237.42 224.99,373.76l0.31 0.65c8.72,20.09 17.28,40.33 25.68,60.9 21,49.32 39.53,101.57 48.78,153.98 23.02,128.83 35.04,260.11 79.42,383.72 1.4,4.4 2.97,8.81 4.83,13.22 8.72,23.35 27.04,44.74 29.72,68.74 4.4,36.91 8.34,73.65 10.74,110.71 1.91,27.6 2.89,55.35 2.94,82.95 0.23,38.53 -1.7,76.91 -6.27,115.28l0 0.65c-1.84,14.37 -3.97,28.57 -6.58,42.94 -4.44,25.31 -1.45,52.25 -9.62,76.26 -4.62,13.71 -9.07,27.59 -13.24,41.31 -7.69,25.3 -14.76,50.61 -20.92,76.09 -31.97,129.15 -46.11,261.25 -52.2,394.83 -1.94,37.38 1.18,54.36 16.05,54.68 8.84,0.17 21.07,-4.73 39.01,-14.86 6.67,-3.59 13.14,-6.69 19.97,-8.65 6.33,-2.29 12.54,-3.92 18.73,-4.74 2.48,-0.49 4.8,-0.97 7.12,-1.14 5.11,-0.65 10.22,-0.8 15.49,-0.65 8.05,0.16 15.96,1.14 23.86,3.1 5.11,0.98 10.22,2.45 15.18,4.08l0.32 0.17c30.37,10.61 57.83,32.49 76.79,62.37 15.53,24.33 25.34,54.37 26.33,88.01 1.18,41.31 0.79,82.62 -0.21,124.26l0 2.61c-0.42,18.78 -1.01,37.74 -1.44,56.5 -0.56,25.47 -1.14,50.63 -1.25,75.93 -0.13,9.63 -0.26,19.1 -0.24,28.57 -0.25,40.33 -2.03,80.17 -6.13,119.36 -4.7,48.66 -12.98,96.33 -25.58,143.2 -3.55,13.06 -7.4,25.8 -11.71,38.86l-0.15 1.3c-4.31,13.56 -9.24,26.62 -14.49,40.17l-0.14 0.66 -1.39 3.75c-6.32,16.17 -13.42,32.33 -21.13,48.33 -1.7,3.43 -3.25,6.7 -4.63,10.29 -10.03,22.53 -17.25,46.86 -23.4,71.84 -2.31,9.8 -4.46,19.6 -6.6,29.4 -1.53,6.69 -3.07,13.71 -4.46,20.57 -3.38,14.86 -6.76,29.23 -9.66,44.09l-0.17 1.79c-16.57,77.56 -31.45,155.44 -47.4,233.49 -1.53,8.01 -3.53,16.33 -5.22,24.66 -6.14,30.04 -15.06,59.93 -22.91,89.81 -9.99,37.06 -18.6,74.13 -19.45,111.19 -0.29,8.82 -0.75,17.31 -1.81,25.31 -0.15,1.96 -0.3,4.08 -0.61,6.04l-0.16 0.98c-2.74,18.29 -7.05,35.27 -12.9,51.11 -0.62,1.8 -1.39,3.59 -2.17,5.39 -3.07,8.34 -6.78,16.66 -10.94,24.49 -0.62,1.8 -1.7,3.43 -2.46,5.23 -5.72,10.45 -11.89,20.73 -18.85,30.86l0 0c-11.43,16.65 -24.41,32.82 -38.16,48.82 -2.94,3.26 -5.57,7.02 -8.03,11.1 -3.71,6.22 -6.63,13.39 -8.78,20.57l-0.17 0.49c-1.84,6.37 -3.07,12.9 -3.36,18.94 -0.61,10.78 -1.21,21.4 -1.8,31.84l0 0.49c-5.53,104.84 -7.66,209.5 -16.13,313.52 -2.86,39.18 -6.5,78.37 -11.23,117.39 -6.1,51.6 -14.21,102.87 -25.41,152.83 -9.54,42.94 -21.37,85.23 -34.14,127.36 -4.48,14.37 -8.94,28.74 -13.56,42.95l-0.14 0.34c-11.56,36.23 -23.56,72.32 -35.27,108.56 -12.17,36.75 -24.79,73.32 -38.36,109.24l-0.31 0.98c-53,141.89 -117.64,278.24 -197.47,406.9 -25.93,41.33 -46.44,90.62 -55.03,138.95 -16.54,92.43 -20.54,187.45 -32.92,280.85 -1.97,15.35 -3.96,30.54 -5.17,45.56l-0.3 3.43c-4.54,56.99 1.46,109.4 49.84,145.65l2.48 1.79c2.17,1.47 4.34,2.94 6.52,4.08l3.72 2.62c3.1,1.79 6.51,3.59 9.92,5.55 5.28,2.61 10.08,5.39 14.42,8.49 1.86,1.14 3.58,2.45 5.27,3.75 18,13.56 28.88,30.21 34.49,50.3 1.57,5.39 2.81,11.1 3.59,16.98l0.17 3.1c1.56,10.45 2.05,21.72 1.76,33.8 -0.13,6.71 -0.27,13.55 -0.42,20.25 -0.28,11.43 -0.72,23.34 -1.16,34.78l-0.17 2.94 0.02 0.32 0 0.66c-0.6,14.69 -1.34,29.4 -2.25,44.1 -15.47,250.63 -69.82,493.26 -140.3,733.12 -53.86,182.39 -98.26,369.04 -195.38,533.12 -2.92,4.74 -5.7,9.47 -8.64,14.21l0 0.16c-154.86,256.52 -358.01,448.05 -621.75,547.32l-0.47 0.17c-43.95,16.49 -89.46,30.53 -136.83,41.96 -36.38,8.66 -72.92,16.65 -109.47,24.17 -216.76,43.76 -435.73,64.66 -655.67,58.45 -71.42,-1.8 -143.14,-6.69 -214.87,-14.37 -62.28,-7.02 -123.49,-18.1 -182.84,-34.12 -139.15,-37.05 -268.91,-100.59 -384.35,-200.68 -353.74,-305.81 -617.31,-680.4 -770.29,-1138.9 -21.34,-64.17 -39.91,-129.32 -59.7,-193.98 -4.57,39.52 -1.55,78.05 6.25,114.79 52.37,247.7 155.19,471.89 292.66,678.12 119.93,180.09 261.04,340.77 416.04,486.9 125.7,118.22 263.12,215.07 418.27,274.16 52.23,19.75 106.64,35.27 163.04,46.04 109.54,21.07 221.7,31.84 332.33,48.66 18.12,2.78 36.24,6.04 54.22,9.49l0.31 0 0.31 0 0.31 0 0.46 0.14c13.49,2.62 27.43,5.57 40.92,8.17 33.14,6.37 66.31,11.75 99.46,13.23l59.33 1.79c97.12,2.61 194.22,2.61 290.56,-4.9 127.61,-9.79 252.7,-34.45 373.6,-79.03 33.89,-12.4 67.48,-26.45 100.74,-42.29 169.15,-79.84 312.82,-195.45 434.12,-342.4 106.15,-128.01 196.5,-268.77 236.29,-435.15 23.35,-98.79 45.93,-197.73 67.89,-296.85l0.15 -0.32c35.48,-160.35 69.23,-320.85 100.82,-481.85 0.77,-4.25 1.7,-8.48 2.47,-12.74 17.47,-96.99 19.14,-197.73 26.06,-297.17 3.61,-58.13 3.04,-117.08 4.31,-176.68 75.14,12.09 129.56,39.52 176.89,82.15 35.38,32.81 71.22,65.31 110.45,91.91 21.72,13.72 50.23,19.92 75.95,21.23 104.24,4.9 207.25,9.8 302.3,62.39 21.39,11.74 44.35,22.52 67.58,26.11 136.04,18.29 236.26,104.83 336.02,192.84 15.97,14.04 29.64,32 46.56,44.08 66.99,45.4 134.61,90.62 203.77,132.93 13.96,8.48 33.16,14.03 50.36,14.52 3.41,0.18 6.82,0 9.91,-0.33 63.19,-6.03 125.91,-13.71 188.3,-25.96 28.66,-5.23 56.53,-7.84 83.16,-7.18 87.21,2.44 163.02,39.19 229.77,113.15 23.59,26.63 57.09,46.7 89.02,61.72 60.77,28.58 122.31,55.68 183.86,83.11 18.4,-20.41 36.62,-40.98 54.57,-61.72 14.99,-17.31 29.81,-34.94 44.66,-52.4l0.14 0c5.57,-6.71 11.28,-13.4 16.85,-20.26 18.24,-21.72 36.15,-43.42 53.77,-65.46 8.35,-10.14 16.38,-20.26 24.41,-30.39 -33.01,-14.85 -65.72,-29.55 -97.97,-43.92z"/>
   <path class="fil3" d="M8794.13 5660.33c-1.66,0.33 -2.92,1.14 -3.75,1.14l2.95 -1.63 0.8 0.49z"/>
   <path class="fil4" d="M8794.13 5660.33c-1.66,0.33 -2.92,1.14 -3.75,1.14l2.95 -1.63 0.8 0.49z"/>
   <path class="fil5" d="M8794.13 5660.33c-1.66,0.33 -2.92,1.14 -3.75,1.14l2.95 -1.63 0.8 0.49z"/>
   <path class="fil6" d="M7734.69 8462.43l-3.31 -0.49c1.09,-14.04 2.2,-7.02 3.31,0.49z"/>
   <path class="fil6" d="M8794.13 5660.33c-1.66,0.33 -2.92,1.14 -3.75,1.14l2.95 -1.63 0.8 0.49z"/>
   <path class="fil6" d="M8794.13 5660.33c-1.66,0.33 -2.92,1.14 -3.75,1.14l2.95 -1.63 0.8 0.49z"/>
   <path class="fil6" d="M7734.69 8462.43l-3.31 -0.49c1.09,-14.04 2.2,-7.02 3.31,0.49z"/>
   <path class="fil6" d="M7734.69 8462.43l-3.31 -0.49c1.09,-14.04 2.2,-7.02 3.31,0.49z"/>
   <path class="fil6" d="M8794.13 5660.33c-1.66,0.33 -2.92,1.14 -3.75,1.14l2.95 -1.63 0.8 0.49z"/>
   <path class="fil6" d="M8794.13 5660.33c-1.66,0.33 -2.92,1.14 -3.75,1.14l2.95 -1.63 0.8 0.49z"/>
   <path class="fil6" d="M7734.69 8462.43l-3.31 -0.49c1.09,-14.04 2.2,-7.02 3.31,0.49z"/>
   <path class="fil6" d="M8794.13 5660.33c-1.66,0.33 -2.92,1.14 -3.75,1.14l2.95 -1.63 0.8 0.49z"/>
   <path class="fil6" d="M7734.69 8462.43l-3.31 -0.49c1.09,-14.04 2.2,-7.02 3.31,0.49z"/>
   <path class="fil6" d="M7734.69 8462.43l-3.31 -0.49c1.09,-14.04 2.2,-7.02 3.31,0.49z"/>
   <path class="fil6" d="M8794.13 5660.33c-1.66,0.33 -2.92,1.14 -3.75,1.14l2.95 -1.63 0.8 0.49z"/>
   <path class="fil6" d="M8794.13 5660.33c-1.66,0.33 -2.92,1.14 -3.75,1.14l2.95 -1.63 0.8 0.49z"/>
   <path class="fil6" d="M7734.69 8462.43l-3.31 -0.49c1.09,-14.04 2.2,-7.02 3.31,0.49z"/>
   <path class="fil6" d="M8794.13 5660.33c-1.66,0.33 -2.92,1.14 -3.75,1.14l2.95 -1.63 0.8 0.49z"/>
   <path class="fil6" d="M8794.13 5660.33c-1.66,0.33 -2.92,1.14 -3.75,1.14l2.95 -1.63 0.8 0.49z"/>
   <path class="fil5" d="M8794.13 5660.33c-1.66,0.33 -2.92,1.14 -3.75,1.14l2.95 -1.63 0.8 0.49z"/>
   <path class="fil7" d="M9847.78 5096.84c-14.41,-3.43 -28.81,-7.02 -43.23,-10.45 -15.65,-3.75 -31.45,-7.51 -47.26,-11.1l-2.79 3.76c18,7.34 36.28,13.55 55.65,17.79 12.39,2.61 25.4,4.25 38.73,4.9 6.19,0 12.54,0.17 19.05,-0.32 -6.82,-1.48 -13.49,-2.94 -20.15,-4.58z"/>
   <path class="fil1" d="M12469.86 12222.51c-5.57,6.86 -11.28,13.55 -16.85,20.26l-0.14 0c-14.85,17.46 -29.67,35.09 -44.66,52.4 -17.95,20.74 -36.17,41.31 -54.57,61.72 -652.84,730.04 -1509.57,1271.81 -2477.72,1537.96 -480.84,132.42 -989.37,196.6 -1513.85,181.9 -432.63,-11.92 -851.11,-76.9 -1249.85,-188.43 -980.51,-273.97 -1840.6,-829.31 -2490.24,-1571.43 -37.1,-42.13 -73.12,-84.73 -108.52,-127.85 -14.27,-17.31 -28.41,-34.62 -42.37,-52.25 -5.29,-6.54 -10.57,-13.23 -15.84,-19.93 131.48,-88.49 449.06,-136.5 552.01,-167.2 17.18,-5.06 34.36,-10.12 51.55,-15.18l0.15 0c53.55,-15.51 107.27,-30.7 160.99,-45.56l0.31 0 0.93 -0.16c122.76,-34.29 245.85,-68.09 366.58,-107.93 197.66,-65.31 496.57,-236.27 725.8,-236.76 5.59,0 11.16,0.16 16.74,0.49 74.19,2.45 140.38,24.33 192.67,75.11 3.73,3.43 7.45,7.35 11.17,11.43 12.1,13.24 23.45,28.58 33.85,45.56 145.44,238.23 79.98,670.93 218.83,951.28 143.38,289.34 361.17,543.24 633.35,718.28l2.17 1.47c17.37,11.27 35.04,22.05 52.87,32.5 94.29,55.51 193.65,101.23 296.57,137.15 202.11,70.87 417.32,104.34 632.15,101.24 218.23,-3.1 436.08,-43.93 639.61,-121.49 164.36,-62.35 319.25,-148.75 457.5,-258.64 260.9,-207.2 454.11,-491.64 564.88,-805.47l0.15 -0.32c56.23,-159.37 91.37,-326.41 103.29,-494.59 8.13,-114.46 5.44,-229.25 -8.41,-343.05l0 -0.99c-0.47,-4.73 -1.11,-8 -1.58,-12.55 -2.35,-17.17 -4.87,-34.14 -7.68,-51.12l0 -0.17c-6.27,-39.19 -13.94,-78.38 -23.15,-117.07 -2.5,-11.25 -5.31,-22.37 -8.28,-33.64 -0.62,-2.94 -1.41,-6.04 -2.19,-8.98 -3.74,-14.69 -7.79,-29.23 -12,-43.59 -1.57,-5.23 -3.12,-10.46 -4.83,-15.68 -0.78,-2.78 -1.72,-5.56 -2.5,-8.17 -0.47,-1.95 -1.09,-3.75 -1.71,-5.87l3.56 1.3 3.57 1.32c3.71,1.46 7.59,2.76 11.32,4.24 13.32,4.73 26.64,9.47 39.99,14.36l3.41 1.31c20.29,7.35 40.61,14.86 60.9,22.04 81.22,29.56 162.13,58.95 243.34,88.34l0.16 0c90.99,33.14 181.97,66.29 273.11,99.27l0.31 0.17c150.04,54.37 300.23,109.09 450.42,163.61 246.61,89.48 493.05,179.28 739.65,268.76l0.15 0c3.42,1.14 6.83,2.45 10.24,3.59 43.71,16.02 88.81,33.15 134.85,52.09l0.46 0c132.85,54.7 272.06,122.13 397.38,204.92z"/>
   <path class="fil0" d="M6370.89 11441.36c-14.62,95.36 -21.69,191.21 -21.69,286.73 0.15,372.94 106.97,740.49 295.43,1059.38 188.59,318.73 459.76,589.78 793.1,764.49 288.13,151.04 611.49,228.76 935.38,228.92 191.25,0 382.82,-27.27 567.23,-83.44 248.6,-75.76 479.35,-203.12 677.15,-369.34 197.74,-166.39 362.78,-372.12 478.26,-606.09 95.6,-193.83 154.59,-397.59 189.75,-603.35 35.15,-205.74 46.68,-413.59 46.7,-617.86 0,-88.83 -2.19,-177.16 -5.67,-264.19l-340.48 13.55c3.33,83.6 5.39,167.37 5.39,250.64 0.03,191.37 -10.99,380.3 -41.82,560.55 -30.83,180.27 -81.28,351.39 -159.46,509.93 -93.33,189.25 -228.71,358.74 -392.03,496.07 -163.26,137.31 -354.24,242.3 -557.1,304.18 -150.78,45.88 -309.03,68.58 -467.92,68.58 -269.09,0 -539.68,-65.31 -777.19,-189.9 -271.79,-142.21 -499.24,-367.71 -658,-636.15 -158.87,-268.43 -248.11,-578.67 -247.96,-885.97 0,-78.7 5.82,-157.41 17.75,-235.13l-336.82 -51.6z"/>
   <path class="fil0" d="M6116.8 6206.19c-132.01,457.51 -164.83,947.04 -92.07,1416.48l0.01 0 0.15 0.16c1.88,12.08 3.77,24 5.8,36.09 1.09,6.04 1.73,12.08 2.36,18.12 0.15,1.63 0.31,3.1 0.31,4.73l0 0.17c3.83,54.7 -11.39,109.24 -43.07,154.14l0 0.16c-3.54,5.06 -7.41,10.14 -11.43,14.86 -8.49,10.45 -17.93,19.92 -27.97,28.25 -6.97,6.36 -14.24,11.93 -21.82,17.14 5.15,13.72 10.13,27.76 15.11,41.48 2.81,7.67 5.6,15.51 8.26,23.02l0.15 0.33c2.96,8.32 6.07,16.82 8.88,25.14l0.15 0.16 0 0.17 0 0.33c56.07,160.17 104.25,323.13 144.37,488.05l0 0.16c14.06,57.31 27.03,114.46 39.06,172.1l0 0.16c23.6,112.18 43.34,225.34 59.5,338.82l0.02 0.16c48.2,337.34 63.87,679.09 46.09,1018.23l0 0.65c-1.19,20.9 -2.38,41.81 -3.74,62.54l0 0.33c-0.77,10.12 -1.35,20.25 -2.12,30.37l-0.15 2.94c-8.49,96.03 12.77,195.28 45.51,298.32 5.6,17.96 11.68,36.08 17.91,54.37l0 0.16c13.08,37.56 27.25,75.76 41.42,114.46 14.8,39.85 30.05,81.15 44.23,122.46 28.65,83.28 49.57,162.96 62.73,238.24l0.14 0.16c0.95,5.88 1.88,11.92 2.83,17.63 1.26,7.84 2.51,15.51 3.45,23.37l0 0.15c9.89,70.7 12.66,138.13 8.14,201.49l0 0.16c-2.72,40 -8.38,78.7 -16.98,115.61 -5.52,24.49 -12.44,48.34 -20.61,71.35l-0.16 0c-3.54,10.77 -7.54,21.23 -11.87,31.69l0 0.15c-16.18,39.04 -36.08,75.92 -59.71,110.87 -8.66,12.74 -17.62,24.98 -26.89,36.74l-0.15 0c-1.24,1.79 -2.79,3.75 -4.33,5.55 -154.68,191.86 -395.7,260.27 -630.57,313.66l-786.64 178.15 -442.01 100.42c-5.29,-6.54 -10.57,-13.23 -15.84,-19.93 -14.76,-18.61 -29.36,-37.37 -43.95,-56.32 -18.47,-24.01 -36.64,-48.17 -54.65,-72.67 -26.1,-35.1 -51.72,-70.54 -76.88,-106.3 -10.25,-14.53 -20.51,-29.22 -30.6,-43.92l1375.27 -311.87c192.76,-43.59 372.64,-92.91 455.26,-214.71 73.53,-108.43 70.72,-279.55 -8.1,-508.47 -13.08,-38.04 -26.94,-75.76 -41.73,-115.93 -67.57,-182.86 -144.03,-390.25 -124.78,-613.29 51.11,-727.26 -63.1,-1470.36 -330.35,-2149.62 -28.64,-72.66 -19.81,-154.94 23.43,-220.1 21.47,-32.17 50.08,-58.13 82.88,-76.59 -92.66,-657.04 0.96,-1347.41 266.51,-1953.67 142.64,-325.43 335.51,-629.62 568.09,-900.19l0.31 -0.48c190.86,-222.07 408.41,-421.6 646.6,-591.09 60.34,-43.1 122.21,-84.25 185.17,-123.28l6.22 10.13 77.38 124.44 24.7 39.82 39.92 64.17 17.41 28.09 14.14 22.86c-467.36,289.82 -860.14,703.58 -1129.18,1184.12l0 0.16c-50.78,90.3 -97.07,183.21 -138.55,278.08 -8.49,19.26 -16.65,38.69 -24.52,57.96 -10.63,25.31 -20.81,50.62 -30.52,76.09 -32.98,85.72 -62.24,173.08 -87.78,261.42l-0.15 0.49z"/>
   <path class="fil0" d="M12613.77 12018.26c-12.28,16.33 -24.55,32.48 -36.97,48.81 -15.66,20.24 -31.47,40.49 -47.42,60.57 -7.97,9.96 -15.96,20.09 -24.25,30.05 -17.49,22.04 -35.28,43.76 -53.39,65.31 -5.52,6.86 -11.2,13.39 -16.72,20.08l-0.16 0c-14.73,17.48 -29.46,34.95 -44.35,52.09l-798.55 -309.42 -66.8 -25.96 -1341.73 -519.73 -24.02 -9.47 -3.54 -1.31 -29.09 -11.43 -22.79 -8.65 -26.01 -10.13 2.3 -8.49 8.25 -31.51 11.14 -42.62 2.9 -11.26 9.16 -34.78 0 -0.33 50.23 -191.53 0 0 50.24 -191.86 140.76 -537.69 0.15 -0.49 30.7 -117.23 127.64 -487.08 0 -0.33 33.75 -128.99 111.14 -424.53 112.68 -430.58 0 -0.16 58.02 -221.25 0 -0.33 142.15 -542.59 33.13 -126.38c16.18,-62.05 40.76,-155.93 19.14,-204.26l-3.69 4.24 -50.17 61.39 -49.56 60.75 -61.07 74.61 -29.31 35.93 -23.48 28.73 -31.45 38.39 -61.54 75.26 -16.26 19.92 -62.6 76.58 43.06 -238.56 22.53 -125.23 11.7 -65.14 0 -0.34 15.53 -85.38 23.14 -128.52c0.92,-4.74 1.67,-9.47 2.43,-14.04 10.34,-59.11 18.68,-118.55 25.03,-177.98 5.9,-53.72 10.09,-107.44 12.77,-161.15 25,-511.25 -88.74,-1030.82 -318.64,-1490.13 -60.06,-120.01 -127.97,-235.78 -203.55,-346.16l-0.15 -0.33c-14.19,-20.72 -28.69,-41.31 -43.34,-61.72l-0.16 -0.16c-86.19,-119.69 -181.78,-232.52 -285.65,-336.86 -2.31,-2.28 -4.47,-4.57 -6.77,-6.69 -22.67,-22.7 -45.62,-44.9 -69.04,-66.62l27.78 -29.88 23.95 -25.96 2.59 -2.94 66.17 -71.52 9.52 -10.12 100.07 -108.09c391.53,363.79 691.28,834.37 866.71,1360.96 150.99,452.62 203.58,927.45 155.1,1386.11 95.26,31.18 176.92,102.05 217.09,191.85 70.44,157.41 27.68,320.85 -0.56,428.95l-847.7 3237.41 2131.83 825.9z"/>
   <path class="fil2" d="M5814.75 7121.72c-158.98,1402.76 264.68,2798.5 683.2,4145.26 223.94,720.4 520.65,1525.22 1209.36,1817.17 653.03,277.11 1439.35,-49.63 1893.02,-599.9 453.66,-550.42 639.41,-1274.24 759.53,-1980.13 164.03,-964.18 229.74,-1945.19 195.75,-2922.76 -28.37,-816.09 -134.56,-1656.18 -540.85,-2361.56 -1502.27,-2608.29 -3964.82,-173.41 -4200.01,1901.92z"/>
   <path class="fil8" d="M7842.67 6583.37c2.24,4.57 4.46,8.98 6.68,13.55 -2.84,0.49 -7.22,2.45 -8.25,1.31 -3.31,-3.59 -5.42,-8.49 -8,-12.74 2.83,-0.65 5.65,-1.3 9.57,-2.12z"/>
   <path class="fil8" d="M8111.19 5898.73c18.58,11.91 37.16,23.67 55.74,35.59l-0.7 0.66c-18.55,-11.93 -37.1,-23.68 -55.64,-35.6l0.6 -0.65z"/>
   <polygon class="fil8" points="7758.07,6510.22 7755.83,6514.14 7753.44,6509.73 "/>
   <path class="fil8" d="M8300.27 6029.68c-3.59,-2.78 -7.18,-5.39 -10.78,-8.17 3.71,2.62 7.42,5.23 11.12,7.68l-0.34 0.49z"/>
   <polygon class="fil8" points="9776.87,9415.19 9776.15,9414.37 "/>
   <path class="fil8" d="M7836.51 9645.58c3.55,3.76 7.08,7.51 10.6,11.26l-0.73 0.17c-3.38,-3.43 -6.78,-7.02 -10.18,-10.44l0.31 -0.99z"/>
   <polygon class="fil2" points="9889.58,5743.77 9889.76,5743.61 "/>
   <polygon class="fil2" points="7431.87,6164.88 7432.55,6164.23 "/>
   <path class="fil2" d="M7343.56 9222.84c-7.18,-25.29 -14.37,-50.62 -21.55,-75.93 11.74,0.98 31.35,-1.95 33.91,3.43 14.98,31.19 31.71,63.68 35.53,97.16 1.59,13.88 -27.39,31.18 -42.48,47.02 -1.08,-23.18 -2.14,-46.37 -3.2,-69.56l-2.21 -2.12z"/>
   <path class="fil2" d="M7263.18 9025.11c25.45,5.22 50.91,10.44 76.35,15.67l-0.8 1.65c-25.56,-5.24 -51.11,-10.47 -76.64,-15.86l1.09 -1.46z"/>
   <path class="fil2" d="M7777.11 9700.28c4.49,-4.72 9,-9.63 13.5,-14.37l2.6 2.78c-5.16,4.08 -10.3,8.16 -15.46,12.41l-0.64 -0.82z"/>
   <path class="fil2" d="M7696.19 9754.65c5.06,-4.24 10.14,-8.49 15.22,-12.73l2.33 2.93c-5.5,3.78 -11,7.35 -16.49,11.11l-1.06 -1.31z"/>
   <path class="fil2" d="M6779.06 9150.18c8.42,-11.76 16.85,-23.35 25.26,-35.11l1.03 1.15c-8.46,11.59 -16.92,23.34 -25.36,34.94l-0.93 -0.98z"/>
   <path class="fil2" d="M7777.75 9701.1c-7.58,3.59 -15.17,7.18 -22.75,10.79l-0.75 -0.83c7.63,-3.59 15.24,-7.19 22.86,-10.78l0.64 0.82z"/>
   <polygon class="fil2" points="6826.92,9093.85 6827.87,9094.82 "/>
   <path class="fil2" d="M6827.87 9094.82c-4.02,3.76 -8.04,7.68 -12.05,11.44l-1.06 -0.98c4.06,-3.92 8.11,-7.68 12.16,-11.43l0.95 0.97z"/>
   <path class="fil2" d="M6815.82 9106.26c-3.5,3.43 -6.99,6.69 -10.47,9.96l-1.03 -1.15c3.5,-3.25 6.97,-6.53 10.45,-9.79l1.05 0.98z"/>
   <path class="fil2" d="M6768.53 9160.14c3.51,-3.27 7.04,-6.7 10.53,-9.96l0.93 0.98c-3.53,3.27 -7.03,6.7 -10.56,9.96l-0.9 -0.98z"/>
   <polygon class="fil2" points="6769.43,9161.12 6768.51,9160.14 "/>
   <polygon class="fil2" points="7755,9711.89 7754.25,9711.06 "/>
   <polygon class="fil2" points="8007.24,11276.28 8006.28,11277.26 "/>
   <polygon class="fil2" points="6794.65,9070.82 6793.72,9069.84 "/>
   <path class="fil2" d="M10917.58 7542.66c110.15,14.04 190.58,62.21 222.54,112.83 31.95,50.62 23.74,103.68 12.13,155.28 -73.8,327.38 -274.27,645.95 -589.27,936.26 -153.22,-155.44 -48.12,-330.48 36.8,-491.64 94.71,-179.78 21,-291.14 -54.63,-463.07 -46.03,-104.67 45.47,-291.46 372.43,-249.66z"/>
   <path class="fil0" d="M6006.93 10012.64c0.45,-13.72 1.13,-27.43 2.27,-41.48l-2.27 41.48zm198.72 292.28c30.67,250.63 101.85,500.97 223.01,722.52 -85.63,-225.82 -160.35,-467.64 -223.01,-722.52zm4520.88 -885.49c-0.24,4.08 -0.69,8.49 -1.38,12.58 0.46,-4.25 1.14,-8.5 1.58,-12.74l-0.2 0.16zm-148.09 129l0.23 -0.33c1.15,-8.82 2.5,-17.8 3.41,-26.78 -1.14,8.98 -2.26,18.13 -3.64,27.11z"/>
   <path class="fil0" d="M6888.3 9419.6c-100.05,-43.44 -215.62,-28.42 -325.65,-20.09 18.84,-78.05 67.66,-128.01 124.66,-180.26 74.49,-68.25 136.72,24 208.02,-4.08 -25.16,-21.88 -74.7,-63.19 -73.8,-87.53 14.37,-66.45 149.24,-158.38 147.84,-30.85 4.11,310.4 497.44,283.29 434.22,-36.74 214.35,204.75 138,220.43 -99.02,285.42 129.91,6.37 250.95,12.41 371.99,18.28 0.92,5.72 1.59,11.76 2.5,17.49 -265.17,61.38 -535.21,211.43 -790.76,38.36zm148.75 -344.7c17.94,2.62 36.33,5.56 56.31,8.5 14.32,50.94 29.53,105.64 44.97,160.83 -73.8,-26.78 -109.9,-88.66 -101.28,-169.33zm249.14 -5.22c19.07,27.11 38.37,54.39 57.44,81.64 -8.16,4.25 -16.35,8.82 -24.53,13.23 -16.8,-27.44 -33.6,-55.03 -50.63,-82.46 5.89,-4.08 11.81,-8.33 17.72,-12.41zm2072.73 -3775.26c-9.08,2.93 -17.93,5.87 -24.99,8.16 79.49,138.3 157.62,274.17 235.51,409.84 -4.77,2.94 -9.31,5.72 -14.08,8.65 -273.89,-454.74 -599.51,-859.03 -1142.31,-969.24 273.2,-56.34 822.78,266.64 945.87,542.59zm141.25 -40.34c-229.13,-291.94 -537.09,-465.17 -894.77,-595.98 281.61,-12.07 803.94,339.96 894.77,595.98zm247.33 43.44c-213.02,-339.79 -532.57,-523.32 -860.95,-696.24 307.73,42.45 798.95,436.13 860.95,696.24zm1224.52 3554.18c-125.4,43.1 -187.27,334.73 -264.37,449.84 -212.56,314.81 -242.54,683.34 -286.09,1051.05 -153.83,749.8 -616.22,1346.76 -1073.08,1933.44 -289.56,356.79 -658.14,561.04 -1126.88,539.81 -330.52,-36.07 -528.88,-312.52 -578.17,-624.07 -10.92,-18.77 12.69,-69.21 34.5,-91.44 91.1,-25.12 198.39,59.28 290.24,75.93 183.38,16.5 582.81,71.52 667.89,-133.4 -228.1,-30.37 -442.48,22.69 -647.69,-51.11 -37.69,-22.86 -83.11,-45.88 -124.9,-45.39 -125.56,12.57 -199.59,-77.72 -294.77,-139.28 -32.48,-16.82 -69.72,-24.66 -56.78,-75.44 12.48,-49.47 36.79,-87.03 93.34,-78.37 1057.09,396.77 1322.82,-274.64 1787.27,103.68 162.68,100.58 87.28,-92.75 23.83,-157.57 -77.87,-92.91 -330.19,-137.81 -439.2,-83.6 -59.42,53.07 1.5,97.15 -133.31,113.48 -151.25,20.25 -303.39,32.17 -447.6,92.91 -167.5,16.33 -285.17,-209.16 -465.11,-170.63 -181.48,18.13 -353.79,-42.45 -513.69,-108.58 74.72,-51.44 161.47,48.17 227.78,-34.77 197.6,118.04 149.65,-40.82 265.23,-124.43 249.94,-77.73 360.17,150.22 512.79,298.48 137.47,81.31 13.62,-257.5 -65.85,-274.64 -155.93,-93.56 -287.41,-265.5 -466.22,-304.85 -9.04,47.35 26.49,78.88 48.82,115.76 -118.39,-119.19 -300.96,-240.84 -274.57,-429.43 85.21,-317.59 43.84,-730.2 363.14,-918.63 3.25,391.55 -134.39,783.43 -12.49,1171.39 89.25,-218.63 26.56,-447.07 71.3,-666.68 -5.22,141.09 -36.78,284.27 76.76,425.02 138.69,-361.67 101.69,-751.1 61.57,-1127.63 -45.17,-305.83 -285.44,-578.35 -598.2,-565.61 -312.36,-42.62 -831.32,-371.31 -1037.4,3.92 -7.15,13.06 -33.87,25.31 -44.05,22.69 -56.27,-43.59 28.21,-118.21 52,-155.61 127.77,-286.06 724.98,3.11 965.18,-57.78 -16.1,-35.94 -14.69,-85.9 -46.78,-110.56 -241.31,-194.96 -522.55,-289.33 -809.39,-384.37 71.71,-111.19 291.36,-174.71 425.12,-122.62 148.25,52.74 305.16,109.56 462.39,125.07 2.27,-6.37 4.77,-12.57 7.26,-18.94 -146.25,-131.77 -340.39,-191.37 -494.38,-312.36 29.29,-13.55 52.46,-18.45 72.89,-12.9 196.9,53.23 396.07,99.44 588.87,164.76 226.9,68.9 310.44,262.39 356.78,482.01 9.08,-0.17 17.94,-0.49 27.02,-0.82 62.21,-257.33 -34.83,-542.59 -315,-587.98 -522.8,-82.95 -1458.86,-399.72 -1607.18,357.26 -60.74,-300.11 186.27,-517.12 442.64,-609.7 234.12,-90.62 473.03,-52.25 712.16,-32 323.4,27.43 647.01,56.17 971.32,71.52 454.74,-19.92 931.74,12.41 1359.87,-162.63 -414.98,15.02 -824.69,44.57 -1239.28,59.92 -764.61,15.02 -1558.47,-378.65 -2249.42,131.77 388.82,-433.19 1020.32,-519.4 1565.39,-406.73 268.88,45.06 537.54,76.41 811.65,63.84 356.97,-22.86 722.87,34.45 1073.28,-51.27 -516.03,-131.61 -1083.72,-15.35 -1613.99,-105 -623.24,-152.18 -1228.87,-138.44 -1799.77,180.6 -2.96,-5.39 -6.14,-10.61 -9.1,-15.84 225.36,-177.33 506.41,-235.46 753.31,-376.86 387.03,-209.16 844.92,18.94 1255.63,-15.35 0.46,-7.02 1.12,-14.2 1.58,-21.39 -868.01,-363.12 -1232.78,-216.68 -2038.67,165.57 88.44,-118.7 305.91,-172.43 436.01,-256.52 119.63,-76.74 294.05,-91.27 382.23,-202.47 -67.27,-68.74 -190.71,-17.96 -244.82,-104.5 -75.23,-189.08 -273.01,-145.32 -432.16,-134.38 125.71,-311.55 603.08,99.11 837.54,98.13 181,31.52 360.56,18.13 543,54.38 -8.41,-25.15 -13.41,-40.17 -20.45,-61.4 26.35,5.55 45.66,9.64 64.96,13.72 5.89,-13.55 11.12,-25.64 16.8,-38.86 104.78,57.96 205.28,113.64 305.54,169.32 3.59,-4.88 2.43,-3.27 6.02,-8.32 -144.19,-133.57 -288.41,-267.14 -432.37,-400.54 5.68,-6.69 11.35,-13.55 17.26,-20.25 201.7,146.31 374.49,335.88 605.45,438.74 5.75,-7.83 4.69,-6.35 10.43,-14.36 -80.84,-90.62 -161.68,-181.41 -242.54,-272.03 2.77,-2.78 1.62,-1.62 4.38,-4.41 104.48,91.11 208.97,182.06 313.44,273.17 17.34,-16 11.41,-10.61 28.75,-26.61 -326.92,-504.22 -739.8,-941.81 -1267.22,-1233.44 595.52,183.36 941.95,742.12 1373.05,1151.14 8.44,-6.7 7.75,-6.21 16.2,-12.9 -99.73,-239.7 -275.01,-431.23 -410.91,-649.7 128.31,148.58 256.39,297.5 384.71,446.09 -342.42,-594.52 -1018.38,-881.57 -1598.11,-1190.5 411.62,108.26 777.11,386.16 1143.01,602.68 276.28,185.33 444.72,480.7 676.74,712.89l17.04 -13.06c-284.89,-586.51 -647.21,-766.45 -1164.57,-1090.57 317.86,88.83 608.83,316.28 840.28,559.74 130.19,104.99 332.71,508.3 501.43,438.74 -125.58,-207.21 -249.35,-411.48 -373.13,-615.74 187.28,161.65 276.14,418.33 461.66,582.92 9.26,-5.72 8.3,-5.23 17.55,-10.94 -13.06,-43.93 -25.34,-88.01 -36.33,-132.59 11.24,-5.88 9.34,-4.88 20.58,-10.78 31.74,37.89 63.71,75.77 95.66,113.49l21.8 -13.7c-59.95,-123.3 -120.12,-246.25 -180.08,-369.2 111.29,129.97 181.41,289.5 302.74,408.37 9.21,-5.55 7.89,-4.74 17.1,-10.29 -70.17,-229.74 -202.31,-427.96 -327.11,-630.11 194.16,186.31 302.5,430.58 442.84,654.44 -26.79,-290.32 -176.69,-519.57 -352.46,-736.4 187.6,178.3 295,409.84 415.15,640.23 12.26,-16.82 19.98,-28.09 28.15,-39.51 18.63,14.36 33.84,26.28 60.18,46.69 -15.98,-621.62 -897.04,-1202.58 -1430.05,-1397.86 652.16,116.09 1141.5,583.73 1460.95,1151.31 18.38,33.47 26.56,80.66 81.06,72 175.01,1.15 151.17,-215.53 173.28,-341.75 3.64,0.49 7.49,1 11.14,1.47 4.31,81.48 8.85,162.81 13.39,244.27 5.91,0.33 11.8,0.33 17.71,0.49 112.93,-464.86 3.32,-939.69 -152.83,-1377.12 103.74,43.26 112.11,-47.52 175.32,33.63 161.42,183.69 233.35,425.52 271.16,662.44 74.41,409.68 351.42,748 388.53,1170.74 27.96,207.69 48.86,416.53 85.87,622.76 73.64,289.01 -15.36,563.32 -44.08,848.91 -0.43,327.87 14.1,656.07 -61.07,979.37 -8.17,35.1 3.64,74.78 7.5,128.01 109.62,-173.9 146.16,-390.41 216.9,-584.88 21.5,-98.29 -45.18,-211.28 -62.93,-307.13 -9.54,-249.5 96.08,-461.93 217.57,-669.3 14.31,-24.49 16.12,-62.05 11.58,-91.6 -135.51,-698.36 65.87,-1490.61 -332.26,-2125.29 -218.82,-299.46 -450.29,-609.36 -708.52,-874.54 -227.13,-159.53 -455.35,-318.56 -693.12,-460.79 -304.04,-204.43 -678.85,-314.32 -1043.77,-324.93 -341.08,44.41 -633.38,201.83 -927.91,369.02 -722.19,314.97 -1265.91,1005 -1399.62,1790.07 -49.9,416.86 -177.98,832.9 -138.56,1254.83 10.69,66.78 4.8,149.24 41.81,196.75 406.53,585.37 475.95,1349.86 535.94,2043.82 -6.57,0.48 -13.38,0.99 -20.19,1.3 -22.49,-104.34 -45.2,-209 -67.68,-313.67 -4.77,0.66 -9.54,1.31 -14.31,1.8 102.36,801.72 96.76,1682.14 631.32,2337.23 177.23,218.8 324.34,460.79 413.56,730.37 -5.68,2.61 -11.12,5.07 -16.8,7.67 -467.97,-725.79 -1014.39,-1240.62 -1020.32,-2169.54 -85.45,-713.06 -93.69,-1447.18 -305.28,-2137.7 -29.34,-84.91 -112.73,-138.95 -201.55,-131.12 -32.17,1.97 -52.56,35.76 -39.61,65.48 68.15,156.75 131.96,311.71 130.12,486.1 -26.23,-60.1 -101.75,-342.9 -159.04,-234.97 35.6,105.65 70.49,210.8 107.26,315.14 20.69,33.31 70.49,67.28 76.76,106.95 16.82,169.48 70.41,325.58 151.02,474.82 188.21,339.96 75.37,740 80.35,1104.77 567.91,3133.08 3151.28,4372.88 4397.85,807.44 0.66,4.08 1.35,8 2.04,11.94 221.8,-457.87 67.22,-995.23 313.38,-1445.4 26.78,-111.85 370.1,-507.47 245.29,-567.57z"/>
   <path class="fil8" d="M10352.15 8690.05c-535.11,-12.09 -1057.65,15.51 -1571.44,158.54 20.36,-230.22 355.47,-237.08 530.64,-276.43 254.38,6.69 935.27,-167.86 1040.8,117.89z"/>
   <path class="fil8" d="M9643.93 9163.9c-90.44,200.83 -460.18,2.44 -245.27,-144.35 -47.53,326.57 275.39,253.42 162.84,-35.76 85.64,45.72 112.16,98.63 82.43,180.11zm317.26 -155.78c-468.4,-407.72 -1246.17,378 -747.15,280.03 -32.09,-26.29 -78.64,-19.59 -84.72,-64.5 -0.45,-43.75 88.79,-135.85 134.91,-143.35 61.6,389.42 562.98,238.39 416.71,-108.92 336.54,102.87 146.47,198.56 -35.41,339.31 280.89,-50.79 173.66,-250.32 470.32,-133.73 -52.24,-57.48 -102.2,-114.63 -154.66,-168.84z"/>
   <path class="fil8" d="M9422.14 9648.85c-119.17,-22.05 -461.78,-92.26 -273.49,-263.71 229.61,-69.88 336.16,0 525.27,125.41 145.73,110.7 -178.91,117.72 -251.78,138.3z"/>
   <path class="fil8" d="M8539.77 8958c-19.91,-84.26 -78.1,-830.46 58.72,-779.19 56.42,4.57 66.25,34.96 65.43,83.94 -8.45,236.58 39.41,492.77 -102.9,699.32 -7.09,-1.28 -14.16,-2.77 -21.25,-4.07z"/>
   <path class="fil8" d="M10191.04 9156.38c-47.19,-11.9 -80.81,-46.04 -107.33,-85.07 -144.06,-218.14 -351.42,-244.6 -580.37,-189.41 -237.23,57.15 -424.36,199.21 -588.24,376.05 -48.81,41.47 -84.16,112.66 -148.97,126.54 76.66,-490.34 1278.39,-863.77 1434.52,-243.62 -3.21,5.23 -6.41,10.45 -9.61,15.51z"/>
   <path class="fil8" d="M9457.12 11141.41c-108.25,-107.6 -216.13,-215.51 -325.02,-322.48 -22.53,-22.2 -30.99,-58.62 -80.42,-54.21 -70.49,-28.74 -96.84,-145.16 -98.87,-227.29 185.75,177.65 380.59,372.78 521.68,589.13 -5.8,4.89 -11.58,9.79 -17.37,14.85z"/>
   <path class="fil8" d="M7888.23 10403.37c-7.71,53.07 -58.34,188.43 33.27,177.17 53.89,39.02 -21.99,177.99 -75.81,179.12 -156.64,-46.7 -89.55,-288.36 42.54,-356.29z"/>
   <path class="fil8" d="M8253.64 11931.38c143.03,-16.33 266.39,-30.54 389.75,-44.58 -117.86,78.21 -245.8,64.82 -389.75,44.58z"/>
   <path class="fil0" d="M10740.14 9301.54c-4.28,39.35 -8.68,78.38 -13.41,117.73 -85.03,174.06 -133.43,358.73 -156.01,551.89l-63.35 0c27.44,-138.95 51.66,-281.5 71.07,-422.73 38.47,-84.09 89.79,-162.8 129.22,-246.89l32.48 0z"/>
   <path class="fil0" d="M6866.09 9279.33c76.87,94.87 210.96,138.47 328.36,106.63 -98.56,-50.94 -226.73,-70.7 -328.36,-106.63z"/>
   <path class="fil0" d="M11134.34 7723.92c-89.46,171.75 -148.31,359.69 -172.92,552.21 0,0 109.14,-73.16 121.31,-89.32 27.64,-36.58 46.04,-79.35 53.83,-124.42 17.72,-102.22 15.84,-237.74 -2.22,-338.47z"/>
   <path class="fil1" d="M14268.13 8627.84l-394.78 -10.94c-15.08,539.48 -108.36,1057.42 -268.62,1544.32 -160.28,486.76 -387.64,942.31 -671.09,1356.24l-1.37 2.12 0.88 -1.31c-28.15,41.31 -57.63,82.79 -87.74,124.26l-0.08 0.18c-16.88,23.17 -34.79,47.17 -53.38,71.99l0.18 -0.32c-13.12,17.46 -26.15,34.61 -39.32,51.76l0.15 -0.17c-16.34,21.24 -32.83,42.29 -49.49,63.19l-0.05 0c-9.09,11.43 -16.57,20.9 -22.82,28.41l-2 2.45 -2.2 2.78c-17.85,22.2 -36.01,44.41 -54.49,66.45l-1.68 1.97 -1.88 2.28c-2.33,2.94 -7.74,9.31 -16.06,19.27l303.14 253.09 0 -394.99 -0.17 0 -183.14 0 -118.31 139.78c-16.71,19.75 -32.6,38.53 -47.77,56.16l-0.11 0.16c-17.41,20.09 -36.14,41.15 -56.1,63.36l-0.51 0.65c-684.43,765.33 -1582.54,1333.04 -2596.3,1611.61l-0.21 0.16c-456.39,125.56 -936.66,192.67 -1432.5,192.67 -51.11,0 -102.38,-0.65 -153.79,-2.12l-0.07 0c-454.09,-12.57 -892.36,-80.66 -1309.95,-197.41l-0.1 0c-1026.72,-286.88 -1928.06,-868.66 -2609.18,-1646.87l-0.46 -0.49 -0.54 -0.65c-37.93,-42.95 -75.4,-87.36 -112.86,-132.92l-0.64 -0.81c-15.18,-18.45 -29.42,-35.93 -42.82,-52.9l-1.47 -1.8 -1.57 -1.96c-4.02,-4.9 -9.05,-11.27 -14.94,-18.62l0.8 1c-15.76,-19.94 -31.07,-39.69 -46.22,-59.45l-1.42 -1.78 0.87 1.13c-18.97,-24.66 -37.69,-49.48 -56.36,-74.79l-0.83 -1.14 -0.07 0c-27.33,-36.9 -54.01,-73.79 -80.05,-110.87l-0.53 -0.81 -0.13 -0.17c-10.69,-15.18 -21.32,-30.37 -31.64,-45.39l-0.61 -0.82 0.04 0c-20.89,-30.21 -40.99,-59.92 -60.19,-89.31l-330.58 216.04 394.93 -1.17 0 -0.32 -0.33 -118.22 -65.32 -98.62c-29.38,-44.41 -58.02,-89.46 -85.7,-134.87l-0.86 -1.47 -0.12 -0.16c-254.02,-412.3 -453.89,-860.67 -590.28,-1335.17 -136.39,-474.5 -209.36,-974.96 -209.38,-1492.57 0,-50.94 0.7,-102.05 2.12,-153.32 15.19,-546.67 110.69,-1070.81 274.75,-1562.94 246.08,-738.21 646.78,-1404.56 1163.09,-1961.69 516.28,-557.11 1147.96,-1004.68 1854.89,-1305.26l34.54 -14.71 31.66 -21.23 -220.24 -327.87 154.06 363.63c106.61,-45.23 214.9,-87.2 324.25,-125.4l1.19 -0.33c156.59,-55.19 316.31,-103.03 478.86,-143.2l0.91 -0.16c194.15,-48.34 392.85,-86.22 594.7,-113l0.37 0c98.3,-13.06 197.98,-23.34 298.66,-30.86l0.34 0c136.31,-10.28 273.86,-15.49 412.62,-15.49 50.51,0 101.19,0.64 152.05,2.1l0.09 0c121.23,3.27 241.1,10.62 359.44,21.72l0.55 0c119.67,11.11 237.99,26.29 355.28,45.57l2.28 0.31c96.92,15.35 193.74,33.64 288.98,54.38l-0.09 -0.17c610.35,132.92 1180.94,368.37 1694.12,687.26 769.74,478.42 1409.77,1144.78 1856.72,1932.29 446.98,787.84 701.24,1695.7 701.34,2662.33 0,50.78 -0.7,101.89 -2.12,153l0 0 394.78 10.94 394.78 10.93c1.62,-58.45 2.44,-116.74 2.44,-174.87 0.03,-737.22 -129.68,-1447.01 -368.04,-2105.53 -357.57,-987.87 -959,-1860.12 -1733.37,-2542.97 -774.28,-682.85 -1722.53,-1176.45 -2772.65,-1405.05l-0.1 0c-109.64,-23.84 -221.2,-44.9 -333.69,-62.7l2.28 0.33c-134.99,-22.05 -271.68,-39.68 -410.17,-52.58l0.55 0.16c-135.98,-12.9 -273.2,-21.06 -411.49,-24.98l0.09 0c-58.2,-1.63 -116.21,-2.45 -174.05,-2.45 -158.84,0 -316.21,6.04 -472,17.8l0.36 0c-115.25,8.65 -230.1,20.41 -344.22,35.6l0.38 0c-231.36,30.53 -459.2,73.96 -682.15,129.48l0.93 -0.16c-187.69,46.2 -371.92,101.39 -552.27,164.91l-1.55 0.65 2.74 -0.97c-126.66,44.08 -250.87,92.41 -372.22,143.84l-34.81 14.7 -31.89 21.39 220.22 327.87 -154.54 -363.47c-1081.1,459.81 -2006.28,1217.6 -2670.74,2173.63 -332.22,478.09 -599.22,1005.82 -787.47,1570.45 -188.26,564.63 -297.66,1166.17 -314.97,1790.73 -1.63,58.62 -2.45,117.07 -2.45,175.36 0,591.9 83.62,1166.5 240.12,1710.88 156.51,544.39 385.83,1058.73 676.94,1531.11l-0.98 -1.48c32.77,53.72 66.69,107.12 101.58,159.7l329.28 -217.99 -394.94 1.15 0 0.32 0.35 117.08 64.02 97.97c23.76,36.25 47.68,71.68 71.5,106.13l-0.57 -0.82c12.38,17.97 24.82,35.76 37.18,53.4l-0.67 -0.97c30.53,43.59 61.49,86.2 92.83,128.49l-0.9 -1.3c21.83,29.71 43.97,59.1 66.57,88.33l-0.55 -0.65c17.68,23.02 35.16,45.39 52.6,67.6l0.81 0.98c5.96,7.51 12.81,16.18 20.65,25.8l306.5 -249.01 -309.54 245.25c18.03,22.71 35.57,44.25 52.5,64.66l-0.64 -0.65c42.15,51.27 85.68,102.86 131.17,154.46l-1 -1.14c779.82,891.04 1812.68,1558.05 2990.97,1887.39l-0.08 0c479.1,133.89 981.93,211.77 1500.76,226.15l-0.06 0c58.78,1.62 117.4,2.44 175.85,2.44 567.14,0.17 1118.36,-76.74 1642.24,-221.08l-0.2 0.16c1163.48,-319.87 2192.02,-970.39 2975.73,-1846.73l-0.5 0.49c21.37,-23.84 43.66,-48.82 66.59,-75.43l-0.12 0.16c18.53,-21.39 36.02,-42.13 52.68,-61.89l-301.47 -255.04 0 394.98 0.17 0 184.75 0 118.41 -141.9c4.18,-5.06 11.64,-13.71 21.81,-26.12l-306.02 -249.64 302.46 253.88c22.52,-26.77 44.68,-53.86 66.46,-80.99l-308.46 -246.71 304.25 251.79c12.52,-15.04 23.1,-28.42 32.07,-39.69l-0.04 0c19.48,-24.33 38.76,-48.99 57.87,-73.8l0.15 -0.17c14.98,-19.59 29.75,-39.02 44.41,-58.45l0.2 -0.33c19.6,-26.13 39.94,-53.39 60.56,-81.81l-0.08 0.17c33.81,-46.53 67.91,-94.54 101.59,-144.02l-0.49 0.82c324.9,-474.5 585.74,-997.15 769.63,-1555.6 183.91,-558.59 290.76,-1152.77 307.95,-1769.33l0 -0.17 -394.78 -10.93z"/>
   <path class="fil1" d="M8754.43 1211.85c0,184.68 -149.75,334.41 -334.47,334.41 -184.74,0 -334.49,-149.73 -334.49,-334.41 0,-184.83 149.75,-334.56 334.49,-334.56 184.72,0 334.47,149.73 334.47,334.56z"/>
   <path class="fil1" d="M8754.43 15722.48c0,184.67 -149.75,334.57 -334.47,334.57 -184.74,0 -334.49,-149.9 -334.49,-334.57 0,-184.67 149.75,-334.4 334.49,-334.4 184.72,0 334.47,149.73 334.47,334.4z"/>
   <path class="fil1" d="M6373.96 9601.98c95.68,628.97 301.3,1234.42 607.47,1792.03 -379.11,-514.34 -595.37,-1153.26 -607.47,-1792.03z"/>
   <path class="fil5" d="M7293.8 5658.39c353.03,168.16 653.31,474.65 813.68,831.26 -119.36,-154.96 -241.35,-304.85 -378.13,-443.64 -135.86,-139.77 -282.97,-265.01 -435.55,-387.62z"/>
   <path class="fil5" d="M7743.23 5409.2c416.5,101.73 780.53,422.58 932.93,823.28 -227.63,-356.94 -550.16,-642.03 -932.93,-823.28z"/>
   <path class="fil5" d="M8300.83 5044.26c385.72,178.96 733.72,470.1 977.38,818.54 -156.6,-145.16 -310.91,-289.82 -474.59,-426 -162.81,-137.32 -332.2,-263.87 -502.79,-392.54z"/>
   <path class="fil5" d="M9121.09 4527.15c302.75,75.27 560.37,341.1 625.21,646.43 -148.53,-273.82 -356.34,-489.19 -625.21,-646.43z"/>
   <path class="fil1" d="M8011.11 11049.16c-22.09,-15.03 -47.23,-6.04 -61.64,7.18 -14.36,12.58 -16.75,32.66 -12.13,50.46 11.48,42.78 49.12,64.02 88.08,83.76 90.57,44.9 180.2,94.22 259.48,159.2 -76.03,-16.49 -146.65,-43.43 -217.24,-73.64 -48.81,-22.69 -98.38,-39.84 -138.52,-80.01 -38.5,-37.71 -56.39,-108.56 -15.07,-151.03 25.47,-25.8 78.28,-30.86 97.04,4.08z"/>
   <path class="fil5" d="M10828.77 8155.95c-63.12,-184.02 24.17,-420.62 192.12,-518.92 -107.18,168.53 -164.05,321.18 -192.12,518.92z"/>
   <path class="fil5" d="M5812.2 7894.86c-3.63,-26.94 -5.86,-53.88 -7.66,-80.99l3.99 -4.57c36.86,-41.96 104.56,-35.43 146.36,-3.92 41.64,30.7 62.02,83.11 72.91,129.32 31.62,147.61 39.61,300.93 8.78,449.19 -20.54,-132.42 -35.37,-262.72 -58.81,-393.84 -9.38,-51.59 -16.8,-109.23 -53.77,-146.95 -25.15,-24 -67.75,-37.23 -98.87,-16.17l3.76 -8.16c-4.89,25.47 -10.14,50.78 -16.69,76.09z"/>
  </g>
 </g>
</svg>
