<?xml version="1.0" encoding="UTF-8"?>
<!DOCTYPE svg PUBLIC "-//W3C//DTD SVG 1.1//EN" "http://www.w3.org/Graphics/SVG/1.1/DTD/svg11.dtd">
<!-- Creator: CorelDRAW -->
<svg xmlns="http://www.w3.org/2000/svg" xml:space="preserve" width="169.333mm" height="107.289mm" version="1.1" style="shape-rendering:geometricPrecision; text-rendering:geometricPrecision; image-rendering:optimizeQuality; fill-rule:evenodd; clip-rule:evenodd"
viewBox="0 0 16933.32 10728.86"
 xmlns:xlink="http://www.w3.org/1999/xlink"
 xmlns:xodm="http://www.corel.com/coreldraw/odm/2003">
 <defs>
  <style type="text/css">
   <![CDATA[
    .fil0 {fill:#E42229;fill-rule:nonzero}
    .fil1 {fill:white;fill-rule:nonzero}
   ]]>
  </style>
 </defs>
 <g id="Layer_x0020_1">
  <metadata id="CorelCorpID_0Corel-Layer"/>
  <g id="_2443417794928">
   <path class="fil0" d="M4052.18 2478.81l3695.46 -1283.17c175.09,462.31 461.94,774.48 1082.19,642.61l3088.25 0 791.62 2423.1 -791.62 588.59 480.56 193.71 482.42 2413.98 -1275.9 1274.03 137.83 808.39 -974.16 -642.61 -1415.6 0 -320.37 311.06 -324.1 -635.15c-923.87,-208.62 -1583.24,-663.1 -2242.61,-1175.33l-186.26 534.58 -456.35 -638.89 -1101.93 -523.4c-438.09,-1549.71 -561.96,-2924.33 -669.43,-4291.5z"/>
   <path class="fil1" d="M5667.96 5566.92c55.94,-44.45 81.41,-64.93 76.52,-61.63 161.12,-133.25 288.17,-242.63 381.07,-328.13 92.9,-85.51 171.41,-175.1 235.54,-268.8 64.12,-93.79 96.19,-184.99 96.19,-273.79 0,-67.43 -15.59,-120.07 -46.85,-157.92 -31.27,-37.76 -78.11,-56.74 -140.64,-56.74 -62.43,0 -111.38,23.47 -146.74,70.32 -35.36,46.85 -53.04,113.07 -53.04,198.58l-406.94 0c3.3,-139.75 33.26,-256.51 90,-350.31 56.73,-93.69 131.55,-162.72 224.45,-207.17 92.89,-44.35 196.08,-66.62 309.55,-66.62 195.68,0 343.31,50.14 442.8,150.53 99.49,100.29 149.23,231.04 149.23,392.16 0,175.9 -60.03,339.12 -180.09,489.65 -120.07,150.43 -273,297.16 -458.79,440.3l665.95 0 0 342.82 -1238.21 0 0 -313.25zm1433.09 17.28l0 -340.42 779.43 -1114.94 471.17 0 0 1090.27 202.27 0 0 365.09 -202.27 0 0 320.64 -421.83 0 0 -320.64 -828.77 0zm858.44 -991.58l-414.44 626.49 414.44 0 0 -626.49zm1783.3 -1031.05l-661.06 2804.55 -406.94 0 661.05 -2804.55 406.95 0zm1285.15 858.34l-619.2 1484.93 -431.62 0 626.5 -1438.08 -767.14 0 0 -360.1 1191.46 0 0 313.25z"/>
  </g>
 </g>
</svg>
